<svg id="Layer_1" data-name="Layer 1" xmlns="http://www.w3.org/2000/svg" viewBox="0 0 2613.156 339.594"><title>MDEV_Cutout_Text_Desktop</title><path d="M310.531,66.21,336.7,4.491h37.012L327.914,95.6v51.075H293.148V95.6l-45.7-91.113h36.817Z" transform="translate(-1.754 -2.538)" style="fill:#fff"/><path d="M501.645,78.515q0,20.8-7.715,36.816a57.011,57.011,0,0,1-21.924,24.658q-14.209,8.643-32.373,8.643t-32.227-8.35a56.918,56.918,0,0,1-21.924-23.877q-7.862-15.526-8.252-35.644V72.753q0-20.9,7.666-36.865a56.888,56.888,0,0,1,21.973-24.659q14.305-8.689,32.569-8.691,18.065,0,32.226,8.594A57.914,57.914,0,0,1,493.686,35.6q7.86,15.87,7.959,36.377Zm-34.864-5.957q0-21.191-7.08-32.178T439.438,29.394q-25.782,0-27.247,38.671l-.1,10.45q0,20.9,6.933,32.129t20.606,11.23q12.987,0,20.019-11.035T466.781,79.1Z" transform="translate(-1.754 -2.538)" style="fill:#fff"/><path d="M630.844,4.491V97.558q0,15.819-6.739,27.392a43.647,43.647,0,0,1-19.335,17.627q-12.6,6.057-29.786,6.055-25.977,0-40.918-13.477T518.832,98.241V4.491H553.3V98.925q.585,23.342,21.679,23.34,10.644,0,16.114-5.86t5.468-19.043V4.491Z" transform="translate(-1.754 -2.538)" style="fill:#fff"/><path d="M705.062,96.386H686.508v50.293H652.23V4.491h55.958q25.291,0,39.55,11.218T762,47.414Q762,62.243,755.99,72t-18.8,15.8l29.688,57.411v1.467H730.16ZM686.508,70.019h21.68q9.764,0,14.7-5.14t4.931-14.343q0-9.2-4.98-14.439t-14.648-5.239h-21.68Z" transform="translate(-1.754 -2.538)" style="fill:#fff"/><path d="M869.027,146.679H834.848V4.491h34.179Z" transform="translate(-1.754 -2.538)" style="fill:#fff"/><path d="M1011.605,146.679H977.523L927.133,58.2v88.477H892.855V4.491h34.278l50.293,88.477V4.491h34.179Z" transform="translate(-1.754 -2.538)" style="fill:#fff"/><path d="M1142.074,30.956H1099.4V146.679h-34.277V30.956h-41.894V4.491h118.847Z" transform="translate(-1.754 -2.538)" style="fill:#fff"/><path d="M1244.711,86.327h-53.906v33.985h63.672v26.367h-97.95V4.491h98.145V30.956h-63.867V60.937h53.906Z" transform="translate(-1.754 -2.538)" style="fill:#fff"/><path d="M1321.273,96.386h-18.554v50.293h-34.278V4.491H1324.4q25.293,0,39.551,11.218t14.258,31.705q0,14.829-6.006,24.584t-18.8,15.8l29.688,57.411v1.467h-36.719Zm-18.554-26.367H1324.4q9.765,0,14.7-5.14t4.931-14.343q0-9.2-4.98-14.439T1324.4,30.858h-21.679Z" transform="translate(-1.754 -2.538)" style="fill:#fff"/><path d="M1517.66,146.679h-34.082L1433.188,58.2v88.477H1398.91V4.491h34.278l50.292,88.477V4.491h34.18Z" transform="translate(-1.754 -2.538)" style="fill:#fff"/><path d="M1621.859,120.116h-46.972l-8.2,26.563h-36.622L1582.211,4.491h32.227l52.539,142.188H1630.16ZM1583.09,93.651h30.566l-15.332-49.316Z" transform="translate(-1.754 -2.538)" style="fill:#fff"/><path d="M1711.605,120.312h59.668v26.367h-93.945V4.491h34.277Z" transform="translate(-1.754 -2.538)" style="fill:#fff"/><path d="M1941.293,30.956h-42.676V146.679H1864.34V30.956h-41.895V4.491h118.848Z" transform="translate(-1.754 -2.538)" style="fill:#fff"/><path d="M2043.93,86.327h-53.907v33.985H2053.7v26.367h-97.949V4.491h98.145V30.956h-63.868V60.937h53.907Z" transform="translate(-1.754 -2.538)" style="fill:#fff"/><path d="M2148.422,120.116h-46.973l-8.2,26.563h-36.621L2108.773,4.491H2141l52.539,142.188h-36.816Zm-38.77-26.465h30.567l-15.332-49.316Z" transform="translate(-1.754 -2.538)" style="fill:#fff"/><path d="M2248.91,4.491l31.738,98.926,31.641-98.926h45.117V146.679h-34.375v-33.2l3.321-67.969-34.375,101.172H2269.32l-34.472-101.27,3.32,68.067v33.2h-34.277V4.491Z" transform="translate(-1.754 -2.538)" style="fill:#fff"/><path d="M67.121,196.491H101.3V294.05A46.645,46.645,0,0,1,95,318.269a43,43,0,0,1-17.578,16.5,53.72,53.72,0,0,1-25.147,5.86q-23.243,0-36.132-11.719T3.254,295.71H37.629q0,9.767,3.369,14.16t11.279,4.395q7.128,0,10.987-5.323t3.857-14.892Z" transform="translate(-1.754 -2.538)" style="fill:none;stroke:#fff;stroke-width:3px"/><path d="M234.406,196.491v93.067q0,15.819-6.738,27.392a43.649,43.649,0,0,1-19.336,17.627q-12.6,6.057-29.785,6.055-25.977,0-40.918-13.477T122.4,290.241v-93.75h34.472v94.434q.587,23.341,21.68,23.34,10.644,0,16.113-5.86t5.469-19.043V196.491Z" transform="translate(-1.754 -2.538)" style="fill:none;stroke:#fff;stroke-width:3px"/><path d="M329.133,300.886q0-7.52-5.322-11.719t-18.7-8.691a179.141,179.141,0,0,1-21.875-8.692q-27.636-13.572-27.636-37.3a33.458,33.458,0,0,1,6.884-20.849q6.885-9.031,19.483-14.063a75.829,75.829,0,0,1,28.32-5.029,66.314,66.314,0,0,1,27.49,5.469,43.531,43.531,0,0,1,18.9,15.576,40.679,40.679,0,0,1,6.738,23.1H329.23q0-8.691-5.322-13.477t-14.4-4.785q-9.18,0-14.5,4.053a12.431,12.431,0,0,0-5.322,10.3q0,5.471,5.859,9.913t20.606,9.179a126.379,126.379,0,0,1,24.218,10.205q23.048,13.282,23.047,36.621,0,18.656-14.062,29.3t-38.575,10.645a76.508,76.508,0,0,1-31.3-6.2q-14.014-6.2-21.094-16.993a44.261,44.261,0,0,1-7.08-24.853h34.375q0,11.426,5.908,16.846t19.189,5.42q8.5,0,13.428-3.663A12.086,12.086,0,0,0,329.133,300.886Z" transform="translate(-1.754 -2.538)" style="fill:none;stroke:#fff;stroke-width:3px"/><path d="M492.609,222.956H449.934V338.679H415.656V222.956H373.762V196.491H492.609Z" transform="translate(-1.754 -2.538)" style="fill:none;stroke:#fff;stroke-width:3px"/><path d="M667.414,321.1q-7.909,8.789-23.144,14.16a99.876,99.876,0,0,1-33.4,5.371q-27.93,0-44.629-17.09t-17.871-47.559l-.1-12.3q0-21,7.422-36.67a55.114,55.114,0,0,1,21.241-24.121q13.817-8.446,31.982-8.448,26.562,0,41.26,12.159t17.138,36.279H634.309q-1.758-11.913-7.618-16.992t-16.6-5.078q-12.891,0-19.922,10.937T583.039,263v8.594q0,21.291,7.275,31.982t22.9,10.694q13.378,0,19.922-5.957V286.237H609.309V262.7h58.105Z" transform="translate(-1.754 -2.538)" style="fill:none;stroke:#fff;stroke-width:3px"/><path d="M807.746,270.515q0,20.8-7.715,36.816a57,57,0,0,1-21.924,24.658q-14.208,8.643-32.373,8.643t-32.226-8.35A56.912,56.912,0,0,1,691.584,308.4q-7.861-15.526-8.252-35.644v-8.008q0-20.9,7.666-36.865a56.882,56.882,0,0,1,21.973-24.659q14.306-8.69,32.568-8.691,18.066,0,32.227,8.594A57.912,57.912,0,0,1,799.787,227.6q7.86,15.87,7.959,36.377Zm-34.863-5.957q0-21.189-7.08-32.178t-20.264-10.986q-25.781,0-27.246,38.671l-.1,10.45q0,20.9,6.934,32.129t20.605,11.23q12.989,0,20.02-11.035t7.129-31.738Z" transform="translate(-1.754 -2.538)" style="fill:none;stroke:#fff;stroke-width:3px"/><path d="M928.742,222.956H886.066V338.679H851.789V222.956H809.9V196.491H928.742Z" transform="translate(-1.754 -2.538)" style="fill:none;stroke:#fff;stroke-width:3px"/><path d="M1032.16,196.491l31.738,98.926,31.641-98.926h45.117V338.679h-34.375v-33.2l3.321-67.969-34.375,101.172H1052.57L1018.1,237.409l3.32,68.067v33.2H987.141V196.491Z" transform="translate(-1.754 -2.538)" style="fill:none;stroke:#fff;stroke-width:3px"/><path d="M1282.844,270.515q0,20.8-7.715,36.816a57.006,57.006,0,0,1-21.924,24.658q-14.209,8.643-32.373,8.643t-32.227-8.35a56.91,56.91,0,0,1-21.923-23.877q-7.863-15.526-8.252-35.644v-8.008q0-20.9,7.666-36.865a56.88,56.88,0,0,1,21.972-24.659q14.306-8.69,32.569-8.691,18.066,0,32.226,8.594a57.907,57.907,0,0,1,22.022,24.463q7.86,15.87,7.959,36.377Zm-34.864-5.957q0-21.189-7.08-32.178t-20.263-10.986q-25.782,0-27.246,38.671l-.1,10.45q0,20.9,6.934,32.129t20.605,11.23q12.987,0,20.02-11.035t7.128-31.738Z" transform="translate(-1.754 -2.538)" style="fill:none;stroke:#fff;stroke-width:3px"/><path d="M1353.352,288.386H1334.8v50.293H1300.52V196.491h55.957q25.291,0,39.55,11.218t14.258,31.7q0,14.831-6.006,24.584t-18.8,15.8l29.688,57.412v1.466h-36.719ZM1334.8,262.019h21.68q9.764,0,14.7-5.14t4.931-14.343q0-9.2-4.98-14.439t-14.648-5.239H1334.8Z" transform="translate(-1.754 -2.538)" style="fill:none;stroke:#fff;stroke-width:3px"/><path d="M1519.172,278.327h-53.906v33.985h63.672v26.367h-97.95V196.491h98.145v26.465h-63.867v29.981h53.906Z" transform="translate(-1.754 -2.538)" style="fill:none;stroke:#fff;stroke-width:3px"/><path d="M1626.984,290.437v48.242h-34.277V196.491h56.738q16.308,0,28.858,6.006a45.276,45.276,0,0,1,19.433,17.09,46.671,46.671,0,0,1,6.885,25.146q0,20.8-14.892,33.252t-40.87,12.452Zm0-26.465h22.461q9.962,0,15.186-4.981t5.224-14.062q0-9.961-5.371-15.918t-14.648-6.055h-22.852Z" transform="translate(-1.754 -2.538)" style="fill:none;stroke:#fff;stroke-width:3px"/><path d="M1843.293,270.515q0,20.8-7.715,36.816a57,57,0,0,1-21.924,24.658q-14.208,8.643-32.373,8.643t-32.226-8.35a56.912,56.912,0,0,1-21.924-23.877q-7.861-15.526-8.252-35.644v-8.008q0-20.9,7.666-36.865a56.876,56.876,0,0,1,21.973-24.659q14.305-8.69,32.568-8.691,18.066,0,32.226,8.594a57.907,57.907,0,0,1,22.022,24.463q7.86,15.87,7.959,36.377Zm-34.863-5.957q0-21.189-7.08-32.178t-20.264-10.986q-25.782,0-27.246,38.671l-.1,10.45q0,20.9,6.934,32.129t20.605,11.23q12.987,0,20.02-11.035t7.129-31.738Z" transform="translate(-1.754 -2.538)" style="fill:none;stroke:#fff;stroke-width:3px"/><path d="M1971.125,285.651l16.309-89.16h33.984l-30.176,142.188H1955.7l-19.043-81.055L1918,338.679h-35.449l-30.274-142.188h34.082l16.309,89.16,19.531-89.16h29.1Z" transform="translate(-1.754 -2.538)" style="fill:none;stroke:#fff;stroke-width:3px"/><path d="M2122.98,278.327h-53.906v33.985h63.672v26.367H2034.8V196.491h98.144v26.465h-63.867v29.981h53.906Z" transform="translate(-1.754 -2.538)" style="fill:none;stroke:#fff;stroke-width:3px"/><path d="M2199.543,288.386h-18.555v50.293h-34.277V196.491h55.957q25.291,0,39.551,11.218t14.258,31.7q0,14.831-6.006,24.584t-18.8,15.8l29.687,57.412v1.466h-36.718Zm-18.555-26.367h21.68q9.765,0,14.7-5.14t4.932-14.343q0-9.2-4.981-14.439t-14.648-5.239h-21.68Z" transform="translate(-1.754 -2.538)" style="fill:none;stroke:#fff;stroke-width:3px"/><path d="M2366.73,282.038h-55.273v56.641H2277.18V196.491H2372.3v26.465h-60.84v32.715h55.273Z" transform="translate(-1.754 -2.538)" style="fill:none;stroke:#fff;stroke-width:3px"/><path d="M2498.078,196.491v93.067q0,15.819-6.738,27.392A43.649,43.649,0,0,1,2472,334.577q-12.6,6.057-29.785,6.055-25.979,0-40.918-13.477t-15.235-36.914v-93.75h34.473v94.434q.586,23.341,21.68,23.34,10.642,0,16.113-5.86t5.469-19.043V196.491Z" transform="translate(-1.754 -2.538)" style="fill:none;stroke:#fff;stroke-width:3px"/><path d="M2553.742,312.312h59.668v26.367h-93.945V196.491h34.277Z" transform="translate(-1.754 -2.538)" style="fill:none;stroke:#fff;stroke-width:3px"/></svg>