<svg id="Layer_1" data-name="Layer 1" xmlns="http://www.w3.org/2000/svg" viewBox="0 0 765.939 368.547"><title>MDEV_Cutout_Text_Mobile</title><path d="M273.766,36.756,286.852,5.9h18.505l-22.9,45.557V76.99H265.074V51.453L242.223,5.9h18.408Z" transform="translate(-3.027 -4.92)" style="fill:#fff"/><path d="M369.322,42.908a41.929,41.929,0,0,1-3.857,18.408A28.514,28.514,0,0,1,354.5,73.646a30.531,30.531,0,0,1-16.187,4.321A30.959,30.959,0,0,1,322.2,73.792a28.464,28.464,0,0,1-10.962-11.938,40.71,40.71,0,0,1-4.126-17.823v-4A42.114,42.114,0,0,1,310.948,21.6,28.426,28.426,0,0,1,321.935,9.266a32.52,32.52,0,0,1,32.4-.049,28.961,28.961,0,0,1,11.011,12.231,40.916,40.916,0,0,1,3.979,18.189ZM351.891,39.93q0-10.6-3.54-16.089a11.357,11.357,0,0,0-10.132-5.493q-12.891,0-13.623,19.336l-.049,5.224q0,10.45,3.467,16.065a11.337,11.337,0,0,0,10.3,5.615,11.2,11.2,0,0,0,10.01-5.518q3.516-5.517,3.565-15.869Z" transform="translate(-3.027 -4.92)" style="fill:#fff"/><path d="M433.922,5.9V52.43a26.744,26.744,0,0,1-3.369,13.7,21.826,21.826,0,0,1-9.668,8.813,34.05,34.05,0,0,1-14.893,3.028q-12.988,0-20.459-6.738t-7.617-18.458V5.9h17.236V53.113q.294,11.671,10.84,11.67,5.322,0,8.057-2.929t2.734-9.522V5.9Z" transform="translate(-3.027 -4.92)" style="fill:#fff"/><path d="M471.031,51.844h-9.277V76.99H444.615V5.9h27.979q12.645,0,19.775,5.61T499.5,27.358q0,7.415-3,12.292a21.316,21.316,0,0,1-9.4,7.9l14.843,28.706v.733H483.58ZM461.754,38.66h10.84q4.882,0,7.348-2.569a9.937,9.937,0,0,0,2.466-7.172,10.053,10.053,0,0,0-2.49-7.22q-2.49-2.618-7.324-2.619h-10.84Z" transform="translate(-3.027 -4.92)" style="fill:#fff"/><path d="M22.838,174.99H5.748V103.9h17.09Z" transform="translate(-3.027 -4.92)" style="fill:#fff"/><path d="M94.127,174.99H77.086L51.891,130.752V174.99H34.752V103.9H51.891l25.146,44.239V103.9h17.09Z" transform="translate(-3.027 -4.92)" style="fill:#fff"/><path d="M159.361,117.129H138.023V174.99H120.885V117.129H99.938V103.9h59.423Z" transform="translate(-3.027 -4.92)" style="fill:#fff"/><path d="M210.68,144.814H183.727v16.993h31.835V174.99H166.588V103.9H215.66v13.233H183.727v14.99H210.68Z" transform="translate(-3.027 -4.92)" style="fill:#fff"/><path d="M248.961,149.844h-9.277V174.99H222.545V103.9h27.978q12.647,0,19.776,5.61t7.129,15.852q0,7.414-3,12.292a21.313,21.313,0,0,1-9.4,7.9l14.844,28.706v.733H261.51Zm-9.277-13.184h10.839q4.882,0,7.349-2.569a9.937,9.937,0,0,0,2.466-7.172,10.053,10.053,0,0,0-2.49-7.22q-2.49-2.618-7.325-2.619H239.684Z" transform="translate(-3.027 -4.92)" style="fill:#fff"/><path d="M347.154,174.99H330.113l-25.195-44.238V174.99H287.779V103.9h17.139l25.146,44.239V103.9h17.09Z" transform="translate(-3.027 -4.92)" style="fill:#fff"/><path d="M399.254,161.709H375.768l-4.1,13.281H353.355L379.43,103.9h16.113l26.269,71.094H403.4Zm-19.385-13.232h15.283l-7.666-24.659Z" transform="translate(-3.027 -4.92)" style="fill:#fff"/><path d="M444.127,161.807h29.834V174.99H426.988V103.9h17.139Z" transform="translate(-3.027 -4.92)" style="fill:#fff"/><path d="M558.971,117.129H537.633V174.99H520.494V117.129H499.547V103.9h59.424Z" transform="translate(-3.027 -4.92)" style="fill:#fff"/><path d="M610.289,144.814H583.336v16.993h31.836V174.99H566.2V103.9H615.27v13.233H583.336v14.99h26.953Z" transform="translate(-3.027 -4.92)" style="fill:#fff"/><path d="M662.535,161.709H639.049l-4.1,13.281h-18.31L642.711,103.9h16.113l26.27,71.094H666.686ZM643.15,148.477h15.284l-7.666-24.659Z" transform="translate(-3.027 -4.92)" style="fill:#fff"/><path d="M712.779,103.9l15.869,49.463L744.469,103.9h22.558V174.99H749.84v-16.6L751.5,124.4,734.312,174.99H722.984l-17.236-50.635,1.66,34.034v16.6H690.27V103.9Z" transform="translate(-3.027 -4.92)" style="fill:#fff"/><path d="M36.461,201.9h17.09v48.78a23.318,23.318,0,0,1-3.15,12.109,21.5,21.5,0,0,1-8.789,8.252,26.861,26.861,0,0,1-12.573,2.93q-11.62,0-18.066-5.86t-6.446-16.6H21.715q0,4.883,1.684,7.08t5.64,2.2a6.379,6.379,0,0,0,5.493-2.661q1.929-2.661,1.929-7.446Z" transform="translate(-3.027 -4.92)" style="fill:none;stroke:#fff;stroke-miterlimit:10;stroke-width:3px"/><path d="M120.1,201.9V248.43a26.744,26.744,0,0,1-3.37,13.7,21.821,21.821,0,0,1-9.668,8.813,34.045,34.045,0,0,1-14.892,3.028q-12.989,0-20.459-6.738T64.1,248.771V201.9H81.334v47.217q.292,11.671,10.84,11.67,5.322,0,8.056-2.929t2.735-9.522V201.9Z" transform="translate(-3.027 -4.92)" style="fill:none;stroke:#fff;stroke-miterlimit:10;stroke-width:3px"/><path d="M167.467,254.094a7.043,7.043,0,0,0-2.661-5.86q-2.662-2.1-9.351-4.345a89.559,89.559,0,0,1-10.937-4.346Q130.7,232.757,130.7,220.891a16.726,16.726,0,0,1,3.443-10.425,22.263,22.263,0,0,1,9.741-7.031,37.9,37.9,0,0,1,14.16-2.515,33.176,33.176,0,0,1,13.745,2.734,21.768,21.768,0,0,1,9.448,7.788,20.342,20.342,0,0,1,3.369,11.548H167.516a8.6,8.6,0,0,0-2.662-6.738,10.371,10.371,0,0,0-7.2-2.393,11.7,11.7,0,0,0-7.251,2.027,6.216,6.216,0,0,0-2.661,5.151q0,2.734,2.93,4.956t10.3,4.59a63.138,63.138,0,0,1,12.109,5.1q11.523,6.641,11.523,18.31,0,9.327-7.031,14.649t-19.287,5.322a38.246,38.246,0,0,1-15.649-3.1,23.59,23.59,0,0,1-10.547-8.5,22.129,22.129,0,0,1-3.54-12.427h17.187q0,5.713,2.954,8.423t9.595,2.71A11.029,11.029,0,0,0,165,259.245,6.042,6.042,0,0,0,167.467,254.094Z" transform="translate(-3.027 -4.92)" style="fill:none;stroke:#fff;stroke-miterlimit:10;stroke-width:3px"/><path d="M249.205,215.129H227.867V272.99H210.729V215.129H189.781V201.9h59.424Z" transform="translate(-3.027 -4.92)" style="fill:none;stroke:#fff;stroke-miterlimit:10;stroke-width:3px"/><path d="M336.607,264.2q-3.954,4.395-11.572,7.08a49.918,49.918,0,0,1-16.7,2.686q-13.967,0-22.315-8.545t-8.935-23.779l-.049-6.153a42.415,42.415,0,0,1,3.711-18.335,27.56,27.56,0,0,1,10.62-12.06,30.039,30.039,0,0,1,15.991-4.224q13.281,0,20.63,6.079t8.57,18.14h-16.5q-.879-5.957-3.809-8.5t-8.3-2.539a11.184,11.184,0,0,0-9.961,5.468q-3.514,5.469-3.564,15.625v4.3q0,10.646,3.638,15.992t11.45,5.346q6.689,0,9.961-2.978V246.77H307.555V235h29.052Z" transform="translate(-3.027 -4.92)" style="fill:none;stroke:#fff;stroke-miterlimit:10;stroke-width:3px"/><path d="M406.773,238.908a41.929,41.929,0,0,1-3.857,18.408,28.514,28.514,0,0,1-10.962,12.33,30.53,30.53,0,0,1-16.186,4.321,30.96,30.96,0,0,1-16.114-4.175,28.464,28.464,0,0,1-10.962-11.938,40.71,40.71,0,0,1-4.126-17.823v-4A42.114,42.114,0,0,1,348.4,217.6a28.426,28.426,0,0,1,10.987-12.329,32.52,32.52,0,0,1,32.4-.049,28.961,28.961,0,0,1,11.011,12.231,40.916,40.916,0,0,1,3.979,18.189Zm-17.431-2.978q0-10.6-3.54-16.089a11.357,11.357,0,0,0-10.132-5.493q-12.891,0-13.623,19.336L362,238.908q0,10.451,3.467,16.065a11.337,11.337,0,0,0,10.3,5.615,11.2,11.2,0,0,0,10.009-5.518q3.516-5.517,3.565-15.869Z" transform="translate(-3.027 -4.92)" style="fill:none;stroke:#fff;stroke-miterlimit:10;stroke-width:3px"/><path d="M467.271,215.129H445.934V272.99H428.8V215.129H407.848V201.9h59.423Z" transform="translate(-3.027 -4.92)" style="fill:none;stroke:#fff;stroke-miterlimit:10;stroke-width:3px"/><path d="M518.98,201.9l15.87,49.463L550.67,201.9h22.559V272.99H556.041v-16.6L557.7,222.4,540.514,272.99H529.186l-17.237-50.635,1.66,34.034v16.6H496.471V201.9Z" transform="translate(-3.027 -4.92)" style="fill:none;stroke:#fff;stroke-miterlimit:10;stroke-width:3px"/><path d="M644.322,238.908a41.929,41.929,0,0,1-3.857,18.408,28.514,28.514,0,0,1-10.962,12.33,30.531,30.531,0,0,1-16.187,4.321,30.959,30.959,0,0,1-16.113-4.175,28.464,28.464,0,0,1-10.962-11.938,40.71,40.71,0,0,1-4.126-17.823v-4a42.114,42.114,0,0,1,3.833-18.432,28.426,28.426,0,0,1,10.987-12.329,32.52,32.52,0,0,1,32.4-.049,28.961,28.961,0,0,1,11.011,12.231,40.916,40.916,0,0,1,3.979,18.189Zm-17.431-2.978q0-10.6-3.54-16.089a11.357,11.357,0,0,0-10.132-5.493q-12.891,0-13.623,19.336l-.049,5.224q0,10.451,3.467,16.065a11.337,11.337,0,0,0,10.3,5.615,11.2,11.2,0,0,0,10.01-5.518q3.516-5.517,3.565-15.869Z" transform="translate(-3.027 -4.92)" style="fill:none;stroke:#fff;stroke-miterlimit:10;stroke-width:3px"/><path d="M679.576,247.844H670.3V272.99H653.16V201.9h27.979q12.645,0,19.775,5.61t7.129,15.852q0,7.414-3,12.292a21.316,21.316,0,0,1-9.4,7.9l14.843,28.706v.733H692.125ZM670.3,234.66h10.84q4.883,0,7.348-2.569a9.937,9.937,0,0,0,2.466-7.172,10.053,10.053,0,0,0-2.49-7.22q-2.49-2.618-7.324-2.619H670.3Z" transform="translate(-3.027 -4.92)" style="fill:none;stroke:#fff;stroke-miterlimit:10;stroke-width:3px"/><path d="M762.486,242.814H735.533v16.993h31.836V272.99H718.4V201.9h49.072v13.233H735.533v14.99h26.953Z" transform="translate(-3.027 -4.92)" style="fill:none;stroke:#fff;stroke-miterlimit:10;stroke-width:3px"/><path d="M149.6,346.869V370.99H132.457V299.9h28.369a33.044,33.044,0,0,1,14.429,3,22.636,22.636,0,0,1,9.717,8.545,23.338,23.338,0,0,1,3.442,12.574q0,10.4-7.446,16.626t-20.435,6.225Zm0-13.232h11.23q4.98,0,7.593-2.491a9.252,9.252,0,0,0,2.612-7.031,11.441,11.441,0,0,0-2.685-7.959,9.515,9.515,0,0,0-7.325-3.027H149.6Z" transform="translate(-3.027 -4.92)" style="fill:none;stroke:#fff;stroke-miterlimit:10;stroke-width:3px"/><path d="M257.75,336.908a41.926,41.926,0,0,1-3.857,18.408,28.521,28.521,0,0,1-10.962,12.33,30.534,30.534,0,0,1-16.187,4.321,30.954,30.954,0,0,1-16.113-4.175,28.457,28.457,0,0,1-10.962-11.938,40.71,40.71,0,0,1-4.126-17.823v-4a42.1,42.1,0,0,1,3.833-18.432,28.43,28.43,0,0,1,10.986-12.329,32.522,32.522,0,0,1,32.4-.049,28.962,28.962,0,0,1,11.011,12.231,40.916,40.916,0,0,1,3.979,18.189Zm-17.432-2.978q0-10.6-3.54-16.089a11.355,11.355,0,0,0-10.132-5.493q-12.889,0-13.623,19.336l-.048,5.224q0,10.45,3.466,16.065a11.337,11.337,0,0,0,10.3,5.615,11.2,11.2,0,0,0,10.01-5.518q3.516-5.516,3.564-15.869Z" transform="translate(-3.027 -4.92)" style="fill:none;stroke:#fff;stroke-miterlimit:10;stroke-width:3px"/><path d="M321.666,344.477,329.82,299.9h16.992L331.725,370.99H313.951l-9.521-40.527L295.1,370.99H277.379L262.242,299.9h17.041l8.155,44.581L297.2,299.9h14.551Z" transform="translate(-3.027 -4.92)" style="fill:none;stroke:#fff;stroke-miterlimit:10;stroke-width:3px"/><path d="M397.594,340.814H370.641v16.993h31.836V370.99H353.5V299.9h49.072v13.233H370.641v14.99h26.953Z" transform="translate(-3.027 -4.92)" style="fill:none;stroke:#fff;stroke-miterlimit:10;stroke-width:3px"/><path d="M435.875,345.844H426.6V370.99H409.459V299.9h27.979q12.645,0,19.775,5.61t7.129,15.851q0,7.416-3,12.293a21.32,21.32,0,0,1-9.4,7.9l14.844,28.706v.733H448.424ZM426.6,332.66h10.84q4.881,0,7.348-2.569a9.938,9.938,0,0,0,2.466-7.172,10.053,10.053,0,0,0-2.49-7.22q-2.49-2.619-7.324-2.619H426.6Z" transform="translate(-3.027 -4.92)" style="fill:none;stroke:#fff;stroke-miterlimit:10;stroke-width:3px"/><path d="M519.469,342.67H491.832v28.32H474.693V299.9h47.559v13.233h-30.42v16.357h27.637Z" transform="translate(-3.027 -4.92)" style="fill:none;stroke:#fff;stroke-miterlimit:10;stroke-width:3px"/><path d="M585.143,299.9V346.43a26.734,26.734,0,0,1-3.37,13.7,21.815,21.815,0,0,1-9.668,8.813,34.048,34.048,0,0,1-14.892,3.028q-12.988,0-20.459-6.738t-7.617-18.458V299.9h17.236v47.217q.292,11.671,10.84,11.67,5.322,0,8.057-2.929T568,346.332V299.9Z" transform="translate(-3.027 -4.92)" style="fill:none;stroke:#fff;stroke-miterlimit:10;stroke-width:3px"/><path d="M612.975,357.807h29.834V370.99H595.836V299.9h17.139Z" transform="translate(-3.027 -4.92)" style="fill:none;stroke:#fff;stroke-miterlimit:10;stroke-width:3px"/></svg>