<?xml version="1.0" encoding="utf-8"?>
<!-- Generator: Adobe Illustrator 23.0.3, SVG Export Plug-In . SVG Version: 6.00 Build 0)  -->
<svg version="1.1" id="Layer_1" xmlns="http://www.w3.org/2000/svg" xmlns:xlink="http://www.w3.org/1999/xlink" x="0px" y="0px"
	 viewBox="0 0 2644.7 339.6" style="enable-background:new 0 0 2644.7 339.6;" xml:space="preserve">
<style type="text/css">
	.st0{fill:#FFFFFF;}
	.st1{fill:none;stroke:#FFFFFF;stroke-width:3;}
</style>
<title>MDEV_Cutout_Text_Desktop</title>
<path class="st0" d="M308.8,64.4l26.2-61.7h37l-45.8,91.1v51.1h-34.8V93.8L245.7,2.7h36.8L308.8,64.4z"/>
<path class="st0" d="M499.9,76.7c0,13.9-2.6,26.1-7.7,36.8c-4.7,10.2-12.3,18.8-21.9,24.7c-9.5,5.8-20.3,8.6-32.4,8.6
	c-12.1,0-22.9-2.8-32.2-8.4c-9.5-5.7-17.1-14-21.9-23.9c-5.2-10.4-8-22.2-8.3-35.6v-8c0-13.9,2.6-26.2,7.7-36.9
	c4.7-10.2,12.4-18.8,22-24.7c9.5-5.8,20.4-8.7,32.6-8.7c12,0,22.8,2.9,32.2,8.6c9.6,5.9,17.2,14.4,22,24.5c5.2,10.6,7.9,22.7,8,36.4
	L499.9,76.7z M465,70.8c0-14.1-2.4-24.9-7.1-32.2c-4.7-7.3-11.5-11-20.3-11c-17.2,0-26.3,12.9-27.2,38.7l-0.1,10.4
	c0,13.9,2.3,24.6,6.9,32.1s11.5,11.2,20.6,11.2c8.7,0,15.3-3.7,20-11s7.1-17.9,7.1-31.7V70.8z"/>
<path class="st0" d="M629.1,2.7v93.1c0,10.5-2.2,19.7-6.7,27.4c-4.5,7.7-11.2,13.9-19.3,17.6c-8.4,4-18.3,6.1-29.8,6.1
	c-17.3,0-31-4.5-40.9-13.5c-10-9-15-21.3-15.2-36.9V2.7h34.5v94.4c0.4,15.6,7.6,23.3,21.7,23.3c7.1,0,12.5-2,16.1-5.9
	s5.5-10.3,5.5-19V2.7H629.1z"/>
<path class="st0" d="M703.3,94.6h-18.6v50.3h-34.3V2.7h56c16.9,0,30,3.7,39.5,11.2s14.3,18,14.3,31.7c0,9.9-2,18.1-6,24.6
	S744,82,735.4,86l29.7,57.4v1.5h-36.7L703.3,94.6z M684.8,68.2h21.7c6.5,0,11.4-1.7,14.7-5.1c3.3-3.4,4.9-8.2,4.9-14.3
	c0-6.1-1.7-10.9-5-14.4c-3.3-3.5-8.2-5.2-14.6-5.2h-21.7L684.8,68.2z"/>
<path class="st0" d="M867.3,144.9h-34.2V2.7h34.2L867.3,144.9z"/>
<path class="st0" d="M1009.9,144.9h-34.1l-50.4-88.5v88.5h-34.3V2.7h34.3l50.3,88.5V2.7h34.2L1009.9,144.9z"/>
<path class="st0" d="M1140.3,29.2h-42.7v115.7h-34.3V29.2h-41.9V2.7h118.8L1140.3,29.2z"/>
<path class="st0" d="M1243,84.5h-53.9v34h63.7v26.4h-97.9V2.7h98.1v26.5h-63.9v30h53.9L1243,84.5z"/>
<path class="st0" d="M1319.5,94.6H1301v50.3h-34.3V2.7h56c16.9,0,30,3.7,39.6,11.2s14.3,18,14.3,31.7c0,9.9-2,18.1-6,24.6
	S1360.2,82,1351.6,86l29.7,57.4v1.5h-36.7L1319.5,94.6z M1301,68.2h21.7c6.5,0,11.4-1.7,14.7-5.1c3.3-3.4,4.9-8.2,4.9-14.3
	c0-6.1-1.7-10.9-5-14.4c-3.3-3.5-8.2-5.2-14.7-5.2H1301L1301,68.2z"/>
<path class="st0" d="M1515.9,144.9h-34.1l-50.4-88.5v88.5h-34.3V2.7h34.3l50.3,88.5V2.7h34.2V144.9z"/>
<path class="st0" d="M1620.1,118.3h-47l-8.2,26.6h-36.6l52.1-142.2h32.2l52.5,142.2h-36.8L1620.1,118.3z M1581.3,91.9h30.6
	l-15.3-49.3L1581.3,91.9z"/>
<path class="st0" d="M1709.9,118.5h59.7v26.4h-93.9V2.7h34.3V118.5z"/>
<path class="st0" d="M1939.5,29.2h-42.7v115.7h-34.3V29.2h-41.9V2.7h118.8V29.2z"/>
<path class="st0" d="M2042.2,84.5h-53.9v34h63.7v26.4H1954V2.7h98.1v26.5h-63.9v30h53.9L2042.2,84.5z"/>
<path class="st0" d="M2152.7,118.3h-47l-8.2,26.6h-36.6L2113,2.7h32.2l52.5,142.2H2161L2152.7,118.3z M2113.9,91.9h30.6l-15.3-49.3
	L2113.9,91.9z"/>
<path class="st0" d="M2253.2,2.7l31.7,98.9l31.6-98.9h45.1v142.2h-34.4v-33.2l3.3-68l-34.4,101.2h-22.7l-34.5-101.3l3.3,68.1v33.2
	h-34.3V2.7H2253.2z"/>
<path class="st1" d="M65.4,194.7h34.2v97.6c0.1,8.5-2,16.9-6.3,24.2c-4.2,7.1-10.3,12.8-17.6,16.5c-7.8,4-16.4,6-25.1,5.9
	c-15.5,0-27.5-3.9-36.1-11.7c-8.6-7.8-12.9-18.9-12.9-33.2h34.4c0,6.5,1.1,11.2,3.4,14.2s6,4.4,11.3,4.4c4.8,0,8.4-1.8,11-5.3
	c2.6-3.5,3.9-8.5,3.9-14.9V194.7z"/>
<path class="st1" d="M232.7,194.7v93.1c0,10.5-2.2,19.7-6.7,27.4c-4.5,7.7-11.2,13.9-19.3,17.6c-8.4,4-18.3,6.1-29.8,6.1
	c-17.3,0-31-4.5-40.9-13.5c-10-9-15-21.3-15.2-36.9v-93.8h34.5v94.4c0.4,15.6,7.6,23.3,21.7,23.3c7.1,0,12.5-2,16.1-5.9
	c3.6-3.9,5.5-10.3,5.5-19v-92.9H232.7z"/>
<path class="st1" d="M327.4,299.1c0-5-1.8-8.9-5.3-11.7c-3.5-2.8-9.8-5.7-18.7-8.7c-7.5-2.4-14.8-5.3-21.9-8.7
	c-18.4-9-27.6-21.5-27.6-37.3c-0.1-7.5,2.3-14.9,6.9-20.8c4.6-6,11.1-10.7,19.5-14.1c9-3.5,18.6-5.2,28.3-5
	c9.4-0.2,18.8,1.7,27.5,5.5c7.7,3.3,14.2,8.7,18.9,15.6c4.5,6.8,6.9,14.9,6.7,23.1h-34.2c0-5.8-1.8-10.3-5.3-13.5s-8.3-4.8-14.4-4.8
	c-6.1,0-11,1.4-14.5,4.1c-3.4,2.3-5.4,6.2-5.3,10.3c0,3.6,2,7,5.9,9.9s10.8,6,20.6,9.2c8.4,2.6,16.5,6,24.2,10.2
	c15.4,8.9,23,21.1,23,36.6c0,12.4-4.7,22.2-14.1,29.3s-22.2,10.6-38.6,10.6c-10.8,0.2-21.4-2-31.3-6.2c-9.3-4.1-16.4-9.8-21.1-17
	c-4.8-7.4-7.2-16-7.1-24.9h34.4c0,7.6,2,13.2,5.9,16.8s10.3,5.4,19.2,5.4c5.7,0,10.1-1.2,13.4-3.7
	C325.7,307,327.6,303.1,327.4,299.1z"/>
<path class="st1" d="M490.9,221.2h-42.7v115.7h-34.3V221.2H372v-26.5h118.8V221.2z"/>
<path class="st1" d="M665.7,319.3c-5.3,5.9-13,10.6-23.1,14.2c-10.7,3.7-22,5.5-33.4,5.4c-18.6,0-33.5-5.7-44.6-17.1
	s-17.1-27.2-17.9-47.6l-0.1-12.3c0-14,2.5-26.2,7.4-36.7c4.5-10,11.9-18.4,21.2-24.1c9.2-5.6,19.9-8.4,32-8.4
	c17.7,0,31.5,4.1,41.3,12.2c9.8,8.1,15.5,20.2,17.1,36.3h-33c-1.2-7.9-3.7-13.6-7.6-17s-9.4-5.1-16.6-5.1c-8.6,0-15.2,3.6-19.9,10.9
	c-4.7,7.3-7.1,17.7-7.1,31.3v8.6c0,14.2,2.4,24.9,7.3,32c4.9,7.1,12.5,10.7,22.9,10.7c8.9,0,15.6-2,19.9-6v-22.1h-23.8v-23.5h58.1
	V319.3z"/>
<path class="st1" d="M806,268.7c0,13.9-2.6,26.1-7.7,36.8c-4.7,10.2-12.3,18.8-21.9,24.7c-9.5,5.8-20.3,8.6-32.4,8.6
	s-22.9-2.8-32.2-8.4c-9.5-5.7-17.1-14-21.9-23.9c-5.2-10.4-8-22.2-8.3-35.6v-8c0-13.9,2.6-26.2,7.7-36.9c4.7-10.2,12.4-18.8,22-24.7
	c9.5-5.8,20.4-8.7,32.6-8.7c12,0,22.8,2.9,32.2,8.6c9.6,5.9,17.2,14.4,22,24.5c5.2,10.6,7.9,22.7,8,36.4V268.7z M771.1,262.8
	c0-14.1-2.4-24.9-7.1-32.2s-11.5-11-20.3-11c-17.2,0-26.3,12.9-27.2,38.7l-0.1,10.5c0,13.9,2.3,24.6,6.9,32.1
	c4.6,7.5,11.5,11.2,20.6,11.2c8.7,0,15.3-3.7,20-11c4.7-7.4,7.1-17.9,7.1-31.7L771.1,262.8z"/>
<path class="st1" d="M927,221.2h-42.7v115.7H850V221.2h-41.9v-26.5H927V221.2z"/>
<path class="st1" d="M1030.4,194.7l31.7,98.9l31.6-98.9h45.1v142.2h-34.4v-33.2l3.3-68l-34.4,101.2h-22.7l-34.5-101.3l3.3,68.1v33.2
	h-34.3V194.7H1030.4z"/>
<path class="st1" d="M1281.1,268.7c0,13.9-2.6,26.1-7.7,36.8c-4.7,10.2-12.3,18.8-21.9,24.7c-9.5,5.8-20.3,8.6-32.4,8.6
	s-22.9-2.8-32.2-8.4c-9.5-5.7-17.1-14-21.9-23.9c-5.2-10.4-8-22.2-8.3-35.6v-8c0-13.9,2.6-26.2,7.7-36.9c4.7-10.2,12.4-18.8,22-24.7
	c9.5-5.8,20.4-8.7,32.6-8.7c12,0,22.8,2.9,32.2,8.6c9.6,5.9,17.2,14.4,22,24.5c5.2,10.6,7.9,22.7,8,36.4V268.7z M1246.2,262.8
	c0-14.1-2.4-24.9-7.1-32.2s-11.5-11-20.3-11c-17.2,0-26.3,12.9-27.2,38.7l-0.1,10.5c0,13.9,2.3,24.6,6.9,32.1
	c4.6,7.5,11.5,11.2,20.6,11.2c8.7,0,15.3-3.7,20-11c4.7-7.4,7.1-17.9,7.1-31.7L1246.2,262.8z"/>
<path class="st1" d="M1351.6,286.6H1333v50.3h-34.3V194.7h56c16.9,0,30,3.7,39.6,11.2c9.5,7.5,14.3,18,14.3,31.7
	c0,9.9-2,18.1-6,24.6c-4,6.5-10.3,11.8-18.8,15.8l29.7,57.4v1.5h-36.7L1351.6,286.6z M1333,260.2h21.7c6.5,0,11.4-1.7,14.7-5.1
	c3.3-3.4,4.9-8.2,4.9-14.3c0-6.1-1.7-10.9-5-14.4c-3.3-3.5-8.2-5.2-14.6-5.2H1333V260.2z"/>
<path class="st1" d="M1522.4,276.5h-53.9v34h63.7v26.4h-97.9V194.7h98.1v26.5h-63.9v30h53.9L1522.4,276.5z"/>
<path class="st1" d="M1630.2,288.6v48.2H1596V194.7h56.7c10.9,0,20.5,2,28.9,6c8,3.7,14.8,9.6,19.4,17.1c4.6,7.6,7,16.3,6.9,25.1
	c0,13.9-5,25-14.9,33.3s-23.6,12.5-40.9,12.5L1630.2,288.6z M1630.2,262.2h22.5c6.6,0,11.7-1.7,15.2-5c3.5-3.3,5.2-8,5.2-14.1
	c0-6.6-1.8-11.9-5.4-15.9c-3.6-4-8.5-6-14.6-6.1h-22.9L1630.2,262.2z"/>
<path class="st1" d="M1846.5,268.7c0,13.9-2.6,26.1-7.7,36.8c-4.7,10.2-12.3,18.8-21.9,24.7c-9.5,5.8-20.3,8.6-32.4,8.6
	c-12.1,0-22.9-2.8-32.2-8.4c-9.5-5.7-17.1-14-21.9-23.9c-5.2-10.4-8-22.2-8.3-35.6v-8c0-13.9,2.6-26.2,7.7-36.9
	c4.7-10.2,12.4-18.8,22-24.7c9.5-5.8,20.4-8.7,32.6-8.7c12,0,22.8,2.9,32.2,8.6c9.6,5.9,17.2,14.4,22,24.5c5.2,10.6,7.9,22.7,8,36.4
	L1846.5,268.7z M1811.7,262.8c0-14.1-2.4-24.9-7.1-32.2s-11.5-11-20.3-11c-17.2,0-26.3,12.9-27.2,38.7l-0.1,10.5
	c0,13.9,2.3,24.6,6.9,32.1c4.6,7.5,11.5,11.2,20.6,11.2c8.7,0,15.3-3.7,20-11c4.7-7.4,7.1-17.9,7.1-31.7L1811.7,262.8z"/>
<path class="st1" d="M1978.4,283.9l16.3-89.2h34l-30.2,142.2h-35.5l-19-81.1l-18.7,81.1h-35.4l-30.3-142.2h34.1l16.3,89.2l19.5-89.2
	h29.1L1978.4,283.9z"/>
<path class="st1" d="M2135.2,276.5h-53.9v34h63.7v26.4H2047V194.7h98.1v26.5h-63.9v30h53.9L2135.2,276.5z"/>
<path class="st1" d="M2215.8,286.6h-18.6v50.3H2163V194.7h56c16.9,0,30,3.7,39.6,11.2c9.5,7.5,14.3,18,14.3,31.7
	c0,9.9-2,18.1-6,24.6c-4,6.5-10.3,11.8-18.8,15.8l29.7,57.4v1.5h-36.7L2215.8,286.6z M2197.2,260.2h21.7c6.5,0,11.4-1.7,14.7-5.1
	c3.3-3.4,4.9-8.2,4.9-14.3c0-6.1-1.7-10.9-5-14.4c-3.3-3.5-8.2-5.2-14.6-5.2h-21.7L2197.2,260.2z"/>
<path class="st1" d="M2383,280.2h-55.3v56.6h-34.3V194.7h95.1v26.5h-60.8v32.7h55.3L2383,280.2z"/>
<path class="st1" d="M2519.3,194.7v93.1c0,10.5-2.2,19.7-6.7,27.4c-4.5,7.7-11.2,13.9-19.3,17.6c-8.4,4-18.3,6.1-29.8,6.1
	c-17.3,0-31-4.5-40.9-13.5c-10-9-15-21.3-15.2-36.9v-93.8h34.5v94.4c0.4,15.6,7.6,23.3,21.7,23.3c7.1,0,12.5-2,16.1-5.9
	c3.6-3.9,5.5-10.3,5.5-19v-92.9H2519.3z"/>
<path class="st1" d="M2575,310.5h59.7v26.4h-93.9V194.7h34.3V310.5z"/>
</svg>
