<svg id="Layer_1" data-name="Layer 1" xmlns="http://www.w3.org/2000/svg" viewBox="0 0 685.15 331.19"><defs><style>.cls-1{fill:#fff;}</style></defs><title>MDEV_Cutout_Text_Mobile</title><path class="cls-1" d="M258.83,35.23,270.61,7.45h16.65l-20.61,41v23H251v-23l-20.57-41H247Z" transform="translate(-3.26 -6.61)"/><path class="cls-1" d="M344.83,40.76a37.89,37.89,0,0,1-3.47,16.57,25.75,25.75,0,0,1-9.87,11.1,27.47,27.47,0,0,1-14.57,3.89,27.92,27.92,0,0,1-14.5-3.76,25.58,25.58,0,0,1-9.86-10.75,36.5,36.5,0,0,1-3.72-16v-3.6a37.82,37.82,0,0,1,3.45-16.59,25.65,25.65,0,0,1,9.89-11.09,27.6,27.6,0,0,1,14.66-3.92,27.3,27.3,0,0,1,14.5,3.87,26,26,0,0,1,9.91,11,36.77,36.77,0,0,1,3.58,16.37Zm-15.72-2.68q0-9.52-3.19-14.48a10.21,10.21,0,0,0-9.11-4.94q-11.61,0-12.27,17.4v4.7q0,9.41,3.12,14.46a10.2,10.2,0,0,0,9.27,5.06,10.07,10.07,0,0,0,9-5q3.17-5,3.21-14.28Z" transform="translate(-3.26 -6.61)"/><path class="cls-1" d="M403,7.45V49.33a24.14,24.14,0,0,1-3,12.33,19.67,19.67,0,0,1-8.71,7.93,30.6,30.6,0,0,1-13.4,2.73q-11.69,0-18.41-6.07t-6.86-16.61V7.45h15.52V49.93q.25,10.5,9.75,10.5c3.19,0,5.6-.88,7.25-2.64s2.46-4.61,2.46-8.56V7.45Z" transform="translate(-3.26 -6.61)"/><path class="cls-1" d="M436.37,48.81H428V71.44H412.59v-64h25.18q11.39,0,17.8,5.05T462,26.76a20.67,20.67,0,0,1-2.71,11.06,19.15,19.15,0,0,1-8.46,7.11l13.36,25.84v.66H447.66ZM428,36.93h9.75c2.93,0,5.13-.77,6.62-2.31a9,9,0,0,0,2.22-6.46,9,9,0,0,0-2.25-6.49c-1.49-1.58-3.69-2.36-6.59-2.36H428Z" transform="translate(-3.26 -6.61)"/><path class="cls-1" d="M18.6,154.87H3.26v-64H18.6Z" transform="translate(-3.26 -6.61)"/><path class="cls-1" d="M82.8,154.87H67.46L44.79,115.05v39.82H29.36v-64H44.79l22.63,39.82V90.88H82.8Z" transform="translate(-3.26 -6.61)"/><path class="cls-1" d="M141.51,102.79h-19.2v52.08H106.88V102.79H88V90.88h53.48Z" transform="translate(-3.26 -6.61)"/><path class="cls-1" d="M187.7,127.71H163.44V143h28.65v11.87H148v-64h44.16v11.92H163.44v13.49H187.7Z" transform="translate(-3.26 -6.61)"/><path class="cls-1" d="M222.15,132.24H213.8v22.63H198.38v-64H223.6q11.39,0,17.8,5t6.41,14.27a20.76,20.76,0,0,1-2.7,11.06,19.1,19.1,0,0,1-8.51,7.11L250,154.2v.66H233.45Zm-8.35-11.88h9.8q4.4,0,6.61-2.31a10.52,10.52,0,0,0,0-13c-1.49-1.58-3.69-2.36-6.59-2.36h-9.8Z" transform="translate(-3.26 -6.61)"/><path class="cls-1" d="M310.53,154.87H295.19l-22.68-39.82v39.82H257.09v-64h15.42l22.63,39.82V90.88h15.39Z" transform="translate(-3.26 -6.61)"/><path class="cls-1" d="M357.42,142.91H336.28l-3.69,12H316.11l23.46-64h14.51l23.64,64H361.15ZM340,131h13.75l-6.9-22.2Z" transform="translate(-3.26 -6.61)"/><path class="cls-1" d="M397.8,143h26.85v11.87H382.38v-64H397.8Z" transform="translate(-3.26 -6.61)"/><path class="cls-1" d="M501.16,102.79H482v52.08H466.53V102.79H447.68V90.88h53.48Z" transform="translate(-3.26 -6.61)"/><path class="cls-1" d="M547.35,127.71H523.09V143h28.65v11.87H507.66v-64h44.17v11.92H523.09v13.49h24.26Z" transform="translate(-3.26 -6.61)"/><path class="cls-1" d="M594.37,142.91H573.23l-3.69,12H553.06l23.47-64H591l23.64,64H598.1ZM576.92,131h13.76l-6.9-22.2Z" transform="translate(-3.26 -6.61)"/><path class="cls-1" d="M639.6,90.88l14.27,44.48,14.24-44.52h20.3v64H672.94V139.93l1.5-30.59L659,154.87h-10.2L633.26,109.3l1.49,30.63v14.94H619.33v-64Z" transform="translate(-3.26 -6.61)"/><path class="cls-1" d="M104,182.23l-14.19,64H76.54L66.12,203.41,55.71,246.22H42.43l-14.19-64h13.1L50,227.66l10.54-45.44H71.75l10.5,45.53,8.61-45.53H104m2.49-2H89.21l-.31,1.63L82.06,218,73.7,181.77l-.36-1.54H59l-.36,1.55L50.23,218l-6.89-36.14L43,180.23H25.75l.54,2.44,14.19,64,.35,1.57H57.28l.37-1.53,8.47-34.82,8.47,34.82.37,1.53H91.41l.35-1.57,14.19-64,.54-2.44Z" transform="translate(-3.26 -6.61)"/><path class="cls-1" d="M130.54,182.23v64h-13.2v-64h13.2m2-2h-17.2v68h17.2Z" transform="translate(-3.26 -6.61)"/><path class="cls-1" d="M195.05,182.23v10.68h-19.6v53.31H162.26V192.91H142.93V182.23h52.12m2-2H140.93v14.68h19.33v53.31h17.19V194.91h19.6V180.23Z" transform="translate(-3.26 -6.61)"/><path class="cls-1" d="M260,182.23v64H246.85V218.8H221.14v27.42H208v-64h13.18v25.94h25.71V182.23H260m2-2H244.85v25.93H223.14V180.23H206v68h17.18V220.8h21.71v27.42H262v-68Z" transform="translate(-3.26 -6.61)"/><path class="cls-1" d="M302.26,181.36a26.57,26.57,0,0,1,14.22,3.85,25.4,25.4,0,0,1,9.62,11,38.39,38.39,0,0,1,3.41,16.59v2.85a38.74,38.74,0,0,1-3.34,16.57,25.14,25.14,0,0,1-9.56,11,28.22,28.22,0,0,1-28.45,0,25.29,25.29,0,0,1-9.67-10.86A37.38,37.38,0,0,1,275,216v-3.18a38.41,38.41,0,0,1,3.4-16.63,25.36,25.36,0,0,1,9.63-11,26.44,26.44,0,0,1,14.21-3.87m.09,54.94a11.63,11.63,0,0,0,10.2-5.21q3.56-5.21,3.6-15.19v-3.12q0-10-3.6-15.29a12.74,12.74,0,0,0-17.79-2.79,12.9,12.9,0,0,0-2.74,2.73q-3.6,5.16-3.64,15.13v3.12q0,9.81,3.6,15.21a11.71,11.71,0,0,0,10.36,5.4m-.08-56.93A28.62,28.62,0,0,0,287,183.51a27.41,27.41,0,0,0-10.38,11.85A40.54,40.54,0,0,0,273,212.85V216a39.54,39.54,0,0,0,3.67,17.19A27.4,27.4,0,0,0,287.11,245a30.24,30.24,0,0,0,30.56-.05A27.29,27.29,0,0,0,328,233.08a40.8,40.8,0,0,0,3.53-17.42v-2.85a40.52,40.52,0,0,0-3.6-17.45,27.53,27.53,0,0,0-10.38-11.87A28.54,28.54,0,0,0,302.26,179.36Zm.09,54.94a9.76,9.76,0,0,1-8.71-4.52c-2.16-3.25-3.26-8-3.26-14.1v-3.12c0-6.19,1.13-10.9,3.28-14a10.74,10.74,0,0,1,17.24.06c2.16,3.13,3.25,7.89,3.25,14.15v3.12c0,6.21-1.12,10.94-3.26,14.06a9.65,9.65,0,0,1-8.54,4.34Z" transform="translate(-3.26 -6.61)"/><path class="cls-1" d="M392.92,182.23v42.13q0,10.5-6.57,16.61t-18,6.11q-11.22,0-17.79-5.94t-6.73-16.3V182.23H357v42.23q0,6.28,3,9.17c2,1.92,4.78,2.88,8.32,2.88q11.13,0,11.3-11.69V182.23h13.23m2-2H377.69v44.59c-.1,6.69-3,9.69-9.3,9.69-3,0-5.31-.77-6.94-2.33s-2.39-4.11-2.39-7.72V180.23H341.87v44.63c.1,7.49,2.58,13.46,7.39,17.79s11.19,6.45,19.13,6.45,14.58-2.24,19.32-6.65,7.21-10.53,7.21-18.07V180.23Z" transform="translate(-3.26 -6.61)"/><path class="cls-1" d="M457.34,182.23v10.68h-19.6v53.31H424.51V192.91H405.17V182.23h52.17m2-2H403.17v14.68h19.34v53.31h17.18V194.91h19.65Z" transform="translate(-3.26 -6.61)"/><path class="cls-1" d="M540.91,182.23v10.68H521.34v53.31H508.13V192.91H488.79V182.23h52.12m2-2H486.79v14.68h19.34v53.31h17.21V194.91h19.6V180.23Z" transform="translate(-3.26 -6.61)"/><path class="cls-1" d="M605.9,182.23v64H592.71V218.8H567v27.42H553.82v-64H567v25.94h25.7V182.23H605.9m2-2H590.71v25.93H569V180.23H551.82v68H569V220.8h21.7v27.42H607.9v-68Z" transform="translate(-3.26 -6.61)"/><path class="cls-1" d="M665.61,182.23v10.68H636v15.25h25.34v10.2H636v17.23h29.7v10.59H622.81v-64h42.8m2-2h-46.8v68H667.7V233.63H638V220.36h25.34v-14.2H638V194.91h29.61V180.18Z" transform="translate(-3.26 -6.61)"/><path class="cls-1" d="M128.38,270.06a26.57,26.57,0,0,1,14.22,3.85,25.33,25.33,0,0,1,9.62,11,38.27,38.27,0,0,1,3.41,16.59v2.85a38.71,38.71,0,0,1-3.34,16.57,25.08,25.08,0,0,1-9.56,11,28.19,28.19,0,0,1-28.46,0,25.33,25.33,0,0,1-9.66-10.86,37.32,37.32,0,0,1-3.47-16.32v-3.18a38.44,38.44,0,0,1,3.4-16.63,25.46,25.46,0,0,1,9.62-11,26.67,26.67,0,0,1,14.22-3.87m.09,54.94a11.58,11.58,0,0,0,10.19-5.21q3.57-5.21,3.61-15.19v-3.12q0-10-3.61-15.29a12.71,12.71,0,0,0-17.77-2.79,12.94,12.94,0,0,0-2.75,2.73q-3.6,5.16-3.65,15.13v3.12q0,9.81,3.61,15.21A11.7,11.7,0,0,0,128.47,325m-.09-56.94a28.62,28.62,0,0,0-15.27,4.15,27.52,27.52,0,0,0-10.35,11.85,40.87,40.87,0,0,0-3.59,17.49v3.17a39.65,39.65,0,0,0,3.67,17.19,27.53,27.53,0,0,0,10.42,11.76,30.24,30.24,0,0,0,30.56-.05,27.29,27.29,0,0,0,10.31-11.84,40.62,40.62,0,0,0,3.53-17.42v-2.85a40.23,40.23,0,0,0-3.6-17.45,27.46,27.46,0,0,0-10.38-11.87A28.62,28.62,0,0,0,128.38,268.06Zm.09,54.94a9.75,9.75,0,0,1-8.71-4.52c-2.17-3.25-3.27-8-3.27-14.1v-3.12c0-6.19,1.14-10.9,3.29-14a10.73,10.73,0,0,1,15-2.17,10.43,10.43,0,0,1,2.22,2.23c2.15,3.13,3.25,7.89,3.25,14.15v3.12c0,6.21-1.12,10.94-3.26,14.06a9.6,9.6,0,0,1-8.54,4.34Z" transform="translate(-3.26 -6.61)"/><path class="cls-1" d="M222.46,270.93l-22.28,64H186.43l-22.19-64h14.63l14.41,48.13,14.48-48.13h14.7m2.82-2h-19l-.43,1.43-12.56,41.7-12.53-41.7-.43-1.43h-18.9l.92,2.66,22.19,64,.46,1.35h16.6l.47-1.35,22.28-64,.93-2.66Z" transform="translate(-3.26 -6.61)"/><path class="cls-1" d="M276.69,270.93v10.68H247.07v15.25h25.31v10.2H247.07v17.23h29.69v10.59H233.88v-64h42.81m2-2H231.88v68h46.88V322.33h-29.7V309.06h25.31v-14.2h-25.3V283.61h29.62V268.88Z" transform="translate(-3.26 -6.61)"/><path class="cls-1" d="M313.68,270.93q11.34,0,17.49,5.06t6.16,14.28a19.68,19.68,0,0,1-2.84,10.92,19.17,19.17,0,0,1-8.59,7l13.86,26.11v.62H325.59l-12-23.43h-10.5v23.43H289.91v-64h23.77m-10.59,29.89h10.67c3.31,0,5.87-.85,7.69-2.53a9,9,0,0,0,2.72-7,9.66,9.66,0,0,0-2.57-7.12c-1.71-1.72-4.34-2.59-7.89-2.59H303.09v19.21m10.59-31.89H287.91v68h17.18v-23.4h7.28l11.44,22.34.56,1.09h17.39V333.8l-.23-.43-12.9-24.31a20.32,20.32,0,0,0,7.54-6.75,21.66,21.66,0,0,0,3.16-12c0-6.75-2.32-12.08-6.89-15.83S321.68,269,313.68,269Zm-8.59,14.68h8.59c3,0,5.15.67,6.47,2a7.66,7.66,0,0,1,2,5.71,7.05,7.05,0,0,1-2.08,5.5c-1.43,1.32-3.56,2-6.33,2H305.1V283.57Z" transform="translate(-3.26 -6.61)"/><path class="cls-1" d="M404.82,270.93v64H391.64V307.5H365.93v27.42H352.76v-64H366v25.94h25.71V270.93h13.18m2-2H389.66v25.93H367.93V268.93H350.76v68H368V309.5h21.71v27.42h17.18v-68Z" transform="translate(-3.26 -6.61)"/><path class="cls-1" d="M464.54,270.93v10.68H434.92v15.25h25.31v10.2H434.92v17.23h29.7v10.59H421.76v-64h42.81m2-2H419.76v68h46.89V322.33H437V309.06h25.31v-14.2H437V283.61h29.62V268.88Z" transform="translate(-3.26 -6.61)"/><path class="cls-1" d="M508.39,270.93l24,64h-14l-4.44-13.19H490.76l-4.4,13.19h-14l23.82-64H508.4m-14.07,40.13h16l-8-24-8,24m15.43-42.13h-15l-.48,1.3-23.82,64-1,2.7h18.33l.46-1.37,3.94-11.82h20.24l4,11.83.45,1.36h18.34l-1-2.7-24-64-.48-1.3ZM497.1,309.06l5.19-15.63,5.25,15.63Z" transform="translate(-3.26 -6.61)"/><path class="cls-1" d="M563.4,270.93a30.08,30.08,0,0,1,15.1,3.8,26.57,26.57,0,0,1,10.39,10.81,33.33,33.33,0,0,1,3.74,15.93v3A33.46,33.46,0,0,1,589,320.33a26.22,26.22,0,0,1-10.35,10.73,30.08,30.08,0,0,1-15.07,3.87H543.76v-64h19.68m-6.5,53.4h6.37q7.74,0,11.82-5.06t4.18-14.46v-3.38q0-9.75-4-14.79t-11.82-5H557v42.72m6.5-55.4H541.76v68h21.82a32.12,32.12,0,0,0,16.06-4.13,28.39,28.39,0,0,0,11.12-11.61,35.5,35.5,0,0,0,3.9-16.8v-3a35.51,35.51,0,0,0-4-16.87A28.61,28.61,0,0,0,579.49,273a32.09,32.09,0,0,0-16.09-4.07ZM559,283.64h4.5c4.59,0,8,1.4,10.27,4.29s3.6,7.52,3.6,13.53v3.38c-.06,5.76-1.31,10.21-3.73,13.2s-5.71,4.32-10.27,4.32H559V283.64Z" transform="translate(-3.26 -6.61)"/></svg>