<svg id="Layer_1" data-name="Layer 1" xmlns="http://www.w3.org/2000/svg" viewBox="0 0 1172.46 163.09"><defs><style>.cls-1{fill:#fff;}</style></defs><title>MDEV_Cutout_Text</title><path class="cls-1" d="M169.72,58.3,181.5,30.52h16.65l-20.61,41v23H161.9v-23l-20.57-41H157.9Z" transform="translate(-39.41 -29.64)"/><path class="cls-1" d="M255.72,63.83a37.79,37.79,0,0,1-3.47,16.57,25.74,25.74,0,0,1-9.87,11.1,27.5,27.5,0,0,1-14.57,3.89,27.9,27.9,0,0,1-14.5-3.76,25.57,25.57,0,0,1-9.86-10.75,36.62,36.62,0,0,1-3.72-16v-3.6a37.9,37.9,0,0,1,3.45-16.59,25.56,25.56,0,0,1,9.89-11.09,27.65,27.65,0,0,1,14.66-3.92,27.38,27.38,0,0,1,14.5,3.87,26.07,26.07,0,0,1,9.91,11,36.8,36.8,0,0,1,3.58,16.37ZM240,61.15q0-9.52-3.19-14.48a10.22,10.22,0,0,0-9.11-4.94q-11.61,0-12.27,17.4l0,4.7q0,9.4,3.12,14.46a10.21,10.21,0,0,0,9.27,5.06,10.08,10.08,0,0,0,9-5q3.17-5,3.21-14.28Z" transform="translate(-39.41 -29.64)"/><path class="cls-1" d="M313.86,30.52V72.4a24.08,24.08,0,0,1-3,12.33,19.67,19.67,0,0,1-8.71,7.93,30.55,30.55,0,0,1-13.4,2.73q-11.69,0-18.41-6.07t-6.86-16.61V30.52H279V73q.25,10.5,9.75,10.5,4.78,0,7.25-2.64c1.64-1.75,2.46-4.61,2.46-8.56V30.52Z" transform="translate(-39.41 -29.64)"/><path class="cls-1" d="M347.26,71.88h-8.35V94.51H323.48v-64h25.18q11.38,0,17.8,5.05t6.42,14.27a20.7,20.7,0,0,1-2.71,11.06A19.11,19.11,0,0,1,361.71,68l13.36,25.84v.66H358.55ZM338.91,60h9.75q4.39,0,6.62-2.31a9,9,0,0,0,2.22-6.46,9,9,0,0,0-2.25-6.49c-1.49-1.58-3.69-2.36-6.59-2.36h-9.75Z" transform="translate(-39.41 -29.64)"/><path class="cls-1" d="M421,94.51H405.66v-64H421Z" transform="translate(-39.41 -29.64)"/><path class="cls-1" d="M485.2,94.51H469.86L447.19,54.69V94.51H431.76v-64h15.43l22.63,39.82V30.52H485.2Z" transform="translate(-39.41 -29.64)"/><path class="cls-1" d="M543.91,42.43h-19.2V94.51H509.28V42.43H490.43V30.52h53.48Z" transform="translate(-39.41 -29.64)"/><path class="cls-1" d="M590.1,67.35H565.84V82.64h28.65V94.51H550.42v-64h44.16V42.43H565.84V55.92H590.1Z" transform="translate(-39.41 -29.64)"/><path class="cls-1" d="M624.55,71.88H616.2V94.51H600.78v-64H626q11.38,0,17.8,5.05t6.41,14.27a20.79,20.79,0,0,1-2.7,11.06A19.11,19.11,0,0,1,639,68l13.36,25.84v.66H635.85ZM616.2,60H626q4.39,0,6.61-2.31a9,9,0,0,0,2.22-6.46,9,9,0,0,0-2.24-6.49c-1.49-1.58-3.69-2.36-6.59-2.36H616.2Z" transform="translate(-39.41 -29.64)"/><path class="cls-1" d="M712.93,94.51H697.59L674.91,54.69V94.51H659.49v-64h15.42l22.63,39.82V30.52h15.39Z" transform="translate(-39.41 -29.64)"/><path class="cls-1" d="M759.82,82.55H738.68l-3.69,12H718.51l23.46-64h14.51l23.64,64H763.55Zm-17.45-11.9h13.75l-6.9-22.2Z" transform="translate(-39.41 -29.64)"/><path class="cls-1" d="M800.2,82.64h26.85V94.51H784.78v-64H800.2Z" transform="translate(-39.41 -29.64)"/><path class="cls-1" d="M903.56,42.43h-19.2V94.51H868.93V42.43H850.08V30.52h53.48Z" transform="translate(-39.41 -29.64)"/><path class="cls-1" d="M949.75,67.35H925.49V82.64h28.65V94.51H910.06v-64h44.17V42.43H925.49V55.92h24.26Z" transform="translate(-39.41 -29.64)"/><path class="cls-1" d="M996.77,82.55H975.63l-3.69,12H955.46l23.47-64h14.5l23.64,64H1000.5Zm-17.45-11.9h13.76l-6.9-22.2Z" transform="translate(-39.41 -29.64)"/><path class="cls-1" d="M1042,30.52,1056.27,75l14.24-44.52h20.3v64h-15.47V79.57l1.5-30.59-15.47,45.53h-10.2l-15.51-45.57,1.49,30.63V94.51h-15.42v-64Z" transform="translate(-39.41 -29.64)"/><path class="cls-1" d="M117.66,125.87l-14.19,64H90.2L79.78,147.05,69.37,189.86H56.09l-14.19-64H55l8.66,45.44,10.54-45.44H85.41l10.5,45.53,8.61-45.53h13.14m2.49-2H102.87l-.31,1.63-6.84,36.16-8.36-36.24L87,123.87H72.66l-.36,1.55-8.41,36.22L57,125.5l-.31-1.63H39.41l.54,2.44,14.19,64,.35,1.57H70.94l.37-1.53,8.47-34.82,8.47,34.82.37,1.53h16.45l.35-1.57,14.19-64,.54-2.44Z" transform="translate(-39.41 -29.64)"/><path class="cls-1" d="M144.2,125.87v64H131v-64H144.2m2-2H129v68H146.2v-68Z" transform="translate(-39.41 -29.64)"/><path class="cls-1" d="M208.71,125.87v10.68h-19.6v53.31H175.92V136.55H156.59V125.87h52.12m2-2H154.59v14.68h19.33v53.31h17.19V138.55h19.6V123.87Z" transform="translate(-39.41 -29.64)"/><path class="cls-1" d="M273.7,125.87v64H260.51V162.44H234.8v27.42H221.62v-64H234.8V151.8h25.71V125.87H273.7m2-2H258.51V149.8H236.8V123.87H219.62v68H236.8V164.44h21.71v27.42H275.7v-68Z" transform="translate(-39.41 -29.64)"/><path class="cls-1" d="M315.92,125a26.54,26.54,0,0,1,14.22,3.85,25.36,25.36,0,0,1,9.62,11,38.32,38.32,0,0,1,3.41,16.59v2.85a38.71,38.71,0,0,1-3.34,16.57,25.15,25.15,0,0,1-9.56,11,28.2,28.2,0,0,1-28.45,0A25.39,25.39,0,0,1,292.15,176a37.44,37.44,0,0,1-3.47-16.32V156.5a38.41,38.41,0,0,1,3.4-16.63,25.32,25.32,0,0,1,9.63-11A26.48,26.48,0,0,1,315.92,125m.09,54.94a11.63,11.63,0,0,0,10.2-5.21q3.56-5.21,3.6-15.19v-3.12q0-10-3.6-15.29a12.73,12.73,0,0,0-20.53-.06q-3.6,5.16-3.64,15.13v3.12q0,9.81,3.6,15.21A11.72,11.72,0,0,0,316,179.93M315.92,123a28.59,28.59,0,0,0-15.27,4.15A27.46,27.46,0,0,0,290.27,139a40.69,40.69,0,0,0-3.59,17.49v3.17a39.59,39.59,0,0,0,3.67,17.19,27.48,27.48,0,0,0,10.42,11.76,30.24,30.24,0,0,0,30.56-.05,27.25,27.25,0,0,0,10.31-11.84,40.8,40.8,0,0,0,3.53-17.42v-2.85a40.45,40.45,0,0,0-3.6-17.45,27.46,27.46,0,0,0-10.38-11.87A28.56,28.56,0,0,0,315.92,123Zm.09,54.94a9.76,9.76,0,0,1-8.71-4.52c-2.16-3.25-3.26-8-3.26-14.1v-3.12c0-6.19,1.13-10.9,3.28-14a10.73,10.73,0,0,1,17.24.06c2.16,3.13,3.25,7.89,3.25,14.15v3.12c0,6.21-1.12,10.94-3.26,14.06a9.62,9.62,0,0,1-8.54,4.34Z" transform="translate(-39.41 -29.64)"/><path class="cls-1" d="M406.58,125.87V168q0,10.5-6.57,16.61t-18,6.11q-11.21,0-17.79-5.94t-6.73-16.3V125.87h13.19V168.1q0,6.28,3,9.17c2,1.92,4.78,2.88,8.32,2.88q11.13,0,11.3-11.69V125.87h13.23m2-2H391.35v44.59c-.1,6.69-3,9.69-9.3,9.69-3,0-5.31-.77-6.94-2.33s-2.39-4.11-2.39-7.72V123.87H355.53V168.5c.1,7.49,2.58,13.46,7.39,17.79s11.19,6.45,19.13,6.45,14.58-2.24,19.32-6.65,7.21-10.53,7.21-18.07V123.87Z" transform="translate(-39.41 -29.64)"/><path class="cls-1" d="M471,125.87v10.68h-19.6v53.31H438.17V136.55H418.83V125.87H471m2-2H416.83v14.68h19.34v53.31h17.18V138.55H473V123.87Z" transform="translate(-39.41 -29.64)"/><path class="cls-1" d="M554.57,125.87v10.68H535v53.31H521.79V136.55H502.45V125.87h52.12m2-2H500.45v14.68h19.34v53.31H537V138.55h19.6V123.87Z" transform="translate(-39.41 -29.64)"/><path class="cls-1" d="M619.56,125.87v64H606.37V162.44h-25.7v27.42H567.48v-64h13.19V151.8h25.7V125.87h13.19m2-2H604.37V149.8h-21.7V123.87H565.48v68h17.19V164.44h21.7v27.42h17.19v-68Z" transform="translate(-39.41 -29.64)"/><path class="cls-1" d="M679.27,125.87v10.68H649.66V151.8H675V162H649.66v17.23h29.7v10.59H636.47v-64h42.8m2-2h-46.8v68h46.89V177.27h-29.7V164H677V149.8H651.66V138.55h29.61V123.87Z" transform="translate(-39.41 -29.64)"/><path class="cls-1" d="M745.62,125a26.54,26.54,0,0,1,14.22,3.85,25.36,25.36,0,0,1,9.62,11,38.32,38.32,0,0,1,3.41,16.59v2.85a38.71,38.71,0,0,1-3.34,16.57,25.15,25.15,0,0,1-9.56,11,28.22,28.22,0,0,1-28.46,0A25.36,25.36,0,0,1,721.85,176a37.3,37.3,0,0,1-3.47-16.32V156.5a38.41,38.41,0,0,1,3.4-16.63,25.36,25.36,0,0,1,9.62-11A26.54,26.54,0,0,1,745.62,125m.09,54.94a11.6,11.6,0,0,0,10.19-5.21q3.57-5.21,3.61-15.19v-3.12q0-10-3.61-15.29a12.72,12.72,0,0,0-20.52-.06q-3.6,5.16-3.65,15.13v3.12q0,9.81,3.61,15.21a11.72,11.72,0,0,0,10.37,5.41M745.62,123a28.59,28.59,0,0,0-15.27,4.15A27.46,27.46,0,0,0,720,139a40.69,40.69,0,0,0-3.59,17.49v3.17a39.59,39.59,0,0,0,3.67,17.19,27.48,27.48,0,0,0,10.42,11.76,30.24,30.24,0,0,0,30.56-.05,27.38,27.38,0,0,0,10.31-11.84,40.8,40.8,0,0,0,3.53-17.42v-2.85a40.45,40.45,0,0,0-3.6-17.45,27.46,27.46,0,0,0-10.38-11.87A28.59,28.59,0,0,0,745.62,123Zm.09,54.94a9.76,9.76,0,0,1-8.71-4.52c-2.17-3.25-3.27-8-3.27-14.1v-3.12c0-6.19,1.14-10.9,3.29-14a10.73,10.73,0,0,1,17.24.06c2.15,3.13,3.25,7.89,3.25,14.15v3.12c0,6.21-1.12,10.94-3.26,14.06a9.63,9.63,0,0,1-8.54,4.34Z" transform="translate(-39.41 -29.64)"/><path class="cls-1" d="M839.7,125.87l-22.28,64H803.67l-22.19-64h14.63L810.52,174,825,125.87H839.7m2.82-2h-19l-.43,1.43L810.53,167,798,125.3l-.43-1.43H778.67l.92,2.66,22.19,64,.46,1.35h16.6l.47-1.35,22.28-64,.93-2.66Z" transform="translate(-39.41 -29.64)"/><path class="cls-1" d="M893.93,125.87v10.68H864.31V151.8h25.31V162H864.31v17.23H894v10.59H851.12v-64h42.81m2-2H849.12v68H896V177.27h-29.7V164h25.31V149.8H866.31V138.55h29.62V123.87Z" transform="translate(-39.41 -29.64)"/><path class="cls-1" d="M930.92,125.87q11.34,0,17.49,5.06t6.16,14.28a19.71,19.71,0,0,1-2.84,10.92,19.29,19.29,0,0,1-8.59,7L957,189.24v.62H942.83l-12-23.43h-10.5v23.43H907.15v-64h23.77m-10.59,29.89H931c3.31,0,5.87-.85,7.69-2.53a9.07,9.07,0,0,0,2.72-7,9.66,9.66,0,0,0-2.57-7.12c-1.71-1.72-4.34-2.59-7.89-2.59H920.33v19.21m10.59-31.89H905.15v68h17.18V168.43h7.28l11.44,22.34.56,1.09H959v-3.12l-.23-.43L945.87,164a20.44,20.44,0,0,0,7.54-6.75,21.76,21.76,0,0,0,3.16-12c0-6.75-2.32-12.08-6.89-15.83s-10.76-5.51-18.76-5.51Zm-8.59,14.68h8.59c3,0,5.15.67,6.47,2a7.69,7.69,0,0,1,2,5.71,7.08,7.08,0,0,1-2.08,5.5c-1.43,1.32-3.56,2-6.33,2h-8.64V138.55Z" transform="translate(-39.41 -29.64)"/><path class="cls-1" d="M1022.06,125.87v64h-13.18V162.44H983.17v27.42H970v-64h13.19V151.8h25.71V125.87h13.18m2-2h-17.18V149.8H985.17V123.87H968v68h17.19V164.44h21.71v27.42h17.18v-68Z" transform="translate(-39.41 -29.64)"/><path class="cls-1" d="M1081.78,125.87v10.68h-29.62V151.8h25.31V162h-25.31v17.23h29.7v10.59H1039v-64h42.81m2-2H1037v68h46.89V177.27h-29.7V164h25.31V149.8h-25.31V138.55h29.62V123.87Z" transform="translate(-39.41 -29.64)"/><path class="cls-1" d="M1125.63,125.87l23.95,64h-14l-4.44-13.19H1108l-4.4,13.19h-14l23.82-64h12.22M1111.57,166h16l-8-24-8,24M1127,123.87h-15l-.48,1.3-23.82,64-1,2.7h18.33l.46-1.37,3.94-11.82h20.24l4,11.83.45,1.36h18.34l-1-2.7-24-64-.48-1.3ZM1114.34,164l5.19-15.63,5.25,15.63Z" transform="translate(-39.41 -29.64)"/><path class="cls-1" d="M1180.64,125.87a30,30,0,0,1,15.1,3.8,26.54,26.54,0,0,1,10.39,10.81,33.39,33.39,0,0,1,3.74,15.93v3a33.49,33.49,0,0,1-3.67,15.86A26.33,26.33,0,0,1,1195.85,186a30.14,30.14,0,0,1-15.07,3.87H1161v-64h19.68m-6.5,53.4h6.37q7.74,0,11.82-5.06t4.18-14.46v-3.38q0-9.75-4-14.79t-11.82-5h-6.5v42.72m6.5-55.4H1159v68h21.82a32.25,32.25,0,0,0,16.06-4.13A28.46,28.46,0,0,0,1208,176.16a35.7,35.7,0,0,0,3.9-16.8v-3a35.57,35.57,0,0,0-4-16.87,28.58,28.58,0,0,0-11.17-11.6,32,32,0,0,0-16.09-4.07Zm-4.5,14.68h4.5c4.59,0,7.95,1.4,10.27,4.29s3.6,7.52,3.6,13.53v3.38c-.06,5.76-1.31,10.21-3.73,13.2s-5.71,4.32-10.27,4.32h-4.37V138.55Z" transform="translate(-39.41 -29.64)"/></svg>