<svg id="Layer_1" data-name="Layer 1" xmlns="http://www.w3.org/2000/svg" viewBox="0 0 540 533"><defs><style>.cls-1{fill:#16b1a9}</style></defs><path class="cls-1" d="M266.08 391.93v.03l-.02-.02-.03.02v-.03l-128.19-71.28-33.07 18.4 161.29 89.61 161.28-89.61-33.07-18.4-128.19 71.28zM266.06 29.19l-161.29 89.74-.69-.38 161.98 89.99 161.98-89.99-.7.38-161.28-89.74z"/><path class="cls-1" d="M-2 0v533h540V0zm431.08 300.18L396 318.57 429.08 337v73.25l-165 91.75H264L99 410.22V337l33.07-18.41L99 300.18v-73.25l33.1-18.42 3.74 2.08L102.77 229l161.29 89.61L425.34 229l-33.1-18.42 3.74-2.08 33.1 18.42zm0-183.32v73.24l-165 91.75H264L99 190.1v-73.24L264 25h.05l165 91.83z" transform="translate(2)"/></svg>