<!--?xml version="1.0" encoding="utf-8"?-->
<!-- Generator: Adobe Illustrator 23.0.2, SVG Export Plug-In . SVG Version: 6.00 Build 0)  -->
<svg version="1.1" id="Layer_1" xmlns="http://www.w3.org/2000/svg" xmlns:xlink="http://www.w3.org/1999/xlink" x="0px" y="0px" viewBox="0 0 631.5 155.1" style="" xml:space="preserve">
<style type="text/css">
	.st0{fill:none;stroke:#11B1A9;stroke-width:3;stroke-miterlimit:10;}
</style>
<title>MDEV_HEADER_start</title>
<path class="st0 hUGEIHzw_0" d="M84.8,110.9c0-5-1.8-8.9-5.3-11.7s-9.8-5.7-18.7-8.7c-7.5-2.4-14.8-5.3-21.9-8.7c-18.4-9-27.6-21.5-27.6-37.3
	c-0.1-7.5,2.3-14.9,6.9-20.8c4.6-6,11.1-10.7,19.5-14.1c9-3.5,18.6-5.2,28.3-5c9.4-0.2,18.8,1.7,27.5,5.5
	c7.7,3.3,14.2,8.7,18.9,15.6c4.5,6.8,6.9,14.9,6.7,23.1H84.9c0-5.8-1.8-10.3-5.3-13.5c-3.5-3.2-8.3-4.8-14.4-4.8
	c-6.1,0-11,1.4-14.5,4.1c-3.4,2.3-5.4,6.2-5.3,10.3c0,3.6,2,7,5.9,9.9c3.9,3,10.8,6,20.6,9.2c8.4,2.5,16.5,6,24.2,10.2
	c15.4,8.9,23,21.1,23,36.6c0,12.4-4.7,22.2-14.1,29.3c-9.4,7.1-22.2,10.6-38.6,10.6c-10.8,0.2-21.4-2-31.3-6.2
	c-9.3-4.1-16.4-9.8-21.1-17c-4.8-7.4-7.2-16-7.1-24.9h34.4c0,7.6,2,13.2,5.9,16.8s10.3,5.4,19.2,5.4c5.7,0,10.1-1.2,13.4-3.7
	C83.2,118.8,85,114.9,84.8,110.9z"></path>
<path class="st0 hUGEIHzw_1" d="M248.3,33h-42.7v115.7h-34.3V33h-41.9V6.5h118.8V33z"></path>
<path class="st0 hUGEIHzw_2" d="M331.8,122.1h-47l-8.2,26.6H240L292.1,6.5h32.2l52.5,142.2h-36.8L331.8,122.1z M293,95.7h30.6l-15.3-49.3
	L293,95.7z"></path>
<path class="st0 hUGEIHzw_3" d="M440.1,98.4h-18.6v50.3h-34.3V6.5h56c16.9,0,30,3.7,39.6,11.2c9.5,7.5,14.3,18,14.3,31.7c0,9.9-2,18.1-6,24.6
	s-10.3,11.8-18.8,15.8l29.7,57.4v1.5h-36.7L440.1,98.4z M421.5,72h21.7c6.5,0,11.4-1.7,14.7-5.1c3.3-3.4,4.9-8.2,4.9-14.3
	c0-6.1-1.7-10.9-5-14.4s-8.2-5.2-14.6-5.2h-21.7V72z"></path>
<path class="st0 hUGEIHzw_4" d="M624.5,33h-42.7v115.7h-34.3V33h-41.9V6.5h118.8V33z"></path>
<style data-made-with="vivus-instant">.hUGEIHzw_0{stroke-dasharray:719 721;stroke-dashoffset:720;animation:hUGEIHzw_draw 1866ms ease-in-out 0ms forwards;}.hUGEIHzw_1{stroke-dasharray:523 525;stroke-dashoffset:524;animation:hUGEIHzw_draw 1866ms ease-in-out 233ms forwards;}.hUGEIHzw_2{stroke-dasharray:646 648;stroke-dashoffset:647;animation:hUGEIHzw_draw 1866ms ease-in-out 466ms forwards;}.hUGEIHzw_3{stroke-dasharray:735 737;stroke-dashoffset:736;animation:hUGEIHzw_draw 1866ms ease-in-out 700ms forwards;}.hUGEIHzw_4{stroke-dasharray:523 525;stroke-dashoffset:524;animation:hUGEIHzw_draw 1866ms ease-in-out 933ms forwards;}@keyframes hUGEIHzw_draw{100%{stroke-dashoffset:0;}}@keyframes hUGEIHzw_fade{0%{stroke-opacity:1;}94.28571428571429%{stroke-opacity:1;}100%{stroke-opacity:0;}}</style></svg>
