<svg id="Layer_1" data-name="Layer 1" xmlns="http://www.w3.org/2000/svg" viewBox="0 0 528.148 106.816"><title>MDEV_HEADER_something</title><path d="M35.987,74.349a4.241,4.241,0,0,0-2.45-3.756q-2.451-1.416-9.31-2.94a42.409,42.409,0,0,1-11.324-4A18.925,18.925,0,0,1,6.1,57.635a14.358,14.358,0,0,1-2.342-8.111,16.284,16.284,0,0,1,6.7-13.366q6.7-5.253,17.53-5.254,11.65,0,18.729,5.281A16.517,16.517,0,0,1,53.79,50.068h-18.4q0-7.077-7.459-7.077a7.4,7.4,0,0,0-4.846,1.6,4.978,4.978,0,0,0-1.959,4,4.566,4.566,0,0,0,2.395,3.975,22.681,22.681,0,0,0,7.649,2.5A66.108,66.108,0,0,1,40.4,57.418Q53.68,61.99,53.681,73.805q0,8.058-7.16,13.12T27.983,91.989a32.031,32.031,0,0,1-13.5-2.722,22.561,22.561,0,0,1-9.255-7.4,16.76,16.76,0,0,1-3.322-9.855h17.15q.108,4.083,2.722,5.962a11.2,11.2,0,0,0,6.7,1.878,8.808,8.808,0,0,0,5.634-1.524A4.877,4.877,0,0,0,35.987,74.349Z" transform="translate(-1.905 -7.276)" style="fill:#16b1a9"/><path d="M59.941,60.9A34.768,34.768,0,0,1,63.371,45.2a24.532,24.532,0,0,1,9.855-10.589,29.674,29.674,0,0,1,15.08-3.7q13.23,0,20.851,8.194t7.622,22.294v.654q0,13.773-7.649,21.858T88.415,91.989q-12.576,0-20.2-7.54T60,64.005Zm18.348,1.144q0,8.166,2.558,11.977a8.524,8.524,0,0,0,7.568,3.811q9.8,0,10.018-15.08V60.9q0-15.843-10.127-15.843-9.2,0-9.963,13.665Z" transform="translate(-1.905 -7.276)" style="fill:#16b1a9"/><path d="M142.2,31.993l.6,6.914a20.252,20.252,0,0,1,16.822-8q11.16,0,15.081,8.874Q180.7,30.906,192.02,30.9q17.91,0,18.4,21.669V90.9h-18.4V53.715q0-4.517-1.525-6.586t-5.553-2.07a8.691,8.691,0,0,0-8.112,4.846l.055.762V90.9h-18.4V53.825q0-4.627-1.469-6.7t-5.608-2.07a8.8,8.8,0,0,0-8.057,4.846v41H125V31.993Z" transform="translate(-1.905 -7.276)" style="fill:#16b1a9"/><path d="M249.4,91.989q-13.555,0-21.94-8.085t-8.384-21.042V61.337a36.18,36.18,0,0,1,3.348-15.951,24.5,24.5,0,0,1,9.772-10.7A29.507,29.507,0,0,1,247.441,30.9q12.414,0,19.6,7.7t7.187,21.478v7.131H237.751a13.217,13.217,0,0,0,4.3,7.786,12.8,12.8,0,0,0,8.6,2.831q8.71,0,13.612-6.1l8.383,9.909a23.44,23.44,0,0,1-9.717,7.54A32.849,32.849,0,0,1,249.4,91.989Zm-2.068-46.93q-8.058,0-9.582,10.671h18.51V54.314q.109-4.408-2.232-6.832A8.887,8.887,0,0,0,247.333,45.059Z" transform="translate(-1.905 -7.276)" style="fill:#16b1a9"/><path d="M302.974,17.348V31.993h9.69v12.74h-9.69V71.682q0,3.321,1.2,4.627t4.737,1.307a27,27,0,0,0,4.573-.326V90.41a33.878,33.878,0,0,1-10.344,1.579q-9.474,0-13.991-4.464t-4.52-13.557V44.733h-7.513V31.993h7.513V17.348Z" transform="translate(-1.905 -7.276)" style="fill:#16b1a9"/><path d="M337.817,38.308a18.365,18.365,0,0,1,15.026-7.4q9.745,0,14.7,5.771t5.062,17.04V90.9H354.2V54.151q0-4.682-1.905-6.887t-6.479-2.205q-5.662,0-8,3.594V90.9H319.47V7.276h18.347Z" transform="translate(-1.905 -7.276)" style="fill:#16b1a9"/><path d="M382.678,16.8a8.189,8.189,0,0,1,2.831-6.424,12.038,12.038,0,0,1,14.7,0,8.192,8.192,0,0,1,2.831,6.424,8.19,8.19,0,0,1-2.831,6.425,12.038,12.038,0,0,1-14.7,0A8.187,8.187,0,0,1,382.678,16.8Zm19.49,74.1h-18.4V31.993h18.4Z" transform="translate(-1.905 -7.276)" style="fill:#16b1a9"/><path d="M430.315,31.993l.6,6.914q6.1-8,16.822-8,9.2,0,13.747,5.5t4.709,16.551V90.9h-18.4V53.715q0-4.463-1.8-6.56t-6.533-2.1a8.751,8.751,0,0,0-8,4.247V90.9H413.111V31.993Z" transform="translate(-1.905 -7.276)" style="fill:#16b1a9"/><path d="M474.2,61.011a39.78,39.78,0,0,1,2.941-15.789,23.664,23.664,0,0,1,8.438-10.589A22.25,22.25,0,0,1,498.368,30.9q9.2,0,14.373,6.207l.654-5.118h16.659V88.668a24.843,24.843,0,0,1-3.62,13.529,23.237,23.237,0,0,1-10.481,8.819,38.518,38.518,0,0,1-15.9,3.076,33.216,33.216,0,0,1-12.549-2.45,22.632,22.632,0,0,1-9.282-6.369l7.675-10.78a16.823,16.823,0,0,0,13.5,6.044q12.195,0,12.2-12.523v-1.85a17.233,17.233,0,0,1-13.339,5.825,21.287,21.287,0,0,1-17.421-8.248q-6.644-8.248-6.643-22.076Zm18.4,1.143q0,7.242,2.722,11.461a8.591,8.591,0,0,0,7.622,4.219q5.933,0,8.657-3.975V49.088q-2.668-4.028-8.548-4.029a8.646,8.646,0,0,0-7.676,4.383Q492.6,53.825,492.6,62.154Z" transform="translate(-1.905 -7.276)" style="fill:#16b1a9"/></svg>