<svg xmlns="http://www.w3.org/2000/svg" width="414" height="214" viewBox="0 0 414 214">
  <metadata><?xpacket begin="﻿" id="W5M0MpCehiHzreSzNTczkc9d"?>
<x:xmpmeta xmlns:x="adobe:ns:meta/" x:xmptk="Adobe XMP Core 5.6-c140 79.160451, 2017/05/06-01:08:21        ">
   <rdf:RDF xmlns:rdf="http://www.w3.org/1999/02/22-rdf-syntax-ns#">
      <rdf:Description rdf:about=""/>
   </rdf:RDF>
</x:xmpmeta>
                                                                                                    
                                                                                                    
                                                                                                    
                                                                                                    
                                                                                                    
                                                                                                    
                                                                                                    
                                                                                                    
                                                                                                    
                                                                                                    
                                                                                                    
                                                                                                    
                                                                                                    
                                                                                                    
                                                                                                    
                                                                                                    
                                                                                                    
                                                                                                    
                                                                                                    
                                                                                                    
                           
<?xpacket end="w"?></metadata>
<defs>
    <style>
      .cls-1 {
        fill-rule: evenodd;
      }
    </style>
  </defs>
  <path id="icon-paper_airplane" data-name="icon-paper airplane" class="cls-1" d="M1340.25,2665.66l0.99,1.51c-0.75.49-1.5,0.99-2.25,1.49l-1-1.5C1338.75,2666.66,1339.5,2666.16,1340.25,2665.66Zm225.23-82.69,0.46,1.74c-1.77.47-3.52,0.98-5.23,1.49l-0.52-1.72C1561.91,2583.95,1563.69,2583.45,1565.48,2582.97Zm-10.52,3.2,0.58,1.71c-1.73.6-3.45,1.23-5.09,1.88l-0.66-1.68C1551.46,2587.42,1553.19,2586.78,1554.96,2586.17Zm-10.25,4.04,0.74,1.65c-1.67.75-3.32,1.54-4.88,2.35l-0.83-1.61C1541.34,2591.78,1543.01,2590.98,1544.71,2590.21Zm-87.32,19.48,1.05-.21,0.35,1.77c-1.74.34-3.52,0.73-5.31,1.15l-0.41-1.75C1454.52,2610.31,1455.97,2609.98,1457.39,2609.69Zm6.47-1.18c1.83-.29,3.67-0.54,5.46-0.75l0.2,1.8c-1.76.2-3.57,0.44-5.38,0.73Zm-16.12,3.49,0.47,1.74c-1.71.46-3.47,0.96-5.23,1.5l-0.52-1.73C1444.24,2612.97,1446.01,2612.46,1447.74,2612Zm27.06-4.73c1.87-.12,3.72-0.19,5.52-0.21l0.01,1.81c-1.76.01-3.58,0.08-5.41,0.2Zm-37.58,7.9,0.57,1.71c-1.68.56-3.42,1.15-5.15,1.78l-0.61-1.7C1433.78,2616.33,1435.53,2615.73,1437.22,2615.17Zm97.69-19.9,0.92,1.55c-1.58.93-3.11,1.91-4.57,2.9l-1.01-1.49C1531.73,2597.22,1533.3,2596.22,1534.91,2595.27Zm-108.02,23.6,0.64,1.68c-1.68.65-3.38,1.32-5.07,2.01l-0.68-1.67C1423.48,2620.19,1425.2,2619.52,1426.89,2618.87Zm58.94-11.7c1.87,0.09,3.72.24,5.51,0.45l-0.21,1.79c-1.75-.2-3.56-0.35-5.38-0.44ZM1416.72,2623l0.71,1.66c-1.63.7-3.31,1.44-4.99,2.2l-0.74-1.65C1413.39,2624.45,1415.07,2623.71,1416.72,2623Zm109.08-21.48,1.12,1.41c-1.42,1.13-2.79,2.32-4.08,3.53l-1.23-1.32C1522.93,2603.9,1524.34,2602.68,1525.8,2601.52Zm-28.99,6.93c1.83,0.35,3.64.77,5.39,1.25l-0.48,1.74c-1.7-.46-3.47-0.87-5.25-1.21Zm-90.09,19.05,0.76,1.64c-1.64.77-3.29,1.56-4.92,2.35l-0.79-1.62C1403.41,2629.08,1405.07,2628.28,1406.72,2627.5Zm-9.85,4.81,0.81,1.61c-1.59.81-3.22,1.65-4.85,2.5l-0.84-1.6C1393.63,2633.96,1395.27,2633.12,1396.87,2632.31Zm120.86-23.2,1.35,1.2c-1.2,1.34-2.35,2.74-3.41,4.16l-1.44-1.07C1515.32,2611.93,1516.5,2610.49,1517.73,2609.11Zm-10.25,2.28c1.74,0.64,3.46,1.36,5.11,2.14l-0.77,1.63c-1.61-.76-3.28-1.46-4.96-2.08Zm-120.33,26,0.85,1.59c-1.58.85-3.19,1.73-4.79,2.61l-0.87-1.58C1383.94,2639.12,1385.56,2638.24,1387.15,2637.39Zm-9.59,5.3,0.89,1.57q-2.37,1.335-4.74,2.72l-0.91-1.56Q1375.185,2644.025,1377.56,2642.69Zm139.93-26.57c1.59,0.94,3.15,1.96,4.65,3.03l-1.05,1.47c-1.46-1.05-2.97-2.04-4.51-2.94Zm-6.36,1.88,1.54,0.94c-0.92,1.52-1.79,3.11-2.56,4.72l-1.63-.78C1509.29,2621.22,1510.18,2619.57,1511.13,2618Zm-143.05,30.19,0.92,1.55c-1.56.93-3.12,1.86-4.68,2.81l-0.94-1.54Q1365.735,2649.585,1368.08,2648.19Zm-9.37,5.67,0.95,1.54c-1.55.95-3.09,1.92-4.64,2.89l-0.96-1.53Q1356.385,2655.305,1358.71,2653.86Zm167.78-31.28c1.38,1.2,2.74,2.47,4.03,3.8l-1.29,1.26c-1.26-1.29-2.58-2.53-3.92-3.69Zm-177.05,37.11,0.97,1.52q-2.295,1.47-4.6,2.96l-0.98-1.51C1346.37,2661.66,1347.9,2660.67,1349.44,2659.69Zm156.86-31.71,1.69,0.63c-0.62,1.66-1.18,3.38-1.66,5.12l-1.74-.48C1505.09,2631.46,1505.66,2629.68,1506.3,2627.98Zm27.93,2.51c0.8,0.96,1.59,1.96,2.35,2.98,0.36,0.47.7,0.95,1.03,1.43l-1.49,1.02c-0.31-.46-0.64-0.91-0.98-1.36-0.75-1-1.52-1.98-2.3-2.91Zm-30.9,8.15,1.77,0.34c-0.33,1.73-.6,3.53-0.81,5.34l-1.79-.21C1502.71,2642.26,1502.99,2640.42,1503.33,2638.64Zm37.12,1.07a36.438,36.438,0,0,1,2.09,5.2l-1.72.54a33.9,33.9,0,0,0-1.99-4.93Zm-38.39,9.91,1.81,0.08c-0.05.94-.08,1.89-0.09,2.84a23.016,23.016,0,0,0,.1,2.5l-1.79.17a24,24,0,0,1-.11-2.69C1501.99,2651.55,1502.02,2650.57,1502.06,2649.62Zm39.91,1.01,1.79-.24a26.986,26.986,0,0,1,.18,5.65l-1.8-.14A24.753,24.753,0,0,0,1541.97,2650.63Zm-36.98,9.53a19.078,19.078,0,0,0,1.56,3.4c0.25,0.43.51,0.86,0.79,1.26l-1.5,1.02c-0.29-.44-0.58-0.9-0.85-1.37a21.137,21.137,0,0,1-1.7-3.71Zm36.08,0.84,1.7,0.61a19.5,19.5,0,0,1-2.66,5.05l-1.46-1.07A17.821,17.821,0,0,0,1541.07,2661Zm-30.26,7.71a18.428,18.428,0,0,0,4.39,2.78l-0.75,1.64a19.987,19.987,0,0,1-4.81-3.05Zm24.2,0.58,1.09,1.44a20.509,20.509,0,0,1-4.98,2.77l-0.65-1.68A18.815,18.815,0,0,0,1535.01,2669.29Zm-14.82,3.67a19.742,19.742,0,0,0,5.21.1l0.2,1.8a21.674,21.674,0,0,1-5.69-.12Zm53.42-91.96,0.39,1.76c-0.89.19-1.76,0.39-2.63,0.59l-0.41-1.75C1571.84,2581.39,1572.72,2581.19,1573.61,2581Zm30.31,34.01,32.1-42.34-32.54-12.01Zm28.94-84.58-42.58,25.4,7.96,24.39-0.15-19.51-0.02-2.62,2.05-1.64Zm-87.87,2.91,44.77,16.52,109.42-65.25-90.76,72.13,67.27,24.83,76.3-120.57Z" transform="translate(-1338 -2461)"/>
</svg>
