<!--?xml version="1.0" encoding="utf-8"?-->
<!-- Generator: Adobe Illustrator 22.1.0, SVG Export Plug-In . SVG Version: 6.00 Build 0)  -->
<svg version="1.1" id="Layer_1" xmlns="http://www.w3.org/2000/svg" xmlns:xlink="http://www.w3.org/1999/xlink" x="0px" y="0px" viewBox="0 0 310 185" style="" xml:space="preserve" class="">
<style type="text/css">
	.st0{fill:none;stroke:#16B1A9;stroke-width:3;}
</style>
<g>
	<path class="st0 IgDnbfRb_0" d="M153.3,20.8v93.1c0,10.5-2.2,19.7-6.7,27.4s-10.9,13.6-19.3,17.6c-8.4,4-18.3,6.1-29.8,6.1
		c-17.3,0-31-4.5-40.9-13.5s-15-21.3-15.2-36.9V20.8h34.5v94.4c0.4,15.6,7.6,23.3,21.7,23.3c7.1,0,12.5-2,16.1-5.9
		c3.6-3.9,5.5-10.3,5.5-19V20.8H153.3z"></path>
	<path class="st0 IgDnbfRb_1" d="M248,125.2c0-5-1.8-8.9-5.3-11.7c-3.5-2.8-9.8-5.7-18.7-8.7c-8.9-3-16.2-5.9-21.9-8.7
		c-18.4-9-27.6-21.5-27.6-37.3c0-7.9,2.3-14.8,6.9-20.8c4.6-6,11.1-10.7,19.5-14.1c8.4-3.4,17.8-5,28.3-5c10.2,0,19.4,1.8,27.5,5.5
		c8.1,3.6,14.4,8.8,18.9,15.6s6.7,14.4,6.7,23.1h-34.2c0-5.8-1.8-10.3-5.3-13.5c-3.5-3.2-8.3-4.8-14.4-4.8c-6.1,0-11,1.4-14.5,4.1
		c-3.5,2.7-5.3,6.1-5.3,10.3c0,3.6,2,7,5.9,9.9c3.9,3,10.8,6,20.6,9.2c9.8,3.2,17.9,6.6,24.2,10.2c15.4,8.9,23,21.1,23,36.6
		c0,12.4-4.7,22.2-14.1,29.3c-9.4,7.1-22.2,10.6-38.6,10.6c-11.5,0-22-2.1-31.3-6.2c-9.3-4.1-16.4-9.8-21.1-17
		c-4.7-7.2-7.1-15.5-7.1-24.9h34.4c0,7.6,2,13.2,5.9,16.8c3.9,3.6,10.3,5.4,19.2,5.4c5.7,0,10.1-1.2,13.4-3.7
		C246.3,133.1,248,129.6,248,125.2z"></path>
</g>
<style data-made-with="vivus-instant">.IgDnbfRb_0{stroke-dasharray:688 690;stroke-dashoffset:689;}.mdev-start .IgDnbfRb_0{animation:IgDnbfRb_draw 2350ms linear 0ms forwards;}.IgDnbfRb_1{stroke-dasharray:718 720;stroke-dashoffset:719;}.mdev-start .IgDnbfRb_1{animation:IgDnbfRb_draw 2350ms linear 150ms forwards;}@keyframes IgDnbfRb_draw{100%{stroke-dashoffset:0;}}@keyframes IgDnbfRb_fade{0%{stroke-opacity:1;}94.02985074626866%{stroke-opacity:1;}100%{stroke-opacity:0;}}</style></svg>
