<svg id="Layer_1" data-name="Layer 1" xmlns="http://www.w3.org/2000/svg" viewBox="0 0 507.492 154.953" style=""><title>LET&amp;apos;S</title><path d="M45.32,131.47h59.668v26.367H11.043V15.65H45.32Z" transform="translate(-9.543 -6.337)" style="fill:none;stroke:#11b1a9;stroke-miterlimit:10;stroke-width:3px" class="ivsCTwgc_0"></path><path d="M207.625,97.486H153.719V131.47h63.672v26.367h-97.95V15.65h98.145V42.115H153.719V72.1h53.906Z" transform="translate(-9.543 -6.337)" style="fill:none;stroke:#11b1a9;stroke-miterlimit:10;stroke-width:3px" class="ivsCTwgc_1"></path><path d="M344.93,42.115H302.254V157.837H267.977V42.115H226.082V15.65H344.93Z" transform="translate(-9.543 -6.337)" style="fill:none;stroke:#11b1a9;stroke-miterlimit:10;stroke-width:3px" class="ivsCTwgc_2"></path><path d="M369.539,60.181l-14.453-7.812q8.1-14.062,8.3-27.539V7.837H387.41V23.755q0,9.083-5.224,19.385A58.324,58.324,0,0,1,369.539,60.181Z" transform="translate(-9.543 -6.337)" style="fill:none;stroke:#11b1a9;stroke-miterlimit:10;stroke-width:3px" class="ivsCTwgc_3"></path><path d="M481.258,120.044q0-7.518-5.322-11.718t-18.7-8.692a179,179,0,0,1-21.875-8.691q-27.636-13.572-27.636-37.3a33.458,33.458,0,0,1,6.884-20.849q6.885-9.032,19.483-14.063A75.829,75.829,0,0,1,462.41,13.7a66.314,66.314,0,0,1,27.49,5.469,43.518,43.518,0,0,1,18.9,15.576,40.678,40.678,0,0,1,6.738,23.1h-34.18q0-8.691-5.322-13.476t-14.4-4.785q-9.18,0-14.5,4.052a12.434,12.434,0,0,0-5.322,10.3q0,5.471,5.859,9.912t20.606,9.18a126.379,126.379,0,0,1,24.218,10.2q23.047,13.283,23.047,36.621,0,18.654-14.062,29.3T462.9,159.791a76.492,76.492,0,0,1-31.3-6.2q-14.014-6.2-21.094-16.992a44.263,44.263,0,0,1-7.08-24.853H437.8q0,11.426,5.908,16.845t19.189,5.42q8.5,0,13.428-3.662A12.087,12.087,0,0,0,481.258,120.044Z" transform="translate(-9.543 -6.337)" style="fill:none;stroke:#11b1a9;stroke-miterlimit:10;stroke-width:3px" class="ivsCTwgc_4"></path><style data-made-with="vivus-instant">.ivsCTwgc_0{stroke-dasharray:473 475;stroke-dashoffset:474;animation:ivsCTwgc_draw 1866ms ease-in-out 0ms forwards;}.ivsCTwgc_1{stroke-dasharray:716 718;stroke-dashoffset:717;animation:ivsCTwgc_draw 1866ms ease-in-out 233ms forwards;}.ivsCTwgc_2{stroke-dasharray:523 525;stroke-dashoffset:524;animation:ivsCTwgc_draw 1866ms ease-in-out 466ms forwards;}.ivsCTwgc_3{stroke-dasharray:145 147;stroke-dashoffset:146;animation:ivsCTwgc_draw 1866ms ease-in-out 700ms forwards;}.ivsCTwgc_4{stroke-dasharray:719 721;stroke-dashoffset:720;animation:ivsCTwgc_draw 1866ms ease-in-out 933ms forwards;}@keyframes ivsCTwgc_draw{100%{stroke-dashoffset:0;}}@keyframes ivsCTwgc_fade{0%{stroke-opacity:1;}94.28571428571429%{stroke-opacity:1;}100%{stroke-opacity:0;}}</style></svg>