<?xml version="1.0" encoding="utf-8"?>
<!-- Generator: Adobe Illustrator 23.0.3, SVG Export Plug-In . SVG Version: 6.00 Build 0)  -->
<svg version="1.1" id="Layer_1" xmlns="http://www.w3.org/2000/svg" xmlns:xlink="http://www.w3.org/1999/xlink" x="0px" y="0px"
	 viewBox="0 0 487.1 145.2" style="enable-background:new 0 0 487.1 145.2;" xml:space="preserve">
<style type="text/css">
	.st0{fill:none;stroke:#16B1A9;stroke-width:3;}
</style>
<title>MDEV_HEADER_talk</title>
<path class="st0" d="M122.5,28H79.8v115.7H45.6V28H3.7V1.5h118.8V28z"/>
<path class="st0" d="M199,117.1h-47l-8.2,26.6h-36.6L159.4,1.5h32.2l52.5,142.2h-36.8L199,117.1z M160.2,90.7h30.6l-15.3-49.3
	L160.2,90.7z"/>
<path class="st0" d="M292.8,117.3h59.7v26.4h-93.9V1.5h34.3V117.3z"/>
<path class="st0" d="M413.2,90.8l-14.1,15.4v37.5h-34.3V1.5h34.3v62.7l11.9-18.1l30.7-44.6h42.4l-48,62.9l48,79.3h-40.6L413.2,90.8z
	"/>
</svg>
