<?xml version="1.0" encoding="utf-8"?>
<!-- Generator: Adobe Illustrator 22.1.0, SVG Export Plug-In . SVG Version: 6.00 Build 0)  -->
<svg version="1.1" id="Layer_1" xmlns="http://www.w3.org/2000/svg" xmlns:xlink="http://www.w3.org/1999/xlink" x="0px" y="0px"
	 viewBox="0 0 955 185" style="enable-background:new 0 0 955 185;" xml:space="preserve">
<style type="text/css">
	.st0{fill:none;stroke:#16B0A8;stroke-width:3;}
</style>
<g>
	<path class="st0" d="M142.8,112.9c-0.5,9.9-3.1,18.6-8,26.2c-4.9,7.6-11.7,13.5-20.6,17.6c-8.8,4.2-18.9,6.2-30.2,6.2
		c-18.7,0-33.4-6.1-44.1-18.3c-10.7-12.2-16.1-29.4-16.1-51.6v-7c0-13.9,2.4-26.1,7.3-36.6C35.9,39.1,42.8,31,52,25.3
		c9.1-5.7,19.7-8.5,31.6-8.5c17.3,0,31.1,4.5,41.6,13.6c10.5,9.1,16.4,21.6,17.9,37.5h-34.2c-0.3-8.7-2.4-14.9-6.5-18.7
		c-4.1-3.8-10.4-5.7-18.8-5.7c-8.5,0-14.8,3.2-18.8,9.6c-4,6.4-6.1,16.6-6.2,30.6v10.1c0,15.2,1.9,26,5.7,32.5
		c3.8,6.5,10.4,9.8,19.7,9.8c7.9,0,13.9-1.9,18.1-5.6c4.2-3.7,6.4-9.6,6.6-17.7H142.8z"/>
	<path class="st0" d="M279.4,92.8c0,13.9-2.6,26.1-7.7,36.8c-5.1,10.7-12.5,18.9-21.9,24.7s-20.3,8.6-32.4,8.6s-22.9-2.8-32.2-8.3
		s-16.7-13.5-21.9-23.9c-5.2-10.4-8-22.2-8.3-35.6v-8c0-13.9,2.6-26.2,7.7-36.9c5.1-10.6,12.4-18.9,22-24.7
		c9.5-5.8,20.4-8.7,32.6-8.7c12,0,22.8,2.9,32.2,8.6c9.4,5.7,16.8,13.9,22,24.5c5.2,10.6,7.9,22.7,8,36.4V92.8z M244.5,86.9
		c0-14.1-2.4-24.9-7.1-32.2c-4.7-7.3-11.5-11-20.3-11c-17.2,0-26.3,12.9-27.2,38.7l-0.1,10.4c0,13.9,2.3,24.6,6.9,32.1
		c4.6,7.5,11.5,11.2,20.6,11.2c8.7,0,15.3-3.7,20-11c4.7-7.4,7.1-17.9,7.1-31.7V86.9z"/>
	<path class="st0" d="M415.8,161h-34.1l-50.4-88.5V161h-34.3V18.8h34.3l50.3,88.5V18.8h34.2V161z"/>
	<path class="st0" d="M556.3,161h-34.1l-50.4-88.5V161h-34.3V18.8h34.3l50.3,88.5V18.8h34.2V161z"/>
	<path class="st0" d="M666.1,100.6h-53.9v34h63.7V161h-97.9V18.8h98.1v26.5h-63.9v30h53.9V100.6z"/>
	<path class="st0" d="M804.9,112.9c-0.5,9.9-3.1,18.6-8,26.2c-4.9,7.6-11.7,13.5-20.6,17.6c-8.8,4.2-18.9,6.2-30.2,6.2
		c-18.7,0-33.4-6.1-44.1-18.3c-10.7-12.2-16.1-29.4-16.1-51.6v-7c0-13.9,2.4-26.1,7.3-36.6C698,39.1,705,31,714.1,25.3
		c9.1-5.7,19.7-8.5,31.6-8.5c17.3,0,31.1,4.5,41.6,13.6c10.5,9.1,16.4,21.6,17.9,37.5H771c-0.3-8.7-2.4-14.9-6.5-18.7
		c-4.1-3.8-10.4-5.7-18.8-5.7c-8.5,0-14.8,3.2-18.8,9.6c-4,6.4-6.1,16.6-6.2,30.6v10.1c0,15.2,1.9,26,5.7,32.5
		c3.8,6.5,10.4,9.8,19.7,9.8c7.9,0,13.9-1.9,18.1-5.6c4.2-3.7,6.4-9.6,6.6-17.7H804.9z"/>
	<path class="st0" d="M929.9,45.3h-42.7V161h-34.3V45.3H811V18.8h118.8V45.3z"/>
</g>
</svg>
