<svg id="Layer_1" data-name="Layer 1" xmlns="http://www.w3.org/2000/svg" viewBox="0 0 503.492 154.953"><title>MDEV_HEADER_lets</title><path d="M37.2,125.666H96.866v26.367H2.921V9.845H37.2Z" transform="translate(-1.421 -0.533)" style="fill:none;stroke:#16b1a9;stroke-width:3px"/><path d="M199.5,91.681H145.6v33.985h63.672v26.367h-97.95V9.845h98.145V36.31H145.6V66.291H199.5Z" transform="translate(-1.421 -0.533)" style="fill:none;stroke:#16b1a9;stroke-width:3px"/><path d="M340.808,36.31H298.132V152.033H263.854V36.31H221.96V9.845H340.808Z" transform="translate(-1.421 -0.533)" style="fill:none;stroke:#16b1a9;stroke-width:3px"/><path d="M365.417,54.376l-14.453-7.812q8.1-14.062,8.3-27.539V2.033h24.023V17.951q0,9.081-5.225,19.384A58.3,58.3,0,0,1,365.417,54.376Z" transform="translate(-1.421 -0.533)" style="fill:none;stroke:#16b1a9;stroke-width:3px"/><path d="M469.136,114.24q0-7.519-5.323-11.719t-18.7-8.691a179.141,179.141,0,0,1-21.875-8.692Q395.6,71.566,395.6,47.833a33.458,33.458,0,0,1,6.884-20.849q6.885-9.032,19.483-14.063a75.829,75.829,0,0,1,28.32-5.029,66.314,66.314,0,0,1,27.49,5.469,43.531,43.531,0,0,1,18.9,15.576,40.679,40.679,0,0,1,6.738,23.1h-34.18q0-8.691-5.322-13.477t-14.4-4.785q-9.18,0-14.5,4.053a12.431,12.431,0,0,0-5.322,10.3q0,5.471,5.859,9.913t20.605,9.179a126.364,126.364,0,0,1,24.219,10.2q23.046,13.282,23.047,36.621,0,18.654-14.062,29.3t-38.575,10.645a76.508,76.508,0,0,1-31.3-6.2q-14.015-6.2-21.094-16.993a44.261,44.261,0,0,1-7.08-24.853h34.375q0,11.426,5.908,16.846t19.189,5.42q8.5,0,13.428-3.663A12.086,12.086,0,0,0,469.136,114.24Z" transform="translate(-1.421 -0.533)" style="fill:none;stroke:#16b1a9;stroke-width:3px"/></svg>