<?xml version="1.0" encoding="utf-8"?>
<!-- Generator: Adobe Illustrator 22.1.0, SVG Export Plug-In . SVG Version: 6.00 Build 0)  -->
<svg version="1.1" id="Layer_1" xmlns="http://www.w3.org/2000/svg" xmlns:xlink="http://www.w3.org/1999/xlink" x="0px" y="0px"
	 viewBox="0 0 215 102" style="enable-background:new 0 0 215 102;" xml:space="preserve">
<style type="text/css">
	.st0{fill:#16B1A9;}
</style>
<rect x="338.3" y="-18.3" style="fill:none;" width="267.7" height="26.3"/>
<text transform="matrix(1 0 0 1 338.333 -9.8135)" style="font-family:'MyriadPro-Regular'; font-size:12px;">roboto black, 200pt, 3pt stroke</text>
<g>
	<path class="st0" d="M64.9,66.3l5.3-31.2H86L73.6,88H59.6l-8.7-31.3L42.1,88H28.2L15.7,35.2h15.8l5.2,31.9l8.4-31.9h11.5L64.9,66.3
		z"/>
	<path class="st0" d="M91.8,21.5c0-2.3,0.8-4.3,2.5-5.8c1.7-1.5,3.9-2.2,6.6-2.2c2.7,0,4.9,0.7,6.6,2.2c1.7,1.5,2.5,3.4,2.5,5.8
		s-0.8,4.3-2.5,5.8c-1.7,1.5-3.9,2.2-6.6,2.2c-2.7,0-4.9-0.7-6.6-2.2C92.6,25.8,91.8,23.9,91.8,21.5z M109.2,88H92.7V35.2h16.5V88z"
		/>
	<path class="st0" d="M138.5,22v13.1h8.7v11.4h-8.7v24.2c0,2,0.4,3.4,1.1,4.2c0.7,0.8,2.1,1.2,4.2,1.2c1.6,0,3-0.1,4.1-0.3v11.8
		c-3,0.9-6.1,1.4-9.3,1.4c-5.7,0-9.8-1.3-12.5-4c-2.7-2.7-4.1-6.7-4.1-12.2V46.6h-6.7V35.2h6.7V22H138.5z"/>
	<path class="st0" d="M169.8,40.8c3.5-4.4,8-6.6,13.5-6.6c5.8,0,10.2,1.7,13.2,5.2c3,3.5,4.5,8.5,4.5,15.3V88h-16.5V55
		c0-2.8-0.6-4.9-1.7-6.2c-1.1-1.3-3.1-2-5.8-2c-3.4,0-5.8,1.1-7.2,3.2V88h-16.5V13h16.5V40.8z"/>
</g>
</svg>
