<?xml version="1.0" encoding="utf-8"?>
<!-- Generator: Adobe Illustrator 22.0.1, SVG Export Plug-In . SVG Version: 6.00 Build 0)  -->
<svg version="1.1" xmlns="http://www.w3.org/2000/svg" xmlns:xlink="http://www.w3.org/1999/xlink" x="0px" y="0px"
	 viewBox="0 0 273.3 130.5" style="enable-background:new 0 0 273.3 130.5;" xml:space="preserve">
<style type="text/css">
	.st0{fill:#FFFFFF;}
	.st1{fill:#16B1A9;}
</style>
<g id="bgs">
</g>
<g id="Layer_1">
	<g>
		<g>
			<g>
				<path class="st0" d="M134.3,89.5c0,5.1-1.3,9-4,11.6c-2.7,2.6-6.6,3.9-11.8,3.9h-7.3V74.6h8.2c4.9,0,8.6,1.3,11.1,3.8
					C133,80.9,134.3,84.6,134.3,89.5z M132,89.6c0-4.4-1.1-7.7-3.3-9.9c-2.2-2.2-5.5-3.3-9.8-3.3h-5.6v26.7h5
					C127.4,103.2,132,98.7,132,89.6z"/>
				<path class="st0" d="M143.1,105.1V74.6h2.1v30.5H143.1z"/>
				<path class="st0" d="M167.6,89.7h11.2v13.9c-2.9,1.3-6.3,1.9-9.9,1.9c-4.8,0-8.5-1.4-11.1-4.1c-2.6-2.7-3.8-6.6-3.8-11.5
					c0-3.1,0.6-5.9,1.9-8.2c1.3-2.4,3.1-4.3,5.5-5.6c2.4-1.3,5.1-2,8.2-2c3.3,0,6.3,0.6,8.9,1.8l-0.9,1.9c-2.6-1.2-5.4-1.8-8.2-1.8
					c-4,0-7.2,1.2-9.6,3.7c-2.4,2.5-3.5,5.8-3.5,10c0,4.6,1.1,8,3.4,10.4c2.2,2.3,5.5,3.5,9.9,3.5c2.8,0,5.2-0.4,7.2-1.2V91.7h-9.1
					V89.7z"/>
				<path class="st0" d="M188.5,105.1V74.6h2.1v30.5H188.5z"/>
				<path class="st0" d="M212.2,105.1h-2.1V76.6h-9.9v-2h22v2h-9.9V105.1z"/>
				<path class="st0" d="M240.5,94.3h-12.4l-4.3,10.8h-2.4l12.3-30.6h1.4l12,30.6h-2.4L240.5,94.3z M228.9,92.4h10.9l-4.2-11
					c-0.3-0.9-0.8-2.1-1.3-3.6c-0.4,1.3-0.8,2.5-1.2,3.6L228.9,92.4z"/>
				<path class="st0" d="M255.9,105.1V74.6h2.1v28.5h14.5v2H255.9z"/>
			</g>
			<g>
				<path class="st1" d="M162.3,67.9V25.2H176c3.8,0,7.2,0.9,10.2,2.6c3,1.7,5.4,4.1,7,7.2c1.7,3.1,2.5,6.6,2.6,10.5v2
					c0,3.9-0.8,7.4-2.5,10.5c-1.7,3.1-4,5.5-7,7.3c-3,1.7-6.3,2.6-10,2.7H162.3z M172.6,33.1v26.8h3.6c2.9,0,5.2-1,6.8-3.1
					c1.6-2.1,2.4-5.2,2.4-9.4v-1.8c0-4.1-0.8-7.2-2.4-9.3c-1.6-2.1-3.9-3.1-6.9-3.1H172.6z"/>
				<path class="st1" d="M226.1,49.7h-16.2v10.2H229v7.9h-29.4V25.2H229v7.9h-19.2v9h16.2V49.7z"/>
				<path class="st1" d="M252.6,56.3l8.5-31.1h11.5l-14.4,42.7H247l-14.2-42.7h11.4L252.6,56.3z"/>
				<path class="st1" d="M124.6,25.2l9.5,29.7l9.5-29.7h13.5v42.7h-9.4v-10l0.1-20.4l-10.3,30.4h-6.8l-10.3-30.4l0.1,20.4v10h-9.4
					V25.2H124.6z"/>
			</g>
		</g>
		<g>
			<g>
				<polygon class="st1" points="1.3,25.4 1.8,25.6 2.3,25.9 46.3,1.5 46.3,0.9 46.3,0.9 46.3,0.3 				"/>
				<g>
					<polygon class="st1" points="1.3,55.4 1.3,75.3 46.3,100.4 46.3,80.4 					"/>
				</g>
				<g>
					<polygon class="st1" points="1.3,85.4 1.3,105.3 46.3,130.4 46.3,110.4 					"/>
				</g>
				<g>
					<polygon class="st1" points="10.3,50.3 1.3,55.4 1.8,55.6 2.3,55.9 11.3,50.9 					"/>
				</g>
				<g>
					<polygon class="st1" points="10.3,80.3 1.3,85.4 1.8,85.6 2.3,85.9 11.3,80.9 					"/>
				</g>
				<g>
					<polygon class="st1" points="1.3,25.4 1.3,45.3 46.3,70.3 46.3,50.4 					"/>
				</g>
			</g>
			<g>
				<polygon class="st0" points="91.3,25.4 90.8,25.6 90.2,25.9 46.3,1.5 46.3,0.9 46.3,0.9 46.3,0.3 				"/>
				<g>
					<polygon class="st0" points="91.3,55.4 91.3,75.3 46.3,100.4 46.3,80.4 					"/>
				</g>
				<g>
					<polygon class="st0" points="91.3,85.4 91.3,105.3 46.3,130.4 46.3,110.4 					"/>
				</g>
				<g>
					<polygon class="st0" points="82.2,50.3 91.3,55.4 90.8,55.6 90.2,55.9 81.2,50.9 					"/>
				</g>
				<g>
					<polygon class="st0" points="82.2,80.3 91.3,85.4 90.8,85.6 90.2,85.9 81.2,80.9 					"/>
				</g>
				<g>
					<polygon class="st0" points="91.3,25.4 91.3,45.3 46.3,70.3 46.3,50.4 					"/>
				</g>
			</g>
		</g>
	</g>
</g>
</svg>
