<svg xmlns="http://www.w3.org/2000/svg" viewBox="0 0 273.3 130.5"><style>.st0{fill:#fff}.st1{fill:#16b1a9}</style><g id="Layer_1"><path class="st0" d="M134.3 89.5c0 5.1-1.3 9-4 11.6-2.7 2.6-6.6 3.9-11.8 3.9h-7.3V74.6h8.2c4.9 0 8.6 1.3 11.1 3.8s3.8 6.2 3.8 11.1zm-2.3.1c0-4.4-1.1-7.7-3.3-9.9-2.2-2.2-5.5-3.3-9.8-3.3h-5.6v26.7h5c9.1.1 13.7-4.4 13.7-13.5zM143.1 105.1V74.6h2.1v30.5h-2.1zM167.6 89.7h11.2v13.9c-2.9 1.3-6.3 1.9-9.9 1.9-4.8 0-8.5-1.4-11.1-4.1-2.6-2.7-3.8-6.6-3.8-11.5 0-3.1.6-5.9 1.9-8.2 1.3-2.4 3.1-4.3 5.5-5.6 2.4-1.3 5.1-2 8.2-2 3.3 0 6.3.6 8.9 1.8l-.9 1.9c-2.6-1.2-5.4-1.8-8.2-1.8-4 0-7.2 1.2-9.6 3.7-2.4 2.5-3.5 5.8-3.5 10 0 4.6 1.1 8 3.4 10.4 2.2 2.3 5.5 3.5 9.9 3.5 2.8 0 5.2-.4 7.2-1.2V91.7h-9.1v-2zM188.5 105.1V74.6h2.1v30.5h-2.1zM212.2 105.1h-2.1V76.6h-9.9v-2h22v2h-9.9v28.5zM240.5 94.3h-12.4l-4.3 10.8h-2.4l12.3-30.6h1.4l12 30.6h-2.4l-4.2-10.8zm-11.6-1.9h10.9l-4.2-11c-.3-.9-.8-2.1-1.3-3.6-.4 1.3-.8 2.5-1.2 3.6l-4.2 11zM255.9 105.1V74.6h2.1v28.5h14.5v2h-16.6z"/><g><path class="st1" d="M162.3 67.9V25.2H176c3.8 0 7.2.9 10.2 2.6 3 1.7 5.4 4.1 7 7.2 1.7 3.1 2.5 6.6 2.6 10.5v2c0 3.9-.8 7.4-2.5 10.5-1.7 3.1-4 5.5-7 7.3-3 1.7-6.3 2.6-10 2.7h-14zm10.3-34.8v26.8h3.6c2.9 0 5.2-1 6.8-3.1 1.6-2.1 2.4-5.2 2.4-9.4v-1.8c0-4.1-.8-7.2-2.4-9.3-1.6-2.1-3.9-3.1-6.9-3.1h-3.5zM226.1 49.7h-16.2v10.2H229v7.9h-29.4V25.2H229v7.9h-19.2v9H226v7.6zM252.6 56.3l8.5-31.1h11.5l-14.4 42.7H247l-14.2-42.7h11.4l8.4 31.1zM124.6 25.2l9.5 29.7 9.5-29.7h13.5v42.7h-9.4v-10l.1-20.4-10.3 30.4h-6.8l-10.3-30.4.1 20.4v10h-9.4V25.2h13.5z"/></g><g><path class="st1" d="M1.3 25.4l.5.2.5.3 44-24.4V.3zM1.3 55.4v19.9l45 25.1v-20zM1.3 85.4v19.9l45 25.1v-20zM10.3 50.3l-9 5.1.5.2.5.3 9-5z"/><path class="st1" d="M10.3 80.3l-9 5.1.5.2.5.3 9-5zM1.3 25.4v19.9l45 25V50.4z"/><g><path class="st0" d="M91.3 25.4l-.5.2-.6.3L46.3 1.5V.3zM91.3 55.4v19.9l-45 25.1v-20zM91.3 85.4v19.9l-45 25.1v-20zM82.2 50.3l9.1 5.1-.5.2-.6.3-9-5z"/><path class="st0" d="M82.2 80.3l9.1 5.1-.5.2-.6.3-9-5zM91.3 25.4v19.9l-45 25V50.4z"/></g></g></g></svg>