<svg id="Layer_1" data-name="Layer 1" xmlns="http://www.w3.org/2000/svg" viewBox="0 0 161.5 31.4"><defs><style>.cls-1{fill:#0a1315;}</style></defs><title>MDEV_RGB_WM_Black_Bottom</title><path class="cls-1" d="M30.4,22.4c0,5.1-1.3,8.9-4,11.6s-6.6,3.9-11.8,3.9H7.3V7.4h8.2c4.9,0,8.6,1.3,11.1,3.8S30.4,17.5,30.4,22.4Zm-2.3,0c0-4.3-1.1-7.6-3.3-9.8S19.3,9.3,15,9.3H9.4V36h5.1C23.6,36,28.1,31.5,28.1,22.4Z" transform="translate(-7.3 -6.9)"/><path class="cls-1" d="M39.3,37.9V7.4h2.1V37.9Z" transform="translate(-7.3 -6.9)"/><path class="cls-1" d="M63.8,22.5H75V36.4a24,24,0,0,1-9.9,1.9c-4.8,0-8.5-1.4-11.1-4.1s-3.8-6.5-3.8-11.5a17.2,17.2,0,0,1,1.9-8.3,13.6,13.6,0,0,1,5.4-5.5,16.9,16.9,0,0,1,8.2-2,20.5,20.5,0,0,1,9,1.9l-.9,1.9a18.3,18.3,0,0,0-8.2-1.9A12.7,12.7,0,0,0,56,12.6c-2.3,2.4-3.5,5.8-3.5,10s1.1,8,3.3,10.4,5.6,3.4,9.9,3.4a19.4,19.4,0,0,0,7.2-1.2V24.5H63.8Z" transform="translate(-7.3 -6.9)"/><path class="cls-1" d="M84.6,37.9V7.4h2.2V37.9Z" transform="translate(-7.3 -6.9)"/><path class="cls-1" d="M108.4,37.9h-2.2V9.4H96.3v-2h22v2h-9.9Z" transform="translate(-7.3 -6.9)"/><path class="cls-1" d="M136.7,27.1H124.3l-4.2,10.8h-2.4L130,7.3h1.3l12,30.6h-2.4Zm-11.6-1.9H136l-4.2-11q-.5-1.2-1.2-3.6c-.4,1.4-.8,2.6-1.2,3.7Z" transform="translate(-7.3 -6.9)"/><path class="cls-1" d="M152.1,37.9V7.4h2.1V35.9h14.6v2Z" transform="translate(-7.3 -6.9)"/></svg>