<svg id="Layer_1" data-name="Layer 1" xmlns="http://www.w3.org/2000/svg" viewBox="0 0 161.5 42.7"><defs><style>.cls-1{fill:#0a1315;}</style></defs><title>MDEV_RGB_WM_Black_Top</title><path class="cls-1" d="M55.5,47.7V5H69.2A20.4,20.4,0,0,1,79.4,7.6a18,18,0,0,1,7,7.2A21.5,21.5,0,0,1,89,25.3v2a21.4,21.4,0,0,1-2.5,10.5,17.4,17.4,0,0,1-7,7.2,19,19,0,0,1-10,2.7ZM65.8,13V39.8h3.5a8,8,0,0,0,6.8-3.2q2.4-3.1,2.4-9.3V25.4q0-6.1-2.4-9.3A8.1,8.1,0,0,0,69.2,13Z" transform="translate(-4.3 -5)"/><path class="cls-1" d="M119.2,29.6H103.1V39.8h19.1v7.9H92.8V5h29.4v8H103.1v9h16.1Z" transform="translate(-4.3 -5)"/><path class="cls-1" d="M145.8,36.1,154.3,5h11.5L151.4,47.7H140.1L125.9,5h11.4Z" transform="translate(-4.3 -5)"/><path class="cls-1" d="M17.8,5l9.5,29.7L36.8,5H50.3V47.7H40.9V17.3L30.7,47.7H23.9L13.5,17.3l.2,20.4v10H4.3V5Z" transform="translate(-4.3 -5)"/></svg>