<svg id="Layer_1" data-name="Layer 1" xmlns="http://www.w3.org/2000/svg" viewBox="0 0 161.5 31.4"><defs><style>.cls-1{fill:#fff;}</style></defs><title>MDEV_RGB_WM_White_Bottom</title><path class="cls-1" d="M29.4,20.4c0,5.1-1.3,8.9-4,11.6s-6.6,3.9-11.8,3.9H6.3V5.4h8.2c4.9,0,8.6,1.3,11.1,3.8S29.4,15.5,29.4,20.4Zm-2.3,0c0-4.3-1.1-7.6-3.3-9.8S18.3,7.3,14,7.3H8.4V34h5.1C22.6,34,27.1,29.5,27.1,20.4Z" transform="translate(-6.3 -4.9)"/><path class="cls-1" d="M38.3,35.9V5.4h2.1V35.9Z" transform="translate(-6.3 -4.9)"/><path class="cls-1" d="M62.8,20.5H74V34.4a24,24,0,0,1-9.9,1.9c-4.8,0-8.5-1.4-11.1-4.1s-3.8-6.5-3.8-11.5a17.2,17.2,0,0,1,1.9-8.3,13.6,13.6,0,0,1,5.4-5.5,16.9,16.9,0,0,1,8.2-2,20.5,20.5,0,0,1,9,1.9l-.9,1.9a18.3,18.3,0,0,0-8.2-1.9A12.7,12.7,0,0,0,55,10.6c-2.3,2.4-3.5,5.8-3.5,10s1.1,8,3.3,10.4,5.6,3.4,9.9,3.4a19.4,19.4,0,0,0,7.2-1.2V22.5H62.8Z" transform="translate(-6.3 -4.9)"/><path class="cls-1" d="M83.6,35.9V5.4h2.2V35.9Z" transform="translate(-6.3 -4.9)"/><path class="cls-1" d="M107.4,35.9h-2.2V7.4H95.3v-2h22v2h-9.9Z" transform="translate(-6.3 -4.9)"/><path class="cls-1" d="M135.7,25.1H123.3l-4.2,10.8h-2.4L129,5.3h1.3l12,30.6h-2.4Zm-11.6-1.9H135l-4.2-11q-.5-1.2-1.2-3.6c-.4,1.4-.8,2.6-1.2,3.7Z" transform="translate(-6.3 -4.9)"/><path class="cls-1" d="M151.1,35.9V5.4h2.1V33.9h14.6v2Z" transform="translate(-6.3 -4.9)"/></svg>