<svg id="Layer_1" data-name="Layer 1" xmlns="http://www.w3.org/2000/svg" viewBox="0 0 161.5 42.7"><defs><style>.cls-1{fill:#16b1a9;}</style></defs><title>MDEV_RGB_WM_Teal_Top</title><path class="cls-1" d="M57.5,48.7V6H71.2A20.4,20.4,0,0,1,81.4,8.6a18,18,0,0,1,7,7.2A21.5,21.5,0,0,1,91,26.3v2a21.4,21.4,0,0,1-2.5,10.5,17.4,17.4,0,0,1-7,7.2,19,19,0,0,1-10,2.7ZM67.8,14V40.8h3.5a8,8,0,0,0,6.8-3.2q2.4-3.1,2.4-9.3V26.4q0-6.1-2.4-9.3A8.1,8.1,0,0,0,71.2,14Z" transform="translate(-6.3 -6)"/><path class="cls-1" d="M121.2,30.6H105.1V40.8h19.1v7.9H94.8V6h29.4v8H105.1v9h16.1Z" transform="translate(-6.3 -6)"/><path class="cls-1" d="M147.8,37.1,156.3,6h11.5L153.4,48.7H142.1L127.9,6h11.4Z" transform="translate(-6.3 -6)"/><path class="cls-1" d="M19.8,6l9.5,29.7L38.8,6H52.3V48.7H42.9V18.3L32.7,48.7H25.9L15.5,18.3l.2,20.4v10H6.3V6Z" transform="translate(-6.3 -6)"/></svg>