<svg id="Layer_1" data-name="Layer 1" xmlns="http://www.w3.org/2000/svg" viewBox="0 0 857.359 149.191" style=""><title>MDEV_HEADER_turning</title><path d="M127.152,35.042H84.477V150.764H50.2V35.042H8.3V8.577H127.152Z" transform="translate(-6.804 -5.026)" style="fill:none;stroke:#16b1a9;stroke-width:3px" class="NlfZHZqv_0"></path><path d="M253.129,8.577v93.066q0,15.82-6.738,27.393a43.666,43.666,0,0,1-19.336,17.627q-12.6,6.055-29.785,6.054-25.979,0-40.918-13.476t-15.235-36.914V8.577H175.59V103.01q.585,23.341,21.68,23.34,10.643,0,16.113-5.859t5.469-19.043V8.577Z" transform="translate(-6.804 -5.026)" style="fill:none;stroke:#16b1a9;stroke-width:3px" class="NlfZHZqv_1"></path><path d="M327.348,100.471H308.793v50.293H274.516V8.577h55.957q25.291,0,39.55,11.218T384.281,51.5q0,14.829-6.006,24.583t-18.8,15.8L389.164,149.3v1.466H352.445ZM308.793,74.1h21.68q9.764,0,14.7-5.139T350.1,54.622q0-9.2-4.981-14.44t-14.648-5.238h-21.68Z" transform="translate(-6.804 -5.026)" style="fill:none;stroke:#16b1a9;stroke-width:3px" class="NlfZHZqv_2"></path><path d="M523.734,150.764H489.652l-50.39-88.476v88.476H404.984V8.577h34.278l50.293,88.476V8.577h34.179Z" transform="translate(-6.804 -5.026)" style="fill:none;stroke:#16b1a9;stroke-width:3px" class="NlfZHZqv_3"></path><path d="M581.938,150.764h-34.18V8.577h34.18Z" transform="translate(-6.804 -5.026)" style="fill:none;stroke:#16b1a9;stroke-width:3px" class="NlfZHZqv_4"></path><path d="M724.516,150.764H690.434L640.043,62.288v88.476H605.766V8.577h34.277l50.293,88.476V8.577h34.18Z" transform="translate(-6.804 -5.026)" style="fill:none;stroke:#16b1a9;stroke-width:3px" class="NlfZHZqv_5"></path><path d="M862.6,133.186q-7.911,8.788-23.145,14.16a99.84,99.84,0,0,1-33.4,5.371q-27.931,0-44.629-17.09T743.559,88.069l-.1-12.305q0-21,7.422-36.67a55.105,55.105,0,0,1,21.24-24.121q13.818-8.445,31.982-8.447,26.562,0,41.26,12.158T862.5,54.963H829.5q-1.758-11.913-7.617-16.992t-16.6-5.078q-12.89,0-19.922,10.938t-7.128,31.25v8.593q0,21.291,7.275,31.983t22.9,10.693q13.379,0,19.922-5.957V98.323H804.5V74.788H862.6Z" transform="translate(-6.804 -5.026)" style="fill:none;stroke:#16b1a9;stroke-width:3px" class="NlfZHZqv_6"></path><style data-made-with="vivus-instant">.NlfZHZqv_0{stroke-dasharray:523 525;stroke-dashoffset:524;animation:NlfZHZqv_draw 1866ms ease-in-out 0ms forwards;}.NlfZHZqv_1{stroke-dasharray:689 691;stroke-dashoffset:690;animation:NlfZHZqv_draw 1866ms ease-in-out 155ms forwards;}.NlfZHZqv_2{stroke-dasharray:735 737;stroke-dashoffset:736;animation:NlfZHZqv_draw 1866ms ease-in-out 311ms forwards;}.NlfZHZqv_3{stroke-dasharray:802 804;stroke-dashoffset:803;animation:NlfZHZqv_draw 1866ms ease-in-out 466ms forwards;}.NlfZHZqv_4{stroke-dasharray:353 355;stroke-dashoffset:354;animation:NlfZHZqv_draw 1866ms ease-in-out 622ms forwards;}.NlfZHZqv_5{stroke-dasharray:802 804;stroke-dashoffset:803;animation:NlfZHZqv_draw 1866ms ease-in-out 777ms forwards;}.NlfZHZqv_6{stroke-dasharray:766 768;stroke-dashoffset:767;animation:NlfZHZqv_draw 1866ms ease-in-out 933ms forwards;}@keyframes NlfZHZqv_draw{100%{stroke-dashoffset:0;}}@keyframes NlfZHZqv_fade{0%{stroke-opacity:1;}94.28571428571429%{stroke-opacity:1;}100%{stroke-opacity:0;}}</style></svg>