<?xml version="1.0" encoding="utf-8"?>
<!-- Generator: Adobe Illustrator 23.0.3, SVG Export Plug-In . SVG Version: 6.00 Build 0)  -->
<svg version="1.1" id="Layer_1" xmlns="http://www.w3.org/2000/svg" xmlns:xlink="http://www.w3.org/1999/xlink" x="0px" y="0px"
	 viewBox="0 0 766.2 149.1" style="enable-background:new 0 0 766.2 149.1;" xml:space="preserve">
<style type="text/css">
	.st0{fill:none;stroke:#16B1A9;stroke-width:3;}
</style>
<title>MDEV_HEADER_wheels</title>
<path class="st0" d="M120.7,92.6L137,3.5h34l-30.2,142.2h-35.5l-19-81.1l-18.7,81.1H32.1L1.9,3.5h34.1l16.3,89.2L71.8,3.5h29.1
	L120.7,92.6z"/>
<path class="st0" d="M305.2,145.6h-34.1V86.3h-50.5v59.4h-34.3V3.5h34.3v56.4h50.5V3.5h34.1V145.6z"/>
<path class="st0" d="M409.1,85.3h-53.9v34h63.7v26.4h-97.9V3.5H419v26.5h-63.9v30h53.9V85.3z"/>
<path class="st0" d="M521,85.3h-53.9v34h63.7v26.4h-97.9V3.5H531v26.5h-63.9v30H521V85.3z"/>
<path class="st0" d="M579,119.3h59.7v26.4h-93.9V3.5H579V119.3z"/>
<path class="st0" d="M728.5,107.8c0-5-1.8-8.9-5.3-11.7c-3.5-2.8-9.8-5.7-18.7-8.7c-7.5-2.4-14.8-5.3-21.9-8.7
	c-18.4-9-27.6-21.5-27.6-37.3c-0.1-7.5,2.3-14.9,6.9-20.9c4.6-6,11.1-10.7,19.5-14.1c9-3.5,18.6-5.2,28.3-5
	c9.4-0.2,18.8,1.7,27.5,5.5c7.7,3.3,14.2,8.7,18.9,15.6c4.5,6.8,6.9,14.9,6.7,23.1h-34.2c0-5.8-1.8-10.3-5.3-13.5s-8.3-4.8-14.4-4.8
	c-6.1,0-11,1.4-14.5,4.1c-3.4,2.3-5.4,6.2-5.3,10.3c0,3.6,2,7,5.9,9.9c3.9,3,10.8,6,20.6,9.2c8.4,2.5,16.5,6,24.2,10.2
	c15.4,8.9,23,21.1,23,36.6c0,12.4-4.7,22.2-14.1,29.3c-9.4,7.1-22.2,10.6-38.6,10.6c-10.8,0.2-21.4-2-31.3-6.2
	c-9.3-4.1-16.4-9.8-21.1-17c-4.8-7.4-7.2-16-7.1-24.9H685c0,7.6,2,13.2,5.9,16.8c3.9,3.6,10.3,5.4,19.2,5.4c5.7,0,10.1-1.2,13.4-3.7
	C726.8,115.8,728.7,111.9,728.5,107.8z"/>
</svg>
