<svg id="Layer_1" data-name="Layer 1" xmlns="http://www.w3.org/2000/svg" viewBox="0 0 466.672 145.188"><title>MDEV_HEADER_keep</title><path d="M58.871,97.834l-14.062,15.43v37.5H10.531V8.577H44.809v62.7L56.723,53.206,87.387,8.577H129.77L81.723,71.467l48.047,79.3H89.145Z" transform="translate(-9.031 -7.077)" style="fill:none;stroke:#16b1a9;stroke-width:3px"/><path d="M226.645,90.413H172.738V124.4H236.41v26.367H138.461V8.577h98.144V35.042H172.738v29.98h53.907Z" transform="translate(-9.031 -7.077)" style="fill:none;stroke:#16b1a9;stroke-width:3px"/><path d="M338.559,90.413H284.652V124.4h63.672v26.367H250.375V8.577H348.52V35.042H284.652v29.98h53.907Z" transform="translate(-9.031 -7.077)" style="fill:none;stroke:#16b1a9;stroke-width:3px"/><path d="M396.566,102.522v48.242H362.289V8.577h56.738q16.308,0,28.858,6.006a45.262,45.262,0,0,1,19.433,17.089A46.675,46.675,0,0,1,474.2,56.819q0,20.8-14.892,33.252t-40.87,12.451Zm0-26.465h22.461q9.962,0,15.186-4.98t5.225-14.063q0-9.96-5.372-15.918t-14.648-6.054H396.566Z" transform="translate(-9.031 -7.077)" style="fill:none;stroke:#16b1a9;stroke-width:3px"/></svg>