<?xml version="1.0" encoding="utf-8"?>
<!-- Generator: Adobe Illustrator 23.0.3, SVG Export Plug-In . SVG Version: 6.00 Build 0)  -->
<svg version="1.1" id="Layer_1" xmlns="http://www.w3.org/2000/svg" xmlns:xlink="http://www.w3.org/1999/xlink" x="0px" y="0px"
	 viewBox="0 0 473.8 145.2" style="enable-background:new 0 0 473.8 145.2;" xml:space="preserve">
<style type="text/css">
	.st0{fill:none;stroke:#16B1A9;stroke-width:3;}
</style>
<title>MDEV_HEADER_keep</title>
<path class="st0" d="M49.8,90.8l-14.1,15.4v37.5H1.5V1.5h34.3v62.7l11.9-18.1L78.4,1.5h42.4l-48,62.9l48,79.3H80.1L49.8,90.8z"/>
<path class="st0" d="M223.6,83.3h-53.9v34h63.7v26.4h-97.9V1.5h98.1V28h-63.9v30h53.9V83.3z"/>
<path class="st0" d="M335.5,83.3h-53.9v34h63.7v26.4h-97.9V1.5h98.1V28h-63.9v30h53.9L335.5,83.3z"/>
<path class="st0" d="M393.5,95.4v48.2h-34.3V1.5H416c10.9,0,20.5,2,28.9,6c8,3.7,14.8,9.6,19.4,17.1c4.6,7.6,7,16.3,6.9,25.1
	c0,13.9-5,25-14.9,33.3c-9.9,8.3-23.6,12.5-40.9,12.5H393.5z M393.5,69H416c6.6,0,11.7-1.7,15.2-5c3.5-3.3,5.2-8,5.2-14.1
	c0-6.6-1.8-11.9-5.4-15.9c-3.6-4-8.5-6-14.6-6.1h-22.9V69z"/>
</svg>
