<?xml version="1.0" encoding="utf-8"?>
<!-- Generator: Adobe Illustrator 23.0.3, SVG Export Plug-In . SVG Version: 6.00 Build 0)  -->
<svg version="1.1" id="Layer_1" xmlns="http://www.w3.org/2000/svg" xmlns:xlink="http://www.w3.org/1999/xlink" x="0px" y="0px"
	 viewBox="0 0 845.4 149.2" style="enable-background:new 0 0 845.4 149.2;" xml:space="preserve">
<style type="text/css">
	.st0{fill:none;stroke:#16B1A9;stroke-width:3;}
</style>
<title>MDEV_HEADER_turning</title>
<path class="st0" d="M123.3,30H80.7v115.7H46.4V30H4.5V3.6h118.9V30z"/>
<path class="st0" d="M249.3,3.6v93.1c0,10.5-2.2,19.7-6.7,27.4c-4.5,7.7-11.2,13.9-19.3,17.6c-8.4,4-18.3,6.1-29.8,6.1
	c-17.3,0-31-4.5-40.9-13.5c-10-9-15-21.3-15.2-36.9V3.6h34.5V98c0.4,15.6,7.6,23.3,21.7,23.3c7.1,0,12.5-2,16.1-5.9
	c3.6-3.9,5.5-10.3,5.5-19V3.6H249.3z"/>
<path class="st0" d="M319.5,95.4H301v50.3h-34.3V3.6h56c16.9,0,30,3.7,39.5,11.2c9.5,7.5,14.3,18,14.3,31.7c0,9.9-2,18.1-6,24.6
	c-4,6.5-10.3,11.8-18.8,15.8l29.7,57.4v1.5h-36.7L319.5,95.4z M301,69.1h21.7c6.5,0,11.4-1.7,14.7-5.1c3.3-3.4,4.9-8.2,4.9-14.3
	c0-6.1-1.7-10.9-5-14.4s-8.2-5.2-14.6-5.2H301L301,69.1z"/>
<path class="st0" d="M515.9,145.7h-34.1l-50.4-88.5v88.5h-34.3V3.6h34.3L481.8,92V3.6h34.2V145.7z"/>
<path class="st0" d="M568.1,145.7H534V3.6h34.2V145.7z"/>
<path class="st0" d="M703.7,145.7h-34.1l-50.4-88.5v88.5H585V3.6h34.3L669.5,92V3.6h34.2L703.7,145.7z"/>
<path class="st0" d="M839.8,128.2c-5.3,5.9-13,10.6-23.1,14.2c-10.7,3.7-22,5.5-33.4,5.4c-18.6,0-33.5-5.7-44.6-17.1
	c-11.1-11.4-17.1-27.2-17.9-47.6l-0.1-12.3c0-14,2.5-26.2,7.4-36.7c4.5-10,11.9-18.4,21.2-24.1c9.2-5.6,19.9-8.4,32-8.4
	c17.7,0,31.5,4.1,41.3,12.2s15.5,20.2,17.1,36.3h-33c-1.2-7.9-3.7-13.6-7.6-17s-9.4-5.1-16.6-5.1c-8.6,0-15.2,3.6-19.9,10.9
	s-7.1,17.7-7.1,31.2v8.6c0,14.2,2.4,24.9,7.3,32c4.9,7.1,12.5,10.7,22.9,10.7c8.9,0,15.6-2,19.9-6V93.3h-23.8V69.8h58.1V128.2z"/>
</svg>
