<svg id="Layer_1" data-name="Layer 1" xmlns="http://www.w3.org/2000/svg" viewBox="0 0 766.244 149.094"><title>MDEV_HEADER_wheels</title><path d="M125.688,97.737,142,8.577H175.98L145.805,150.764H110.258L91.215,69.709,72.562,150.764H37.113L6.839,8.577H40.922L57.23,97.737,76.762,8.577h29.1Z" transform="translate(-4.986 -5.124)" style="fill:none;stroke:#16b1a9;stroke-width:3px"/><path d="M308.207,150.764H274.125V91.389H223.637v59.375H189.359V8.577h34.278V65.022h50.488V8.577h34.082Z" transform="translate(-4.986 -5.124)" style="fill:none;stroke:#16b1a9;stroke-width:3px"/><path d="M418.07,90.413H364.164V124.4h63.672v26.367H329.887V8.577h98.144V35.042H364.164v29.98H418.07Z" transform="translate(-4.986 -5.124)" style="fill:none;stroke:#16b1a9;stroke-width:3px"/><path d="M529.984,90.413H476.078V124.4H539.75v26.367H441.8V8.577h98.144V35.042H476.078v29.98h53.906Z" transform="translate(-4.986 -5.124)" style="fill:none;stroke:#16b1a9;stroke-width:3px"/><path d="M587.992,124.4H647.66v26.367H553.715V8.577h34.277Z" transform="translate(-4.986 -5.124)" style="fill:none;stroke:#16b1a9;stroke-width:3px"/><path d="M735.453,112.971q0-7.52-5.322-11.719t-18.7-8.691a179.319,179.319,0,0,1-21.875-8.691Q661.918,70.3,661.918,46.565a33.456,33.456,0,0,1,6.885-20.85q6.885-9.032,19.482-14.062a75.813,75.813,0,0,1,28.32-5.029A66.338,66.338,0,0,1,744.1,12.092a43.534,43.534,0,0,1,18.9,15.576,40.681,40.681,0,0,1,6.738,23.1H735.551q0-8.691-5.322-13.476T715.824,32.5q-9.18,0-14.5,4.053A12.431,12.431,0,0,0,696,46.858q0,5.471,5.859,9.912t20.606,9.18a126.292,126.292,0,0,1,24.219,10.2q23.046,13.281,23.046,36.621,0,18.654-14.062,29.3t-38.574,10.644a76.513,76.513,0,0,1-31.3-6.2q-14.014-6.2-21.094-16.992a44.267,44.267,0,0,1-7.08-24.854H692q0,11.427,5.908,16.846t19.19,5.42q8.5,0,13.427-3.662A12.085,12.085,0,0,0,735.453,112.971Z" transform="translate(-4.986 -5.124)" style="fill:none;stroke:#16b1a9;stroke-width:3px"/></svg>