<svg xmlns="http://www.w3.org/2000/svg" viewBox="0 0 90 130"><defs><style>.cls-1{fill:#16b1a9;}.cls-2{fill:#0a1315;}</style></defs><title>MDEV_RGB_Icon_Primary</title><g id="Layer_1" data-name="Layer 1"><polygon class="cls-1" points="0 25 0.5 25.3 1 25.6 45 1.1 45 0.6 45 0.6 45 0 0 25"/><polygon class="cls-1" points="0 55.1 0 75 45 100 45 80.1 0 55.1"/><polygon class="cls-1" points="0 85.1 0 105 45 130 45 110.1 0 85.1"/><polygon class="cls-1" points="9 50 0 55.1 0.5 55.3 1 55.6 10 50.6 9 50"/><polygon class="cls-1" points="9 80 0 85.1 0.5 85.3 1 85.6 10 80.6 9 80"/><polygon class="cls-1" points="0 25 0 45 45 70 45 50 0 25"/><polygon class="cls-2" points="90 25 89.5 25.3 89 25.6 45 1.1 45 0.6 45 0.6 45 0 90 25"/><polygon class="cls-2" points="90 55.1 90 75 45 100 45 80.1 90 55.1"/><polygon class="cls-2" points="90 85.1 90 105 45 130 45 110.1 90 85.1"/><polygon class="cls-2" points="81 50 90 55.1 89.5 55.3 89 55.6 79.9 50.6 81 50"/><polygon class="cls-2" points="81 80 90 85.1 89.5 85.3 89 85.6 79.9 80.6 81 80"/><polygon class="cls-2" points="90 25 90 45 45 70 45 50 90 25"/></g></svg>