<svg xmlns="http://www.w3.org/2000/svg" viewBox="0 0 90 130"><defs><style>.cls-1{fill:#fff;}</style></defs><title>MDEV_RGB_Icon_White</title><g id="Layer_1" data-name="Layer 1"><polygon class="cls-1" points="0 25 0.5 25.3 1 25.6 45 1.1 45 0.6 45 0.6 45 0 0 25"/><polygon class="cls-1" points="0 55.1 0 75 45 100 45 80.1 0 55.1"/><polygon class="cls-1" points="0 85.1 0 105 45 130 45 110.1 0 85.1"/><polygon class="cls-1" points="9 50 0 55.1 0.5 55.3 1 55.6 10 50.6 9 50"/><polygon class="cls-1" points="9 80 0 85.1 0.5 85.3 1 85.6 10 80.6 9 80"/><polygon class="cls-1" points="0 25 0 45 45 70 45 50 0 25"/><polygon class="cls-1" points="45 0 45 0.6 45 0.6 45 1.1 89 25.6 89.5 25.3 90 25 45 0 45 0"/><path class="cls-1" d="M98,63.7V81.4L55,105.3V87.6L98,63.7M99,62,54,87v20L99,82V62Z" transform="translate(-9 -7)"/><path class="cls-1" d="M98,93.7v17.7L55,135.3V117.6L98,93.7M99,92,54,117v20l45-25V92Z" transform="translate(-9 -7)"/><polygon class="cls-1" points="81 50 79.9 50.6 89 55.6 89.5 55.3 90 55.1 81 50 81 50"/><polygon class="cls-1" points="81 80 79.9 80.6 89 85.6 89.5 85.3 90 85.1 81 80 81 80"/><path class="cls-1" d="M98,33.7V51.4L55,75.3V57.6L98,33.7M99,32,54,57V77L99,52V32Z" transform="translate(-9 -7)"/></g></svg>