<svg xmlns="http://www.w3.org/2000/svg" viewBox="0 0 271.3 130"><defs><style>.cls-1{fill:#fff;}</style></defs><title>MDEV_RGB_White</title><g id="Layer_1" data-name="Layer 1"><path class="cls-1" d="M153.4,96.4c0,5.1-1.3,8.9-4,11.6s-6.6,3.9-11.8,3.9h-7.3V81.4h8.2c4.9,0,8.6,1.3,11.1,3.8S153.4,91.5,153.4,96.4Zm-2.3,0c0-4.3-1.1-7.6-3.3-9.8s-5.5-3.3-9.8-3.3h-5.6V110h5.1C146.6,110,151.1,105.5,151.1,96.4Z" transform="translate(-20.4 -7.1)"/><path class="cls-1" d="M162.3,111.9V81.4h2.1v30.5Z" transform="translate(-20.4 -7.1)"/><path class="cls-1" d="M186.8,96.5H198v13.9a24,24,0,0,1-9.9,1.9c-4.8,0-8.5-1.4-11.1-4.1s-3.8-6.5-3.8-11.5a17.2,17.2,0,0,1,1.9-8.3,13.6,13.6,0,0,1,5.4-5.5,16.9,16.9,0,0,1,8.2-2,20.5,20.5,0,0,1,9,1.9l-.9,1.9a18.3,18.3,0,0,0-8.2-1.9,12.7,12.7,0,0,0-9.6,3.8c-2.3,2.4-3.5,5.8-3.5,10s1.1,8,3.3,10.4,5.6,3.4,9.9,3.4a19.4,19.4,0,0,0,7.2-1.2V98.5h-9.1Z" transform="translate(-20.4 -7.1)"/><path class="cls-1" d="M207.6,111.9V81.4h2.2v30.5Z" transform="translate(-20.4 -7.1)"/><path class="cls-1" d="M231.4,111.9h-2.2V83.4h-9.9v-2h22v2h-9.9Z" transform="translate(-20.4 -7.1)"/><path class="cls-1" d="M259.7,101.1H247.3l-4.2,10.8h-2.4L253,81.3h1.3l12,30.6h-2.4Zm-11.6-1.9H259l-4.2-11q-.5-1.2-1.2-3.6c-.4,1.4-.8,2.6-1.2,3.7Z" transform="translate(-20.4 -7.1)"/><path class="cls-1" d="M275.1,111.9V81.4h2.1v28.5h14.6v2Z" transform="translate(-20.4 -7.1)"/><path class="cls-1" d="M181.5,74.7V32h13.7a20.4,20.4,0,0,1,10.2,2.6,18,18,0,0,1,7,7.2A21.5,21.5,0,0,1,215,52.3v2a21.4,21.4,0,0,1-2.5,10.5,17.4,17.4,0,0,1-7,7.2,19,19,0,0,1-10,2.7ZM191.8,40V66.8h3.5a8,8,0,0,0,6.8-3.2q2.4-3.1,2.4-9.3V52.4q0-6.1-2.4-9.3a8.1,8.1,0,0,0-6.9-3.1Z" transform="translate(-20.4 -7.1)"/><path class="cls-1" d="M245.2,56.6H229.1V66.8h19.1v7.9H218.8V32h29.4v8H229.1v9h16.1Z" transform="translate(-20.4 -7.1)"/><path class="cls-1" d="M271.8,63.1,280.3,32h11.5L277.4,74.7H266.1L251.9,32h11.4Z" transform="translate(-20.4 -7.1)"/><path class="cls-1" d="M143.8,32l9.5,29.7L162.8,32h13.5V74.7h-9.4V44.3L156.7,74.7h-6.8L139.5,44.3l.2,20.4v10h-9.4V32Z" transform="translate(-20.4 -7.1)"/><polygon class="cls-1" points="0 25 0.5 25.3 1 25.6 45 1.1 45 0.6 45 0.6 45 0 0 25"/><polygon class="cls-1" points="0 55.1 0 75 45 100 45 80.1 0 55.1"/><polygon class="cls-1" points="0 85.1 0 105 45 130 45 110.1 0 85.1"/><polygon class="cls-1" points="9 50 0 55.1 0.5 55.3 1 55.6 10 50.6 9 50"/><polygon class="cls-1" points="9 80 0 85.1 0.5 85.3 1 85.6 10 80.6 9 80"/><polygon class="cls-1" points="0 25 0 45 45 70 45 50 0 25"/><polygon class="cls-1" points="45 0 45 0.6 45 0.6 45 1.1 89 25.6 89.5 25.3 90 25 45 0 45 0"/><path class="cls-1" d="M109.4,63.9V81.6l-43,23.9V87.8l43-23.9m1-1.7-45,25v20l45-25v-20Z" transform="translate(-20.4 -7.1)"/><path class="cls-1" d="M109.4,93.9v17.7l-43,23.9V117.8l43-23.9m1-1.7-45,25v20l45-25v-20Z" transform="translate(-20.4 -7.1)"/><polygon class="cls-1" points="81 50 79.9 50.6 89 55.6 89.5 55.3 90 55.1 81 50 81 50"/><polygon class="cls-1" points="81 80 79.9 80.6 89 85.6 89.5 85.3 90 85.1 81 80 81 80"/><path class="cls-1" d="M109.4,33.9V51.6l-43,23.9V57.8l43-23.9m1-1.7-45,25v20l45-25v-20Z" transform="translate(-20.4 -7.1)"/></g></svg>