<svg id="Layer_1" data-name="Layer 1" xmlns="http://www.w3.org/2000/svg" viewBox="0 0 504.948 222.141" style=""><title>MDEV_HEADER_404</title><path d="M141.338,135.08h21.68v38.086h-21.68V218.43H91.973V173.166H9.5L6.572,142.99l85.4-137.4v-.44h49.365Zm-87.744,0H91.973V69.455L88.9,74.436Z" transform="translate(-5.03 -0.719)" style="fill:none;stroke:#16b1a9;stroke-width:3px" class="llGFfmVV_0"></path><path d="M332.793,131.271q0,43.215-19.409,66.651t-54.712,23.437q-35.6,0-55.078-23.584t-19.483-66.5V92.307q0-43.21,19.41-66.651T258.379,2.219q35.448,0,54.932,23.584t19.482,66.65ZM283.428,86.008q0-23-6.006-34.351T258.379,40.305q-12.744,0-18.53,10.547t-6.226,31.933v54.492q0,23.879,6.006,34.937t19.043,11.059q12.6,0,18.6-10.766t6.153-33.765Z" transform="translate(-5.03 -0.719)" style="fill:none;stroke:#16b1a9;stroke-width:3px" class="llGFfmVV_1"></path><path d="M486.8,135.08h21.68v38.086H486.8V218.43H437.434V173.166H354.963l-2.93-30.176,85.4-137.4v-.44H486.8Zm-87.744,0h38.379V69.455l-3.077,4.981Z" transform="translate(-5.03 -0.719)" style="fill:none;stroke:#16b1a9;stroke-width:3px" class="llGFfmVV_2"></path><style data-made-with="vivus-instant">.llGFfmVV_0{stroke-dasharray:856 858;stroke-dashoffset:857;animation:llGFfmVV_draw 1866ms ease-in-out 0ms forwards;}.llGFfmVV_1{stroke-dasharray:946 948;stroke-dashoffset:947;animation:llGFfmVV_draw 1866ms ease-in-out 466ms forwards;}.llGFfmVV_2{stroke-dasharray:856 858;stroke-dashoffset:857;animation:llGFfmVV_draw 1866ms ease-in-out 933ms forwards;}@keyframes llGFfmVV_draw{100%{stroke-dashoffset:0;}}@keyframes llGFfmVV_fade{0%{stroke-opacity:1;}94.28571428571429%{stroke-opacity:1;}100%{stroke-opacity:0;}}</style></svg>