<svg id="Layer_1" data-name="Layer 1" xmlns="http://www.w3.org/2000/svg" viewBox="0 0 70.593 65.704"><title>icon-curiosity</title><path d="M52.351,13.116a1.363,1.363,0,0,0-1.78,1.9l-4.644,3.995a.273.273,0,0,0-.028.385.279.279,0,0,0,.087.067.273.273,0,0,0,.3-.038l4.649-4a1.309,1.309,0,0,0,.222.137,1.363,1.363,0,1,0,1.2-2.449Zm-.958,1.959a.818.818,0,1,1,1.094-.375A.818.818,0,0,1,51.393,15.075Z" transform="translate(-0.5 -0.671)" style="fill:#FFFFFF"/><path d="M1.147,28.7a1.363,1.363,0,0,0,1.958-1.719l5.013-3.521a.274.274,0,0,0,.066-.38.284.284,0,0,0-.08-.075.273.273,0,0,0-.3.009L2.786,26.542a1.314,1.314,0,0,0-.208-.159A1.363,1.363,0,0,0,1.147,28.7Z" transform="translate(-0.5 -0.671)" style="fill:#FFFFFF"/><path d="M10.216,20.324a2.2,2.2,0,1,0,4.238-.838l6.992-4.641a2.2,2.2,0,0,0,1.863.607l5.582,15.33a2.2,2.2,0,1,0,3.089.836l7.256-6.053a2.2,2.2,0,1,0-.565-.677l-7.256,6.053a2.189,2.189,0,0,0-1.376-.485,2.091,2.091,0,0,0-.319.026L24.139,15.153a2.182,2.182,0,0,0,.41-.32,2.2,2.2,0,1,0-3.595-.719l-6.992,4.641a2.2,2.2,0,0,0-3.746,1.569ZM30.039,31.337a1.322,1.322,0,1,1-1.321,1.321A1.323,1.323,0,0,1,30.039,31.337Zm-7.983-19a1.322,1.322,0,1,1,0,1.869A1.324,1.324,0,0,1,22.056,12.341ZM11.1,20.324a1.322,1.322,0,1,1,1.321,1.321A1.325,1.325,0,0,1,11.1,20.324Z" transform="translate(-0.5 -0.671)" style="fill:#FFFFFF"/><path d="M45.005,45.185l4.9-4.9s1.027.68,2.654,1.906c0,0,6.473,5.285,8.909,7.721,2.633,2.633,8.207,9.56,8.207,9.56.918,1.245,1.42,2,1.42,2a10.287,10.287,0,0,1-4.9,4.9s-.759-.5-2-1.421c0,0-6.926-5.574-9.559-8.207-2.436-2.436-7.722-8.909-7.722-8.909C45.684,46.212,45.005,45.185,45.005,45.185Z" transform="translate(-0.5 -0.671)" style="fill:#FFFFFF"/><path d="M26.511,42.723A20.931,20.931,0,0,1,11.7,6.985,20.941,20.941,0,0,1,41.318,36.6,20.8,20.8,0,0,1,26.511,42.723Zm0-39.017A18.086,18.086,0,0,0,13.716,34.587,18.095,18.095,0,0,0,39.306,9,17.972,17.972,0,0,0,26.511,3.706Z" transform="translate(-0.5 -0.671)" style="fill:#FFFFFF"/><path d="M26.511,1.053A20.74,20.74,0,1,1,11.839,7.121,20.684,20.684,0,0,1,26.511,1.053m0,39.017a18.278,18.278,0,1,0-12.93-5.348,18.232,18.232,0,0,0,12.93,5.348m0-39.4A21.13,21.13,0,0,0,11.569,36.734,21.131,21.131,0,1,0,41.453,6.85,20.988,20.988,0,0,0,26.511.671Zm0,39.016A17.895,17.895,0,0,1,13.851,9.133,17.9,17.9,0,0,1,39.17,34.452a17.78,17.78,0,0,1-12.659,5.235Z" transform="translate(-0.5 -0.671)" style="fill:#FFFFFF"/><path d="M43.825,36.117l3.9,3.9-2.99,2.99-3.905-3.9q.809-.669,1.566-1.424C42.905,37.179,43.379,36.655,43.825,36.117Z" transform="translate(-0.5 -0.671)" style="fill:#FFFFFF"/><line x1="29.539" y1="35.512" x2="29.539" y2="41.218" style="fill:none;stroke:#FFFFFF;stroke-linecap:round;stroke-miterlimit:10;stroke-width:0.3828100120098956px"/><line x1="22.491" y1="17.942" x2="22.491" y2="41.218" style="fill:none;stroke:#FFFFFF;stroke-linecap:round;stroke-miterlimit:10;stroke-width:0.3828100120098956px"/><line x1="15.445" y1="19.653" x2="15.445" y2="37.605" style="fill:none;stroke:#FFFFFF;stroke-linecap:round;stroke-miterlimit:10;stroke-width:0.3828100120098956px"/><line x1="29.539" y1="2.038" x2="29.539" y2="27.059" style="fill:none;stroke:#FFFFFF;stroke-linecap:round;stroke-miterlimit:10;stroke-width:0.3828100120098956px"/><line x1="36.593" y1="4.889" x2="36.593" y2="23.516" style="fill:none;stroke:#FFFFFF;stroke-linecap:round;stroke-miterlimit:10;stroke-width:0.3828100120098956px"/><line x1="22.491" y1="2.186" x2="22.491" y2="9.081" style="fill:none;stroke:#FFFFFF;stroke-linecap:round;stroke-miterlimit:10;stroke-width:0.3828100120098956px"/><line x1="15.445" y1="4.889" x2="15.445" y2="15.127" style="fill:none;stroke:#FFFFFF;stroke-linecap:round;stroke-miterlimit:10;stroke-width:0.3828100120098956px"/><line x1="36.593" y1="28.278" x2="36.593" y2="37.913" style="fill:none;stroke:#FFFFFF;stroke-linecap:round;stroke-miterlimit:10;stroke-width:0.3828100120098956px"/><line x1="33.063" y1="31.988" x2="42.314" y2="31.988" style="fill:none;stroke:#FFFFFF;stroke-linecap:round;stroke-miterlimit:10;stroke-width:0.3828100120098956px"/><line x1="26.537" y1="17.942" x2="45.57" y2="17.942" style="fill:none;stroke:#FFFFFF;stroke-linecap:round;stroke-miterlimit:10;stroke-width:0.3828100120098956px"/><line x1="29.539" y1="24.965" x2="35.248" y2="24.965" style="fill:none;stroke:#FFFFFF;stroke-linecap:round;stroke-miterlimit:10;stroke-width:0.3828100120098956px"/><line x1="7.084" y1="24.965" x2="25.067" y2="24.965" style="fill:none;stroke:#FFFFFF;stroke-linecap:round;stroke-miterlimit:10;stroke-width:0.3828100120098956px"/><line x1="17.752" y1="17.942" x2="22.491" y2="17.942" style="fill:none;stroke:#FFFFFF;stroke-linecap:round;stroke-miterlimit:10;stroke-width:0.3828100120098956px"/><line x1="9.353" y1="10.919" x2="19.647" y2="10.919" style="fill:none;stroke:#FFFFFF;stroke-linecap:round;stroke-miterlimit:10;stroke-width:0.3828100120098956px"/><line x1="25.714" y1="10.919" x2="42.314" y2="10.919" style="fill:none;stroke:#FFFFFF;stroke-linecap:round;stroke-miterlimit:10;stroke-width:0.3828100120098956px"/><line x1="9.353" y1="31.988" x2="26.015" y2="31.988" style="fill:none;stroke:#FFFFFF;stroke-linecap:round;stroke-miterlimit:10;stroke-width:0.3828100120098956px"/><polygon points="7.084 23.327 10.721 20.913 10.167 20.223 7.733 21.839 7.084 23.327" style="fill:#FFFFFF"/><polygon points="41.449 22.741 44.803 19.947 44.178 19.321 41.045 21.931 41.449 22.741" style="fill:#FFFFFF"/></svg>
