<svg id="Layer_1" data-name="Layer 1" xmlns="http://www.w3.org/2000/svg" viewBox="0 0 69.646 71.288"><title>icon-launch</title><path d="M38.29,30.543a42.165,42.165,0,0,0,7.984,5.891,1.738,1.738,0,0,0,.514-.331c1.517-1.634-.607-6.072-4.744-9.914s-8.721-5.633-10.238-4a1.713,1.713,0,0,0-.243.448A41.815,41.815,0,0,0,38.29,30.543Z" transform="translate(-0.241 -0.245)" style="fill:#FFFFFF"/><path d="M54.892,27.492l4.269-1.581a44.979,44.979,0,0,0-5.607-7.229L50.39,21.828A39.6,39.6,0,0,1,54.892,27.492Z" transform="translate(-0.241 -0.245)" style="fill:#FFFFFF"/><path d="M51.321,16.47c-.043-.04-.08-.082-.123-.122a48.923,48.923,0,0,0-7.125-5.489L42.36,15.046a44.95,44.95,0,0,1,5.8,4.563Z" transform="translate(-0.241 -0.245)" style="fill:#FFFFFF"/><path d="M60.708,28.688l-4.245,1.573c.017.035.038.071.055.106,1.7,3.558,1.851,6.366.42,7.906a4.257,4.257,0,0,1-3.267,1.2c-4.11,0-10.385-3.361-15.985-8.561-7.854-7.294-11.7-15.489-8.764-18.655a4.258,4.258,0,0,1,3.268-1.2,16.854,16.854,0,0,1,7.448,2.34l1.691-4.133C37.46,7.218,33.755,6.085,30.721,6.085a7.454,7.454,0,0,0-5.67,2.1c-4.44,4.78.069,16.185,10.071,25.473C42.142,40.178,50,43.922,55.6,43.922a7.457,7.457,0,0,0,5.671-2.1C63.818,39.077,63.405,34.146,60.708,28.688Z" transform="translate(-0.241 -0.245)" style="fill:#FFFFFF"/><path d="M51.3,31.545a1.047,1.047,0,0,1-.365-2.029l17.539-6.5a1.047,1.047,0,0,1,.729,1.964l-17.539,6.5A1.041,1.041,0,0,1,51.3,31.545Z" transform="translate(-0.241 -0.245)" style="fill:#FFFFFF"/><path d="M46.211,24.813a1.047,1.047,0,0,1-.738-1.79L58.736,9.837a1.047,1.047,0,1,1,1.477,1.485L46.95,24.508A1.048,1.048,0,0,1,46.211,24.813Z" transform="translate(-0.241 -0.245)" style="fill:#FFFFFF"/><path d="M39.207,19.65a1.048,1.048,0,0,1-.97-1.444L45.319.894a1.048,1.048,0,1,1,1.939.794L40.177,19A1.05,1.05,0,0,1,39.207,19.65Z" transform="translate(-0.241 -0.245)" style="fill:#FFFFFF"/><path d="M32.375,58.72l-1.854.973,1.562,3L19.19,69.433l-1.549-2.981-1.856.974L17.331,70.4a2.088,2.088,0,0,0,1.233,1.035,2.128,2.128,0,0,0,.634.1,2.1,2.1,0,0,0,.97-.239l12.878-6.732a2.1,2.1,0,0,0,.893-2.833Z" transform="translate(-0.241 -0.245)" style="fill:#FFFFFF"/><path d="M56.62,44.887c-.339.029-.663.082-1.021.082-6.068,0-14.187-4.039-21.19-10.543A42.631,42.631,0,0,1,23.7,19.617,17.753,17.753,0,0,1,22.314,13.1S.365,58.424.4,58.615c-.545,1.834.339,4.64,2.425,7.075,2.667,3.113,5.186,4,8.01,2.912ZM4.649,59.689h0v0l-.053.069h0a4.567,4.567,0,0,1-.522.611c-.153.07-.509-.3-.631-.579s.126-.821.274-1.131h0l.015-.029c.055-.113.1-.192.1-.192l16.155-32.1a.713.713,0,0,1,1.259-.027l3.374,6.051a.712.712,0,0,1-.052.774Z" transform="translate(-0.241 -0.245)" style="fill:#FFFFFF"/></svg>
