<svg id="Layer_1" data-name="Layer 1" xmlns="http://www.w3.org/2000/svg" viewBox="0 0 61.382 72"><title>icon-innovation</title><path d="M61.162,62.54c-1.873-4.074-6.312-12.649-10.6-20.941-3.825-7.388-7.443-14.378-8.97-17.645V2.974h1.951a1.487,1.487,0,1,0,0-2.974H18.754a1.487,1.487,0,0,0,0,2.974h1.837v20.98c-1.528,3.27-5.15,10.267-8.978,17.662C7.325,49.9,2.889,58.469,1.016,62.54a6.827,6.827,0,0,0,.28,6.219,6.294,6.294,0,0,0,4.856,3.2A6.989,6.989,0,0,0,6.865,72h48.45a7.033,7.033,0,0,0,.713-.036,6.3,6.3,0,0,0,4.856-3.206A6.821,6.821,0,0,0,61.162,62.54ZM58.3,67.285a3.353,3.353,0,0,1-2.577,1.72,3.924,3.924,0,0,1-.408.021H6.865a3.9,3.9,0,0,1-.408-.021,3.349,3.349,0,0,1-2.577-1.72,3.842,3.842,0,0,1-.162-3.5c1.845-4.009,6.263-12.545,10.537-20.8C18.217,35.327,21.96,28.1,23.429,24.9l.136-.3V2.974H38.613V24.608l.137.3c1.468,3.189,5.207,10.413,9.167,18.062,4.276,8.262,8.7,16.806,10.544,20.817A3.844,3.844,0,0,1,58.3,67.285Z" transform="translate(-0.399)" style="fill:#16b1a9"/><circle cx="44.795" cy="45.156" r="2.614" style="fill:#16b1a9"/><circle cx="33.042" cy="24.475" r="2.409" style="fill:#16b1a9"/><circle cx="28.224" cy="18.093" r="1.328" style="fill:#16b1a9"/><circle cx="19.254" cy="48.52" r="1.973" style="fill:#16b1a9"/><circle cx="47.808" cy="62.02" r="1.134" transform="translate(-9.716 8.459) rotate(-9.217)" style="fill:#16b1a9"/><path d="M14.358,53.482A3.039,3.039,0,1,0,17.4,56.521,3.042,3.042,0,0,0,14.358,53.482Z" transform="translate(-0.399)" style="fill:#16b1a9"/><rect x="27.028" y="51.701" width="7.724" height="1.604" rx="0.631" style="fill:#16b1a9"/><path d="M34.52,55.429a.626.626,0,0,0,.363-.117H27.7a.624.624,0,0,0,.363.117Z" transform="translate(-0.399)" style="fill:#16b1a9"/><path d="M28.732,57.152v.19A2.279,2.279,0,0,0,31,59.614h.774a2.279,2.279,0,0,0,2.272-2.272v-.19a.633.633,0,0,0-.631-.631H29.363A.633.633,0,0,0,28.732,57.152Z" transform="translate(-0.399)" style="fill:#16b1a9"/><path d="M55.663,62.836c-2.6-5.211-3.79-7.524-3.79-7.524H35.6a1.2,1.2,0,0,1-1.077.681h-.815a1.2,1.2,0,0,1,.909,1.159v.19a2.839,2.839,0,0,1-2.836,2.836H31a2.839,2.839,0,0,1-2.836-2.836v-.19a1.2,1.2,0,0,1,.909-1.159H28.058a1.2,1.2,0,0,1-1.078-.681H17.748a3.561,3.561,0,0,1,.213,1.209,3.6,3.6,0,0,1-7.2,0,3.561,3.561,0,0,1,.213-1.209h-.663s-1.192,2.313-3.789,7.524c-1.025,2.056-1.123,4.273,1.854,4.49.159.012,1.871.018,2.035.018H51.774c.164,0,1.876-.006,2.035-.018C56.785,67.109,56.688,64.892,55.663,62.836Zm-7.855.882a1.7,1.7,0,1,1,1.7-1.7A1.7,1.7,0,0,1,47.808,63.718Z" transform="translate(-0.399)" style="fill:#16b1a9"/><path d="M37.869,31.252a9.645,9.645,0,0,0-6.815-2.745h-.045a9.763,9.763,0,0,0-7.24,3.2,9.283,9.283,0,0,0-2.361,6.221A9.381,9.381,0,0,0,23.823,44a12.531,12.531,0,0,0,1.553,1.513,2.089,2.089,0,0,1,.77,1.613v2.2a1.681,1.681,0,0,0,.672,1.344h0A1.68,1.68,0,0,0,27.826,51h6.413a1.679,1.679,0,0,0,1.678-1.679v-2.2a2.085,2.085,0,0,1,.771-1.612A12.546,12.546,0,0,0,38.241,44a9.381,9.381,0,0,0,2.414-6.074A9.287,9.287,0,0,0,37.869,31.252Zm-.667,4a9.259,9.259,0,0,0-5.895-4.022.328.328,0,1,1,.37-.542,8.619,8.619,0,0,1,5.9,4.021c.143.246.188.307.087.457S37.355,35.453,37.2,35.249Zm1.251,2.279h0A.3.3,0,0,1,38,37.417a6.557,6.557,0,0,0-.315-1.251c-.095-.253.17-.788.57-.031a2.662,2.662,0,0,1,.307.942C38.6,37.34,38.607,37.434,38.453,37.528Z" transform="translate(-0.399)" style="fill:#16b1a9"/><rect x="27.028" y="53.824" width="7.724" height="1.604" rx="0.631" style="fill:#16b1a9"/><path d="M29.363,56.521a.633.633,0,0,0-.631.631v.19A2.279,2.279,0,0,0,31,59.614h.774a2.279,2.279,0,0,0,2.272-2.272v-.19a.633.633,0,0,0-.631-.631Z" transform="translate(-0.399)" style="fill:#16b1a9"/></svg>