<svg id="Layer_1" data-name="Layer 1" xmlns="http://www.w3.org/2000/svg" viewBox="0 0 71.177 58.888"><title>icon-discovery</title><path d="M16.464,30.621c-2.859-5.232-8.4-7.712-12.379-5.538S-.8,33.26,2.06,38.492s8.4,7.712,12.379,5.539S19.323,35.853,16.464,30.621ZM12.92,41.25c-2.81,1.536-6.726-.216-8.746-3.913S2.794,29.4,5.605,27.863s6.725.217,8.746,3.913S15.73,39.714,12.92,41.25Z" transform="translate(-0.392 -0.335)" style="fill:#16b1a9"/><path d="M41.015,42.359c-4.074-5.474-10.7-7.44-14.79-4.393s-4.11,9.956-.036,15.429,10.7,7.44,14.791,4.392S45.09,47.832,41.015,42.359ZM38.92,54.917c-2.9,2.155-7.579.765-10.46-3.106s-2.87-8.756.026-10.911,7.579-.766,10.46,3.105S41.816,52.761,38.92,54.917Z" transform="translate(-0.392 -0.335)" style="fill:#16b1a9"/><path d="M13.555,39.642a3.931,3.931,0,0,1-1.911.476c-2.236,0-4.565-1.619-5.934-4.124a8.272,8.272,0,0,1-1.023-5.131,5.31,5.31,0,0,1,.776-2.12,4.7,4.7,0,0,0-1.729,3.146,8.26,8.26,0,0,0,1.022,5.13c1.369,2.505,3.7,4.124,5.935,4.124a3.88,3.88,0,0,0,3.324-1.8A3.718,3.718,0,0,1,13.555,39.642Z" transform="translate(-0.392 -0.335)" style="fill:#00b7a8"/><path d="M39.046,53.11a4.655,4.655,0,0,1-2.807.883,8.877,8.877,0,0,1-6.725-3.853,9,9,0,0,1-1.838-7.28c-1.219,2.251-.76,5.675,1.36,8.524a8.877,8.877,0,0,0,6.725,3.853,4.651,4.651,0,0,0,2.807-.884,4.7,4.7,0,0,0,1.728-2.7A4.431,4.431,0,0,1,39.046,53.11Z" transform="translate(-0.392 -0.335)" style="fill:#00b7a8"/><path d="M47.23,16.631a6.637,6.637,0,0,0-5.953-4.9,4.8,4.8,0,0,0-1.477.231c-.346.112-1.016.359-1.016.359L6.976,23.705c.076,0,.154,0,.234,0a10.379,10.379,0,0,1,3.372.594,12.891,12.891,0,0,1,6.357,5.822,13.324,13.324,0,0,1,1.631,8.389,10.22,10.22,0,0,1-1.175,3.51l12.841-8.63a5.646,5.646,0,0,0-1.858-.523l-.372-.05-.054-.371-.74-5.063-.053-.365.333-.157,8.845-4.168.1-.047h.2a9.682,9.682,0,0,1,6.274,1.771A41.033,41.033,0,0,0,47.5,20.268,7.642,7.642,0,0,0,47.23,16.631Z" transform="translate(-0.392 -0.335)" style="fill:#16b1a9"/><path d="M65.182,17.05a7.791,7.791,0,0,0-4.3-2.356c-.18-.013-.332-.021-.49-.021a3.287,3.287,0,0,0-2.125.786l-.417.444H57.9a8.678,8.678,0,0,1,6.16,2.673,8.126,8.126,0,0,1,2.315,4.673l.284-.257a3.035,3.035,0,0,0,.759-2C67.431,19.912,66.573,18.4,65.182,17.05Z" transform="translate(-0.392 -0.335)" style="fill:#16b1a9"/><path d="M58.4,35.123c-.135-.275-.271-.556-.407-.846l-.375.177h0l.008.016-.206.1.057-.026-.15.071.093-.045-.094.044-.008-.018-.376.176q.333.706.674,1.379Z" transform="translate(-0.392 -0.335)" style="fill:#16b1a9"/><path d="M66.953,26.785c-.284-.068-.63-.152-.759-.2-.172-.169-.35-.342-.532-.517l-.676.961c.15.144.3.287.439.428a2.76,2.76,0,0,0,1.255.459c1.326.321,3.8.918,3.726,2.327a8.035,8.035,0,0,1-1.768,2.545C67,34.723,64.959,37.133,64.626,39.9c-.191,1.586-.589,2.2-.9,2.254-.845.134-2.883-2.164-5.156-6.694l-.3.413a.165.165,0,0,1,.088.077l.019.037a.167.167,0,0,1-.072.223.158.158,0,0,1-.076.018.163.163,0,0,1-.147-.09l0-.006-.256.348s1.686,3.1,2.518,4.232c1.283,1.751,2.375,2.608,3.328,2.608a1.563,1.563,0,0,0,.247-.02c1.5-.242,1.776-2.514,1.865-3.261.292-2.426,2.207-4.689,3.746-6.506,1.16-1.371,2-2.361,2.042-3.239C71.683,27.93,68.606,27.185,66.953,26.785Zm-1.15.229a.163.163,0,0,1-.117.049.166.166,0,0,1-.117-.048l-.029-.029a.165.165,0,0,1,.232-.236l.03.029A.166.166,0,0,1,65.8,27.014Zm1.618.483a.167.167,0,0,1-.161.127.131.131,0,0,1-.039,0l-.043-.01a.166.166,0,0,1,.082-.321l.038.009A.167.167,0,0,1,67.421,27.5Zm1.615.521a.167.167,0,0,1-.215.094l-.038-.015a.166.166,0,0,1,.121-.309l.039.015A.166.166,0,0,1,69.036,28.018Zm-9.927,9.688a.172.172,0,0,1-.081.021.164.164,0,0,1-.145-.085l-.02-.035a.166.166,0,0,1,.289-.164l.02.037A.166.166,0,0,1,59.109,37.706Zm.872,1.454a.165.165,0,0,1-.229-.052l-.022-.035a.166.166,0,1,1,.281-.176l.022.034A.166.166,0,0,1,59.981,39.16Zm.962,1.4a.167.167,0,0,1-.1.032.163.163,0,0,1-.133-.067l-.026-.034a.166.166,0,1,1,.268-.2l.024.033A.166.166,0,0,1,60.943,40.557Zm1.106,1.283a.166.166,0,0,1-.117.048.163.163,0,0,1-.117-.049l-.03-.03a.166.166,0,1,1,.237-.232l.028.029A.165.165,0,0,1,62.049,41.84Zm1.416.895a.166.166,0,0,1-.158.117.167.167,0,0,1-.049-.008l-.043-.013a.166.166,0,0,1,.1-.315l.036.011A.166.166,0,0,1,63.465,42.735Zm1.359-.66-.02.039a.166.166,0,0,1-.146.086.16.16,0,0,1-.079-.02.165.165,0,0,1-.066-.225l.018-.034a.166.166,0,1,1,.293.154Zm.48-1.631a.166.166,0,0,1-.163.139l-.027,0a.165.165,0,0,1-.137-.19l.006-.04a.166.166,0,0,1,.328.051Zm.336-1.675-.013.039a.166.166,0,0,1-.158.116.145.145,0,0,1-.05-.008.165.165,0,0,1-.108-.208l.013-.04a.166.166,0,0,1,.316.1Zm.66-1.525-.02.035a.165.165,0,0,1-.146.088.169.169,0,0,1-.078-.019.167.167,0,0,1-.068-.225l.02-.037a.166.166,0,0,1,.292.158Zm.885-1.425-.025.035a.165.165,0,0,1-.135.07.166.166,0,0,1-.136-.262l.023-.032a.166.166,0,0,1,.273.189ZM68.2,34.477l-.025.031a.165.165,0,0,1-.129.062.163.163,0,0,1-.1-.036.166.166,0,0,1-.026-.233l.027-.033a.166.166,0,0,1,.257.209Zm1.085-1.3-.027.032a.167.167,0,0,1-.127.058.17.17,0,0,1-.107-.039.166.166,0,0,1-.019-.234l.027-.031a.166.166,0,1,1,.253.214Zm1.079-1.323-.026.034a.166.166,0,1,1-.264-.2l.024-.032a.166.166,0,1,1,.266.2Zm.1-2.936a.167.167,0,0,1-.122.053.16.16,0,0,1-.112-.044L70.2,28.9a.166.166,0,1,1,.221-.247l.033.03A.166.166,0,0,1,70.463,28.917Zm.688,1.361,0,.039a.166.166,0,0,1-.165.151h-.015a.167.167,0,0,1-.151-.18l0-.027a.178.178,0,0,1,.173-.161.162.162,0,0,1,.159.167Z" transform="translate(-0.392 -0.335)" style="fill:#16b1a9"/><path d="M64.727,26.777l.689-.947c-2.007-1.917-4.5-4.13-6.932-6.278-.96-.85-1.915-1.7-2.838-2.522l-.964.679.036.042.053.054c.955.855,1.948,1.734,2.943,2.616C60.179,22.6,62.717,24.851,64.727,26.777Zm-.417-1.2a.167.167,0,0,1,.234-.008l.031.03a.166.166,0,0,1-.114.286.163.163,0,0,1-.114-.046l-.029-.027A.166.166,0,0,1,64.31,25.582Zm-1.24-1.149a.161.161,0,0,1,.23-.013l.008.007.022.02a.166.166,0,0,1,.011.235.163.163,0,0,1-.123.054.165.165,0,0,1-.111-.043l-.024-.022A.171.171,0,0,1,63.07,24.433ZM61.81,23.29a.167.167,0,0,1,.235-.011l.03.027a.165.165,0,0,1,.012.234.162.162,0,0,1-.123.055.167.167,0,0,1-.111-.042l-.031-.028A.167.167,0,0,1,61.81,23.29Zm-1.262-1.131a.165.165,0,0,1,.234-.013l.03.027a.166.166,0,1,1-.22.248l-.032-.028A.165.165,0,0,1,60.548,22.159ZM59.28,21.032a.165.165,0,0,1,.234-.014l.03.027a.166.166,0,0,1-.11.29.161.161,0,0,1-.109-.041l-.032-.028A.166.166,0,0,1,59.28,21.032Zm-1.27-1.125a.166.166,0,0,1,.234-.014l.031.028a.165.165,0,0,1-.11.289.16.16,0,0,1-.11-.042l-.031-.027A.166.166,0,0,1,58.01,19.907Zm-2.256-2a.167.167,0,0,1-.125.056.162.162,0,0,1-.109-.042l-.032-.028a.166.166,0,0,1,.221-.247l.03.027A.166.166,0,0,1,55.754,17.9Zm1.265,1.127a.166.166,0,0,1-.234.013l-.03-.027a.166.166,0,1,1,.22-.248l.032.028A.165.165,0,0,1,57.019,19.031Z" transform="translate(-0.392 -0.335)" style="fill:#16b1a9"/><path d="M65.993,23.644a8.242,8.242,0,0,0-8.09-7.327,7.8,7.8,0,0,0-1.081.075,4.887,4.887,0,0,0-.778.357l-27.6,19.592a9.416,9.416,0,0,1,4.971-.088,15.606,15.606,0,0,1,8.095,5.611,14.677,14.677,0,0,1,2.956,11.574S65.141,26.3,65.342,25.946l.016-.021,0,0A5.257,5.257,0,0,0,65.993,23.644Z" transform="translate(-0.392 -0.335)" style="fill:#16b1a9"/><path d="M54.649,12.781c1.2-1.566.649-6.223.157-7.782A6.179,6.179,0,0,0,51.5,1.07c-3.7-1.742-8.981.048-11.078.9-1.923.78-7.208,3.776-8.552,8.208a7.074,7.074,0,0,0,.025,4.259l1.1-.393a5.94,5.94,0,0,1-.012-3.529c1.206-3.977,6.217-6.8,7.878-7.469C46.9.6,50.154,1.718,51.009,2.12A5.068,5.068,0,0,1,53.7,5.349c.5,1.578.828,5.687.03,6.724-1.415,1.838-.457,3.874.723,5.356l.965-.654C54.108,15.166,53.847,13.822,54.649,12.781Zm-22.66-.988,0-.043a.166.166,0,1,1,.33.027l0,.039a.166.166,0,0,1-.165.155h-.012A.166.166,0,0,1,31.989,11.793Zm.3,1.861-.031,0a.166.166,0,0,1-.163-.135l-.008-.041a.166.166,0,1,1,.326-.061l.008.04A.166.166,0,0,1,32.288,13.654Zm.373-3.49-.013.038a.165.165,0,0,1-.157.113.163.163,0,0,1-.053-.008.166.166,0,0,1-.105-.21l.014-.041a.166.166,0,0,1,.314.108Zm.7-1.5L33.34,8.7a.165.165,0,0,1-.143.082.169.169,0,0,1-.084-.023.165.165,0,0,1-.059-.227l.02-.035a.166.166,0,1,1,.287.167ZM34.325,7.3l-.025.031a.163.163,0,0,1-.128.06.165.165,0,0,1-.128-.27l.027-.034a.166.166,0,0,1,.254.213Zm1.153-1.219-.031.03a.168.168,0,0,1-.235-.008.167.167,0,0,1,.008-.235l.029-.027a.166.166,0,0,1,.229.24ZM36.758,5l-.033.025a.167.167,0,0,1-.1.035.166.166,0,0,1-.1-.3l.032-.024a.166.166,0,1,1,.2.262Zm1.377-.966-.035.022a.173.173,0,0,1-.089.026.166.166,0,0,1-.09-.305l.035-.023a.166.166,0,0,1,.179.28Zm1.452-.845-.034.017a.166.166,0,0,1-.155-.293l.04-.021a.166.166,0,0,1,.149.3Zm1.53-.689-.036.014a.181.181,0,0,1-.06.011.166.166,0,0,1-.061-.32L41,2.187a.166.166,0,1,1,.116.311Zm1.6-.552-.036.011a.167.167,0,0,1-.21-.109.164.164,0,0,1,.107-.206l.005,0,.033-.01a.166.166,0,0,1,.1.316Zm1.624-.437-.041.01a.155.155,0,0,1-.037,0,.166.166,0,0,1-.037-.328l.04-.009a.166.166,0,0,1,.075.323Zm1.654-.3-.043.006h-.022A.166.166,0,0,1,45.9.885L45.943.88a.166.166,0,0,1,.047.328Zm1.67-.126h-.045a.166.166,0,0,1,0-.332h.039a.17.17,0,0,1,.17.162A.166.166,0,0,1,47.66,1.082Zm1.686.112h-.025l-.041-.007a.166.166,0,1,1,.05-.328l.041.007a.165.165,0,0,1-.025.329Zm1.785.343a.167.167,0,0,1-.153.1.159.159,0,0,1-.064-.013l-.037-.015A.166.166,0,0,1,51,1.3l.04.017A.166.166,0,0,1,51.131,1.537Zm1.425.905a.168.168,0,0,1-.128.06.164.164,0,0,1-.106-.038l-.031-.026a.166.166,0,1,1,.21-.256l.033.026A.167.167,0,0,1,52.556,2.442Zm2.1,9.419-.014.042a.166.166,0,0,1-.157.111.17.17,0,0,1-.054-.009.166.166,0,0,1-.1-.212l.012-.036a.166.166,0,0,1,.315.1Zm.278-1.67a.167.167,0,0,1-.166.156h-.01a.165.165,0,0,1-.155-.175l0-.04a.167.167,0,0,1,.174-.157.166.166,0,0,1,.157.174Zm-.009-1.755,0,.043a.166.166,0,0,1-.158.173h-.008a.166.166,0,0,1-.165-.158l0-.04a.166.166,0,0,1,.331-.019ZM54.563,6.6a.166.166,0,0,1,.188.14l.006.042a.166.166,0,0,1-.141.187l-.023,0a.166.166,0,0,1-.164-.143l-.006-.04A.166.166,0,0,1,54.563,6.6Zm-.937-2.848a.158.158,0,0,1-.088.026A.169.169,0,0,1,53.4,3.7l-.021-.034a.166.166,0,0,1,.279-.18l.023.036A.166.166,0,0,1,53.626,3.747Zm.458,1.446-.012-.039a.166.166,0,0,1,.315-.1l.013.041a.165.165,0,0,1-.107.208.151.151,0,0,1-.051.008A.167.167,0,0,1,54.084,5.193Zm-.28,9.986a.153.153,0,0,1-.047.007.166.166,0,0,1-.159-.119l-.012-.041a.166.166,0,0,1,.319-.092l.011.039A.166.166,0,0,1,53.8,15.179Zm.168-1.876a.166.166,0,0,1-.165.155H53.8a.166.166,0,0,1-.154-.177l0-.043a.166.166,0,1,1,.33.027Zm.537,3.394a.167.167,0,0,1-.138-.072l-.023-.034a.166.166,0,1,1,.275-.187l.023.035a.166.166,0,0,1-.044.23A.168.168,0,0,1,54.509,16.7Z" transform="translate(-0.392 -0.335)" style="fill:#16b1a9"/><path d="M48.937,15.9a6.587,6.587,0,0,0-4-4.681,2.562,2.562,0,0,0-2.245.076L42.3,11.5a7.249,7.249,0,0,1,5.248,5.028,8.171,8.171,0,0,1,.388,2.255l.078-.058A2.556,2.556,0,0,0,48.937,15.9Z" transform="translate(-0.392 -0.335)" style="fill:#16b1a9"/><path d="M34.357,31.986c-.006.018-.012.037-.018.054v0C34.346,32.021,34.351,32,34.357,31.986Z" transform="translate(-0.392 -0.335)" style="fill:#00b7a8"/><path d="M34.289,32.157l-.021.043,0,0Z" transform="translate(-0.392 -0.335)" style="fill:#00b7a8"/><path d="M34.205,32.311l-.021.033,0,0Z" transform="translate(-0.392 -0.335)" style="fill:#00b7a8"/><path d="M34.413,31.786c-.006.027-.012.053-.019.079h0C34.4,31.838,34.407,31.812,34.413,31.786Z" transform="translate(-0.392 -0.335)" style="fill:#00b7a8"/><path d="M33.972,32.581,34,32.559c-.012.011-.025.023-.038.033Z" transform="translate(-0.392 -0.335)" style="fill:#00b7a8"/><path d="M34.108,32.445l-.025.028.005,0Z" transform="translate(-0.392 -0.335)" style="fill:#00b7a8"/><path d="M34.435,31.674c.009-.054.017-.108.022-.165-.005.057-.014.112-.022.166Z" transform="translate(-0.392 -0.335)" style="fill:#00b7a8"/><path d="M32.12,28.047c-.014,0-.029,0-.043,0l-.03,0Z" transform="translate(-0.392 -0.335)" style="fill:#00b7a8"/><path d="M34.457,31.509c-.005.055-.013.108-.022.161h0C34.444,31.617,34.452,31.564,34.457,31.509Z" transform="translate(-0.392 -0.335)" style="fill:#00b7a8"/><path d="M35.7,31.07c-.006.027-.012.055-.019.081s-.012.042-.018.063l1.182-.839a9.05,9.05,0,0,0-1.284-.922c.009.026.019.053.027.079l-.97.613c-.039-.123-.081-.246-.131-.366l.778-.491L35.1,29.2l-.676.427q-.071-.154-.153-.3l.469-.3-.184-.081-.37.234c-.058-.1-.12-.189-.185-.279l.171-.108-.2-.072-.077.048c-.03-.038-.063-.072-.1-.109-.218-.075-.453-.147-.7-.218a3.745,3.745,0,0,1,1.36,3.06c0,.057-.013.112-.023.165v0h0v0c-.007.044-.016.087-.025.129l0,.016h0c0,.016-.007.033-.012.049h0l.012-.05a1.85,1.85,0,0,1-.057.195l-.009.027h0v0a1.6,1.6,0,0,1-.066.151l-.006.012h0l-.005.01.47-.334a2.571,2.571,0,0,0,.055-.342c0-.022,0-.043,0-.065l.945-.6c0,.021-.006.043-.009.064h0l0,.026C35.717,31,35.71,31.034,35.7,31.07Zm-1.033-.76.97-.612a3.793,3.793,0,0,1,.079.372l-.969.611C34.728,30.557,34.7,30.433,34.669,30.31Zm.131.958a3.5,3.5,0,0,0-.026-.407l.966-.609a3.035,3.035,0,0,1,.013.414Z" transform="translate(-0.392 -0.335)" style="fill:#00b7a8"/><path d="M43.594,25.584C42,24.25,40.473,23.138,36.637,23.138h-.088l-8.4,3.959a35.039,35.039,0,0,1,3.713.535l-.424.235a1.3,1.3,0,0,0-.215.147c-.971-.179-2.114-.334-3.48-.455l.7,4.81a5.054,5.054,0,0,1,3.347,1.6l1.195-.849a1.6,1.6,0,0,0,.327.036,1.34,1.34,0,0,0,.7-.19l1.247-.69a1.381,1.381,0,0,0,.161-.1c.016-.012.031-.025.046-.038l.007-.007c.033-.028.063-.054.092-.083s.032-.034.048-.052l.01-.012c.027-.03.049-.055.07-.083s.033-.046.049-.069l.006-.01c.019-.028.037-.056.055-.086s.033-.061.049-.092.029-.058.043-.089l.042-.1c.011-.03.022-.061.031-.092s.024-.075.034-.115.015-.063.022-.095.018-.082.025-.125l0-.029.1-.667-.074.041a4.022,4.022,0,0,0-.346-1.383,9.839,9.839,0,0,1,1.528,1.1Zm-8.9,2.881.26-.164c.068.088.133.178.193.273l-.962.608c-.058-.1-.12-.189-.185-.279l.694-.438Zm-.8.306c-.073-.091-.148-.179-.228-.262l.43-.271h0l.507-.321a3.427,3.427,0,0,1,.243.253Zm-1.023-.9h0l.787-.5a1.669,1.669,0,0,1,.347.124l-.754.476h0l-.133.084c-.02-.012-.039-.027-.059-.039a2.543,2.543,0,0,0-.228-.123Zm1.3-.283h0a2.373,2.373,0,0,1,.3.218l-.579.365h0l-.351.222a3.166,3.166,0,0,0-.276-.234Zm-1.619.2a1.787,1.787,0,0,0-.2-.049l.509-.282a1.026,1.026,0,0,1,.5-.125l.04,0-.755.477.006.008c-.034-.012-.067-.022-.1-.032Zm1.9,3.717a1.452,1.452,0,0,1-.612,1.168.328.328,0,0,1-.031.02,1.008,1.008,0,0,1-.4.122h0c-.033,0-.066.006-.1.006a1.574,1.574,0,0,1-.811-.255,3.686,3.686,0,0,1-1.57-3.2c.006-.074.017-.143.029-.211l.009-.044a1.758,1.758,0,0,1,.048-.19l.006-.019c.019-.057.04-.112.063-.164l.01-.023a1.471,1.471,0,0,1,.086-.157l.008-.013a1.183,1.183,0,0,1,.226-.258l0,0a1.009,1.009,0,0,1,.289-.167h0a1.048,1.048,0,0,1,.366-.066,1.573,1.573,0,0,1,.81.255A3.69,3.69,0,0,1,34.458,31.5Zm-.191-2.18.963-.608c.057.1.109.2.158.3l-.968.611Q34.349,29.473,34.267,29.324Zm1.19-.156a3.784,3.784,0,0,1,.133.364l-.97.613c-.039-.123-.081-.246-.131-.366Zm.182.53a3.793,3.793,0,0,1,.079.372l-.969.611c-.021-.124-.047-.248-.08-.371Zm.089,1.238,0,.026c-.007.037-.014.072-.022.108s-.012.055-.019.081-.018.066-.028.1l-.027.077c-.011.029-.023.058-.035.086s-.023.049-.035.073-.026.051-.04.075-.028.046-.043.068-.029.043-.044.063-.036.044-.055.065-.029.034-.044.05-.047.042-.071.062-.026.024-.04.035a.955.955,0,0,1-.12.079l-.491.271a2.3,2.3,0,0,0,.178-.719c0-.022,0-.043,0-.065l.945-.6c0,.021-.006.043-.009.064Zm.025-.27-.953.6a3.5,3.5,0,0,0-.026-.407l.966-.609A3.035,3.035,0,0,1,35.753,30.666Z" transform="translate(-0.392 -0.335)" style="fill:#16b1a9"/></svg>
