<svg id="Layer_1" data-name="Layer 1" xmlns="http://www.w3.org/2000/svg" viewBox="0 0 71 63.729"><title>icon-adaptability</title><rect x="9.482" y="35.681" width="1.509" height="3.561" style="fill:#FFFFFF"/><rect x="38.712" y="28.378" width="1.509" height="3.561" style="fill:#FFFFFF"/><rect x="24.135" y="16.491" width="1.509" height="3.561" style="fill:#FFFFFF"/><path d="M38.238,56.511l.823-.667,1.2-.975-.114-.716L38.7,53.6l-.989-.378.054-1.058a12.872,12.872,0,0,1,1.1-4.6L39.3,46.6l1.053.11,1.538.161.256-.352V45.9l-.46-1.03-.431-.967.786-.71c.034-.031.07-.059.105-.09V36.49H44.26v5.095a12.971,12.971,0,0,1,1.811-.865l.988-.379.667.822.975,1.2.716-.114.554-1.445.378-.988,1.058.053a12.891,12.891,0,0,1,4.452,1.041l.046-.058L56.578,40l-.188-.472-1.073-.157-.734-.108-.126-.731a9.018,9.018,0,0,1,.049-3.312l.146-.727.737-.086,1.076-.126.165-.382v-.134l-.611-.82-.443-.595.429-.606a8.948,8.948,0,0,1,.625-.784V6.651A6.035,6.035,0,0,0,50.594.616H6.536A6.035,6.035,0,0,0,.5,6.651V50.709a6.037,6.037,0,0,0,6.036,6.036H38.328ZM51.524,4.627a.974.974,0,1,1-.974.974A.975.975,0,0,1,51.524,4.627ZM37.808,27.537h4.34V9A1.056,1.056,0,1,1,44.26,9V27.537h4.245v6.475h-10.7ZM5.429,53.369A.975.975,0,1,1,6.4,52.4.975.975,0,0,1,5.429,53.369Zm0-46.794A.974.974,0,1,1,6.4,5.6.974.974,0,0,1,5.429,6.575Zm9.553,41.787a1.056,1.056,0,1,1-2.112,0V43.793h2.112Zm4.293-7.047H8.577V34.839H12.87V9a1.056,1.056,0,0,1,2.112,0V34.839h4.293Zm10.346,7.047a1.056,1.056,0,1,1-2.112,0V24.6h2.112Zm4.306-26.237h-10.7V15.65h4.28V9a1.056,1.056,0,1,1,2.112,0V15.65h4.306Z" transform="translate(-0.5 -0.616)" style="fill:#FFFFFF"/><path d="M55.465,38.362l1.165.171v-3.24l-1.122.132A8,8,0,0,0,55.465,38.362Z" transform="translate(-0.5 -0.616)" style="fill:#FFFFFF"/><path d="M71.385,35.653l-1.657-.242-.623-1.569,1.038-1.314A8.006,8.006,0,0,0,68.1,30.422l-1.342,1-1.55-.668-.2-1.662a8.023,8.023,0,0,0-2.938-.043L61.828,30.7l-1.569.624L58.945,30.29a8.018,8.018,0,0,0-2.106,2.047l1,1.343-.669,1.55-1.662.2a8,8,0,0,0-.043,2.937l1.657.243.623,1.569-.92,1.164-.125.174.229.292a8.029,8.029,0,0,0,1.826,1.79l1.342-1,1.55.668.2,1.663a8.023,8.023,0,0,0,2.938.043l.242-1.657,1.569-.624L67.9,43.726a8.01,8.01,0,0,0,2.107-2.048l-1-1.342.669-1.551,1.662-.194A8.006,8.006,0,0,0,71.385,35.653Zm-7.353,4.534a3.236,3.236,0,0,1-1.214-6.358,3.183,3.183,0,0,1,.611-.058,3.237,3.237,0,0,1,.6,6.416Z" transform="translate(-0.5 -0.616)" style="fill:#FFFFFF"/><path d="M50.835,49.677h-.1a3.16,3.16,0,0,0-.1,6.319l.1,0a3.161,3.161,0,0,0,.1-6.32Z" transform="translate(-0.5 -0.616)" style="fill:#FFFFFF"/><path d="M55.162,44.681l.248-2.376a11.457,11.457,0,0,0-4.077-.977l-.855,2.232-2.38.378-1.5-1.856A11.448,11.448,0,0,0,44.26,43.3v5.059a1.056,1.056,0,0,1-2.112,0l-1.946-.2a11.478,11.478,0,0,0-.977,4.077l2.232.855.379,2.38-1.571,1.273H48.28a4.616,4.616,0,0,1,2.451-8.528l.151,0a4.615,4.615,0,0,1,3.9,6.83,6.015,6.015,0,0,0,1.845-4.341V45.746Z" transform="translate(-0.5 -0.616)" style="fill:#FFFFFF"/><path d="M62.242,53.435,60.01,52.58,59.632,50.2,61.488,48.7a11.46,11.46,0,0,0-2.194-3.573l-2.182.973-1.95-1.415.248-2.376a11.457,11.457,0,0,0-4.077-.977l-.855,2.232-2.38.378-1.5-1.856a11.478,11.478,0,0,0-3.573,2.194l.973,2.182-1.415,1.95L40.2,48.16a11.478,11.478,0,0,0-.977,4.077l2.232.855.379,2.38-1.857,1.5a11.478,11.478,0,0,0,2.194,3.573l2.182-.973,1.95,1.415-.248,2.375a11.441,11.441,0,0,0,4.078.977l.855-2.231,2.379-.379,1.505,1.857A11.478,11.478,0,0,0,58.447,61.4l-.973-2.182,1.415-1.95,2.376.248A11.462,11.462,0,0,0,62.242,53.435Zm-11.506,4.02c-.05,0-.1,0-.15,0a4.619,4.619,0,0,1,.145-9.236l.151,0a4.619,4.619,0,0,1-.146,9.235Z" transform="translate(-0.5 -0.616)" style="fill:#FFFFFF"/></svg>
