<svg id="Layer_1" data-name="Layer 1" xmlns="http://www.w3.org/2000/svg" viewBox="0 0 53.257 70"><title>icon-quality</title><path d="M54.379,26.816l-3.252-4.888.906-5.8a.777.777,0,0,0-.371-.789l-5.05-2.993-1.7-5.619a.778.778,0,0,0-.677-.549l-5.848-.5-3.97-4.325a.776.776,0,0,0-.573-.252.761.761,0,0,0-.276.051L28.081,3.229,22.628,1.056A.761.761,0,0,0,22.34,1a.781.781,0,0,0-.564.242L17.735,5.5l-5.856.407a.779.779,0,0,0-.687.538L9.4,12.033,4.3,14.94a.779.779,0,0,0-.385.783l.809,5.814L1.389,26.369a.779.779,0,0,0-.007.873l3.252,4.886-.907,5.8a.776.776,0,0,0,.372.789L9.148,41.71l1.7,5.618a.776.776,0,0,0,.678.55l5.848.506,3.969,4.324a.78.78,0,0,0,.849.2l5.488-2.082L33.132,53a.778.778,0,0,0,.852-.188l4.041-4.256,5.856-.407a.778.778,0,0,0,.687-.539l1.794-5.588,5.1-2.907a.777.777,0,0,0,.385-.783l-.809-5.813,3.334-4.833A.777.777,0,0,0,54.379,26.816Zm-6.063,5.06.778,5.591-4.9,2.8-1.725,5.375-5.632.391-3.887,4.094L27.7,48.032l-5.277,2-3.818-4.159-5.624-.486-1.635-5.4L6.493,37.107l.872-5.578-3.127-4.7,3.206-4.647-.778-5.591,4.9-2.8L13.3,8.42l5.632-.391,3.887-4.094,5.243,2.09,5.278-2,3.817,4.16,5.624.486,1.635,5.4,4.856,2.878L48.4,22.527l3.128,4.7Z" transform="translate(-1.251 -1)" style="fill:#16b1a9"/><path d="M28.038,44.792H27.9a.392.392,0,0,1,0-.783h.133a.392.392,0,1,1,0,.783Zm2.339-.164a.391.391,0,0,1-.052-.779l.093-.013a.391.391,0,1,1,.114.774l-.1.014A.327.327,0,0,1,30.377,44.628Zm-4.811-.009a.339.339,0,0,1-.055,0l-.1-.015a.391.391,0,1,1,.118-.773l.093.013a.391.391,0,0,1-.055.779Zm7.2-.5a.391.391,0,0,1-.108-.767l.09-.027a.391.391,0,0,1,.224.75l-.1.029A.407.407,0,0,1,32.767,44.118ZM23.179,44.1a.385.385,0,0,1-.11-.016l-.1-.029a.391.391,0,1,1,.227-.749l.09.027a.391.391,0,0,1-.109.767Zm11.879-.83a.391.391,0,0,1-.161-.748l.086-.04a.391.391,0,0,1,.327.711l-.09.042A.391.391,0,0,1,35.058,43.271Zm-14.17-.027a.391.391,0,0,1-.162-.035l-.091-.042a.391.391,0,0,1,.329-.71l.087.04a.391.391,0,0,1-.163.747ZM37.2,42.106a.392.392,0,0,1-.212-.721l.081-.052a.391.391,0,1,1,.425.657l-.083.053A.382.382,0,0,1,37.2,42.106ZM18.745,42.07a.387.387,0,0,1-.211-.062l-.085-.055a.392.392,0,1,1,.428-.656l.08.052a.392.392,0,0,1-.212.721Zm20.418-1.423a.391.391,0,0,1-.255-.688l.072-.062a.391.391,0,0,1,.513.591l-.075.065A.393.393,0,0,1,39.163,40.647ZM16.79,40.6a.385.385,0,0,1-.256-.1l-.076-.066a.391.391,0,1,1,.517-.587l.072.063a.391.391,0,0,1-.257.686ZM40.9,38.927a.39.39,0,0,1-.294-.648l.063-.073a.391.391,0,1,1,.591.512l-.065.075A.389.389,0,0,1,40.9,38.927Zm-25.834-.051a.39.39,0,0,1-.295-.135l-.066-.076a.391.391,0,1,1,.594-.509l.062.072a.391.391,0,0,1-.295.648Zm27.308-1.9a.392.392,0,0,1-.327-.606l.052-.079a.391.391,0,0,1,.658.422L42.7,36.8A.391.391,0,0,1,42.371,36.979ZM13.6,36.923a.394.394,0,0,1-.329-.179l-.054-.085a.391.391,0,0,1,.66-.42l.051.08a.392.392,0,0,1-.328.6ZM43.555,34.84a.4.4,0,0,1-.164-.036.392.392,0,0,1-.191-.52l.04-.087a.391.391,0,0,1,.712.325l-.042.091A.39.39,0,0,1,43.555,34.84Zm-31.132-.058a.393.393,0,0,1-.356-.228l-.042-.092a.391.391,0,0,1,.714-.32l.039.085a.392.392,0,0,1-.355.555Zm32-2.228a.393.393,0,0,1-.375-.5l.027-.091a.391.391,0,0,1,.751.219l-.028.1A.393.393,0,0,1,44.421,32.554Zm-32.855-.06a.391.391,0,0,1-.375-.28l-.029-.1a.392.392,0,0,1,.753-.216l.026.091a.391.391,0,0,1-.264.486A.387.387,0,0,1,11.566,32.494ZM44.95,30.168a.352.352,0,0,1-.056,0,.391.391,0,0,1-.332-.443l.014-.1a.391.391,0,0,1,.775.11l-.014.1A.391.391,0,0,1,44.95,30.168Zm-33.9-.06a.391.391,0,0,1-.387-.336l-.014-.1a.391.391,0,0,1,.775-.105l.013.093a.392.392,0,0,1-.331.444A.546.546,0,0,1,11.046,30.108Zm34.086-2.376h0a.39.39,0,0,1-.39-.392v-.1a.392.392,0,0,1,.783,0v.1A.392.392,0,0,1,45.132,27.732Zm-34.26-.066a.387.387,0,0,1-.391-.386v-.1a.391.391,0,0,1,.391-.389h0a.391.391,0,0,1,.389.394v.087A.394.394,0,0,1,10.872,27.666Zm34.1-2.371a.392.392,0,0,1-.387-.337l-.013-.095a.391.391,0,1,1,.774-.112l.014.1a.391.391,0,0,1-.334.441A.327.327,0,0,1,44.969,25.3Zm-33.925-.061a.36.36,0,0,1-.056,0,.391.391,0,0,1-.332-.442l.015-.1a.391.391,0,1,1,.774.116l-.014.094A.391.391,0,0,1,11.044,25.234Zm33.417-2.328a.392.392,0,0,1-.376-.283l-.027-.091a.392.392,0,0,1,.751-.222l.028.1a.391.391,0,0,1-.268.484A.4.4,0,0,1,44.461,22.906Zm-32.9-.059a.425.425,0,0,1-.111-.016.392.392,0,0,1-.265-.486l.029-.095a.391.391,0,1,1,.75.223l-.028.093A.392.392,0,0,1,11.561,22.847Zm32.054-2.233a.392.392,0,0,1-.357-.23l-.039-.087a.391.391,0,0,1,.711-.326l.041.091a.39.39,0,0,1-.195.517A.383.383,0,0,1,43.615,20.614Zm-31.2-.058A.39.39,0,0,1,12.06,20l.042-.091a.391.391,0,0,1,.71.33l-.04.087A.393.393,0,0,1,12.416,20.556Zm30.035-2.088a.391.391,0,0,1-.33-.181l-.052-.08a.392.392,0,0,1,.658-.425l.054.084a.392.392,0,0,1-.33.6Zm-28.862-.056a.391.391,0,0,1-.329-.6l.056-.086a.391.391,0,0,1,.653.431l-.05.078A.39.39,0,0,1,13.589,18.412Zm27.405-1.9a.392.392,0,0,1-.3-.136l-.062-.072a.391.391,0,1,1,.59-.514l.066.076a.391.391,0,0,1-.3.646Zm-25.939-.051a.391.391,0,0,1-.295-.648l.064-.074a.391.391,0,1,1,.59.513l-.064.074A.39.39,0,0,1,15.055,16.457Zm24.219-1.685a.388.388,0,0,1-.257-.1l-.073-.063a.392.392,0,0,1,.513-.592l.074.065a.391.391,0,0,1-.257.686Zm-22.492-.044a.391.391,0,0,1-.257-.686l.075-.066a.391.391,0,1,1,.51.594l-.072.062A.385.385,0,0,1,16.782,14.728ZM37.326,13.3a.385.385,0,0,1-.212-.063l-.081-.052a.392.392,0,1,1,.423-.659l.083.054a.391.391,0,0,1-.213.72Zm-18.592-.036a.391.391,0,0,1-.212-.72l.084-.054a.391.391,0,1,1,.42.66l-.08.051A.383.383,0,0,1,18.734,13.261Zm16.454-1.148a.389.389,0,0,1-.162-.036l-.089-.041a.391.391,0,0,1,.325-.712l.09.042a.392.392,0,0,1-.164.747Zm-14.314-.027a.391.391,0,0,1-.163-.747l.089-.04a.391.391,0,0,1,.326.711l-.088.04A.383.383,0,0,1,20.874,12.086Zm12.029-.84a.4.4,0,0,1-.113-.017L32.7,11.2a.391.391,0,1,1,.219-.751l.1.029a.391.391,0,0,1-.113.766Zm-9.742-.018a.391.391,0,0,1-.11-.767l.1-.027a.391.391,0,1,1,.216.752l-.092.026A.385.385,0,0,1,23.161,11.228Zm7.357-.512a.366.366,0,0,1-.057,0l-.095-.013a.391.391,0,0,1,.11-.775l.1.014a.392.392,0,0,1-.057.779Zm-4.971-.009a.391.391,0,0,1-.054-.779l.1-.014a.392.392,0,0,1,.106.776L25.6,10.7A.352.352,0,0,1,25.547,10.707Zm2.535-.175h-.1a.391.391,0,1,1,0-.782h.1a.392.392,0,0,1,0,.783Z" transform="translate(-1.251 -1)" style="fill:#16b1a9"/><polygon points="25.817 20.207 21.521 20.207 22.879 24.392 25.817 20.207" style="fill:#16b1a9"/><path d="M28,11.779A15.492,15.492,0,1,0,43.569,27.271,15.547,15.547,0,0,0,28,11.779Zm11.32,14.408a.151.151,0,0,1-.008.036l-.006.021a.255.255,0,0,1-.018.039l-.012.022a.292.292,0,0,1-.024.034l-.017.02-11.3,11.393a.141.141,0,0,1-.023.019l-.023.017-.014.008,0,0-.069.026a.232.232,0,0,1-.03.008.294.294,0,0,1-.045.005h-.018a.452.452,0,0,1-.061-.006l-.019,0-.025-.007-.017-.006a.227.227,0,0,1-.031-.015l-.019-.01-.019-.013c-.018-.013-.026-.02-.033-.026l-.014-.013-11.3-11.393a.184.184,0,0,1-.022-.03c-.01-.016-.015-.025-.02-.034l-.011-.022a.386.386,0,0,1-.013-.041L16.1,26.2c0-.019,0-.031,0-.043l0-.035,0-.027,0-.027h0l0-.014.007-.023L16.118,26l.018-.036.014-.023.022-.029.02-.022,5.92-5.286.023-.016a.251.251,0,0,1,.037-.02l.022-.01.038-.011.026-.006h.011l0,0h.04l10.819,0h.017l.063.014.039.016.023.012a.376.376,0,0,1,.037.025l.016.013,5.894,5.264a.291.291,0,0,1,.029.032l.016.02h0a.142.142,0,0,1,.021.033L39.3,26c.007.018.01.027.013.036l.007.026a.262.262,0,0,1,.006.036l0,.025a.22.22,0,0,1,0,.041A.206.206,0,0,1,39.322,26.187Z" transform="translate(-1.251 -1)" style="fill:#16b1a9"/><polygon points="20.913 19.677 20.913 19.677 20.913 19.677 20.913 19.677" style="fill:#16b1a9"/><polygon points="36.867 24.797 32.016 20.463 30.609 24.797 36.867 24.797" style="fill:#16b1a9"/><polygon points="20.902 20.463 16.05 24.797 22.308 24.797 20.902 20.463" style="fill:#16b1a9"/><polygon points="31.397 20.207 27.101 20.207 30.039 24.392 31.397 20.207" style="fill:#16b1a9"/><polygon points="29.508 24.797 26.459 20.454 23.41 24.797 29.508 24.797" style="fill:#16b1a9"/><polygon points="15.977 25.465 25.709 35.275 22.525 25.465 15.977 25.465" style="fill:#16b1a9"/><polygon points="37.864 25.195 37.864 25.195 37.864 25.195 37.864 25.195" style="fill:#16b1a9"/><polygon points="27.209 35.275 36.941 25.465 30.392 25.465 27.209 35.275" style="fill:#16b1a9"/><polygon points="23.227 25.465 26.459 35.423 29.691 25.465 23.227 25.465" style="fill:#16b1a9"/><path d="M43.521,49.047l-5.1.354-3.809,4.011a1.645,1.645,0,0,1-1.8.4L27.672,51.76l-.732.278h0L22.5,53.722a1.645,1.645,0,0,1-1.8-.426L16.962,49.22,12.086,48.8c-3.664,6.82-5.806,14.358-5.03,14.58l8.394-1.2a.5.5,0,0,1,.5.235l4.388,7.245c.108.211.419.142.565.058a.149.149,0,0,0,.075-.139c-.221-4.253,2.717-10.726,6.676-16.567,4.371,6.136,7.745,13.219,7.509,17.765a.148.148,0,0,0,.074.139c.147.085.458.153.565-.057l4.389-7.246a.5.5,0,0,1,.495-.235l8.393,1.2C49.886,64.345,47.5,56.1,43.521,49.047Z" transform="translate(-1.251 -1)" style="fill:#16b1a9"/></svg>