<svg id="Layer_1" data-name="Layer 1" xmlns="http://www.w3.org/2000/svg" viewBox="0 0 71.049 51.593"><title>icon-roadmap</title><path d="M35.9.441a9.154,9.154,0,0,0-9.08,9.207c0,4.916,8.3,15.545,8.654,16l.426.543.426-.543c.354-.45,8.654-11.079,8.654-15.995A9.154,9.154,0,0,0,35.9.441Zm0,14.428a5.318,5.318,0,1,1,5.318-5.318A5.317,5.317,0,0,1,35.9,14.869Z" transform="translate(-0.374 -0.441)" style="fill:#16b1a9"/><path d="M22.955,34l-.516-1.049c1.084-.533,2.153-1.026,3.191-1.474L22.471,17.614l-21.366.943L.7,37.316a31.567,31.567,0,0,0,3.392.372l-.063,1.168A32.732,32.732,0,0,1,.669,38.5l-.3,13.538L29.5,48.465l-3.6-15.825C24.937,33.058,23.952,33.514,22.955,34ZM5.832,38.9l0-1.169a30.587,30.587,0,0,0,4.05-.282l.16,1.158A31.436,31.436,0,0,1,5.832,38.9Zm5.99-.591L11.6,37.163a30.577,30.577,0,0,0,3.923-1.049l.377,1.107A31.861,31.861,0,0,1,11.822,38.311Zm8.965-3.2a34.56,34.56,0,0,1-3.2,1.483l-.437-1.085a33.377,33.377,0,0,0,3.088-1.433q.3-.16.6-.315l.537,1.039C21.184,34.9,20.986,35,20.787,35.11Z" transform="translate(-0.374 -0.441)" style="fill:#16b1a9"/><path d="M39.609,29.125l-.018-1.17c.2,0,.4,0,.6.007l-1.5-4.363c-1.259,1.75-2.217,2.96-2.336,3.109l-.458.575-.457-.575a76.06,76.06,0,0,1-7.822-12.017l-3.95,2.553L30.7,48.09l13.687-7.975L40.6,29.134C40.274,29.123,39.945,29.12,39.609,29.125ZM28.32,31.641,27.9,30.55c1.363-.525,2.7-.976,3.97-1.341l.323,1.124C30.954,30.689,29.651,31.129,28.32,31.641Zm5.563-1.751-.27-1.138a30.222,30.222,0,0,1,4.162-.7l.108,1.164A29.218,29.218,0,0,0,33.883,29.89Z" transform="translate(-0.374 -0.441)" style="fill:#16b1a9"/><path d="M51.107,31.323l.089-.769L45.023,15.775l-1.085-.59a60.776,60.776,0,0,1-4.414,7.239l1.925,5.589a19.088,19.088,0,0,1,2.383.319l-.23,1.146c-.575-.115-1.151-.2-1.737-.257l3.764,10.922,11.71,5.118-5.806-13.9C51.391,31.347,51.249,31.34,51.107,31.323Zm-1.8-.29a24.782,24.782,0,0,1-2.658-.709l-.114-.037c-.375-.122-.8-.261-1.257-.394L45.6,28.77c.475.139.909.28,1.292.405l.114.037a23.787,23.787,0,0,0,2.531.676Z" transform="translate(-0.374 -0.441)" style="fill:#16b1a9"/><path d="M64.761,26.8a23.641,23.641,0,0,1-2.05,1.584l-.662-.964A23,23,0,0,0,64.2,25.733L56.657,11.394,46.376,15.978l5.961,14.273a15.607,15.607,0,0,0,2.889-.109l.156,1.16a16.482,16.482,0,0,1-2.189.144c-.119,0-.241-.008-.361-.011l5.815,13.923,12.775-5.9Zm-7.57,4.151L56.9,29.817a15.528,15.528,0,0,0,3.689-1.489l.57,1.021A16.666,16.666,0,0,1,57.191,30.95Z" transform="translate(-0.374 -0.441)" style="fill:#16b1a9"/></svg>