<svg id="Layer_1" data-name="Layer 1" xmlns="http://www.w3.org/2000/svg" viewBox="0 0 67.576 71.286"><title>icon-integrity</title><path d="M34.243,71.7a7.7,7.7,0,0,1-2.841-.541C24.418,68.4,1.55,56.3.507,16.457a5.268,5.268,0,0,1,5.266-5.409,5.391,5.391,0,0,1,.718.049,26.923,26.923,0,0,0,3.671.246,26.75,26.75,0,0,0,20.3-9.2,5.285,5.285,0,0,1,3.8-1.734h.083a5.323,5.323,0,0,1,3.784,1.58c7.584,7.731,15.434,9.354,20.684,9.353a23.849,23.849,0,0,0,3.271-.22,5.272,5.272,0,0,1,5.991,5.365C67.008,55.682,44.187,68.2,37.218,71.1A7.7,7.7,0,0,1,34.243,71.7ZM5.773,11.816a4.5,4.5,0,0,0-4.5,4.621c1.031,39.37,23.537,51.29,30.41,54.005a6.971,6.971,0,0,0,5.238-.048c6.862-2.858,29.332-15.194,30.39-53.927a4.5,4.5,0,0,0-5.118-4.583,24.594,24.594,0,0,1-3.377.227c-5.4,0-13.462-1.662-21.232-9.584a4.55,4.55,0,0,0-3.231-1.349h-.076A4.508,4.508,0,0,0,31.032,2.66a27.5,27.5,0,0,1-20.87,9.451,27.823,27.823,0,0,1-3.776-.253A4.5,4.5,0,0,0,5.773,11.816Z" transform="translate(-0.505 -0.41)" style="fill:#FFFFFF"/><path d="M31.63,52.405a3.824,3.824,0,0,0,2.763-.509c-1.917-1.319-1.723-2.779-2.562-2.779C30.777,49.117,29.781,51.815,31.63,52.405Z" transform="translate(-0.505 -0.41)" style="fill:#FFFFFF"/><path d="M25.9,44.08a4.946,4.946,0,0,0-1.811.846A2.259,2.259,0,0,0,23.086,46c-.351,1.036.781,3.512,2.418,2.6A10.412,10.412,0,0,0,27.7,46.471,1.577,1.577,0,0,0,25.9,44.08Z" transform="translate(-0.505 -0.41)" style="fill:#FFFFFF"/><path d="M27.558,50.38c1.5.749,2-.617,3.071-1.641.573-.826.661-2.246-.288-2.614-1.29-.5-1.934.943-3.327,2.315C26.314,49.237,26.4,49.8,27.558,50.38Z" transform="translate(-0.505 -0.41)" style="fill:#FFFFFF"/><path d="M20.119,43.307c-.717,1.68,1.687,3.291,2.7,1.487h0C23.548,43.48,20.674,42.01,20.119,43.307Z" transform="translate(-0.505 -0.41)" style="fill:#FFFFFF"/><path d="M38.642,40.389c.3,0,.6.328.826.567.361.39,1.821,1.594,2.377,2.041,1.761,1.416,2.956,2.593,4.3,3.086a2.347,2.347,0,0,0,2.237-.852c.891-1.078-.033-2.01-1.043-2.87h0c-1.712-1.46-3.587-2.918-5.335-4.4-3.041-2.581-4.925-4.924-7.067-5.532-3.272-.929-2.794,3.518-5.395,4.675a3.07,3.07,0,0,1-2.233.2,2.585,2.585,0,0,1-1.289-1.983A8.243,8.243,0,0,1,26,33.71a9.451,9.451,0,0,1,.854-4.168,5.431,5.431,0,0,1,2.005-2.1,20.118,20.118,0,0,1-6.1-.9,28.454,28.454,0,0,1-3.411-1.571c-.029.054-6.682,12.485-6.955,13.063,1.038.62,6.241,3.857,7.175,4.6A1.806,1.806,0,0,1,21,41.926a2.918,2.918,0,0,1,2.8,2.18c.174-.11.359-.215.551-.312a4.141,4.141,0,0,1,1.665-.625A2.536,2.536,0,0,1,28.9,45.35c1.723-.911,3.561,1.12,3.011,2.845,1.32.157,1.465,1.667,2.235,2.406a3.545,3.545,0,0,0,3.824.812c-1.757-.57-3.144-2.02-4.1-2.652-.605-.4-1.07-.732-1.1-1.083a.425.425,0,0,1,.082-.341c.643-.706,3.064,2.734,5.72,3.371,1.093.262,3.1.142,3.564-.988-1.68-.849-2.465-1.835-5.858-4.3a1.092,1.092,0,0,1-.595-.574.442.442,0,0,1,.689-.443c1.163.841,2.237,1.635,3.284,2.429,1.34,1.017,3.051,2.931,4.847,2.284.531-.191,1.993-1.88,1.163-2.295a47.227,47.227,0,0,1-6.947-5.343c-.158-.146-.512-.384-.494-.693A.435.435,0,0,1,38.642,40.389Z" transform="translate(-0.505 -0.41)" style="fill:#FFFFFF"/><path d="M50.606,41.634a16.925,16.925,0,0,0,1.428-1.064l0,0c.225-.165.576-.38,1-.627l1.51-.84h0l4.6-2.556,4.335-2.41a44.094,44.094,0,0,0,1.169-6.807l-4.46-7.069-14.2,6.608a2.574,2.574,0,0,1-1.026.207c-8.156-1.187-4.253-.987-9.522-1.465a4.975,4.975,0,0,0-2.91.766l.021,0c-2.086,1.177-3.558,1.706-4.5,2.864a8,8,0,0,0-1.168,4.591c-.1,1.857.31,3.248,2.026,2.531,1.935-.809,1.938-3.155,3.505-4.461,2.458-2.049,6.312,1.783,8.355,3.744,3.331,3.2,4.081,3.389,7.385,6.259C49.182,42.792,49.977,42.063,50.606,41.634Z" transform="translate(-0.505 -0.41)" style="fill:#FFFFFF"/><circle cx="12.327" cy="23.116" r="0.887" style="fill:#00b7a8"/><path d="M51.062,42.3a3.388,3.388,0,0,1-1.89.831c1.274,2.04-.949,3.73-2.471,3.823.226,1.135-1.2,2.659-1.924,2.919a3.072,3.072,0,0,1-1.86.065c-.509,1.409-2.29,1.793-3.767,1.672a3.708,3.708,0,0,1-3.724.655,6.846,6.846,0,0,1-3.113,1.048,2.311,2.311,0,0,1-2.515-2.5,2.179,2.179,0,0,1-2.6.286,2.174,2.174,0,0,1-1.437-1.719c-2.086,1.019-3.626-1.418-3.541-3.078a2.454,2.454,0,0,1-2.979-2.892c-.743-.61-6.007-3.813-7.4-4.65l-.4.48c-2.6-1.523-3.174-2.209-6.1-3.923C11.462,58.853,26.845,66.88,32.248,69.014a5.407,5.407,0,0,0,2,.38h0a5.387,5.387,0,0,0,2.088-.418c5.385-2.242,20.694-10.528,26.86-33.7C54.46,40.087,54.175,40.179,51.062,42.3ZM9.612,39.5a.385.385,0,0,1-.487-.24l-.031-.09a.384.384,0,0,1,.726-.248l.031.09A.385.385,0,0,1,9.612,39.5Zm.836,2.237a.38.38,0,0,1-.139.026.384.384,0,0,1-.358-.245l-.035-.09a.384.384,0,1,1,.716-.276l.034.088A.384.384,0,0,1,10.448,41.736Zm.929,2.2a.385.385,0,0,1-.506-.2l-.038-.088a.384.384,0,1,1,.7-.308l.038.087A.384.384,0,0,1,11.377,43.936ZM12.4,46.092a.383.383,0,0,1-.514-.173l-.044-.088a.384.384,0,1,1,.69-.337l.041.084A.384.384,0,0,1,12.4,46.092ZM13.529,48.2a.384.384,0,0,1-.522-.15l-.046-.084a.383.383,0,1,1,.671-.371l.046.083A.384.384,0,0,1,13.529,48.2Zm1.226,2.05a.386.386,0,0,1-.529-.124l-.05-.081a.384.384,0,1,1,.652-.4l.05.081A.384.384,0,0,1,14.755,50.249Zm1.327,1.986a.384.384,0,0,1-.534-.1l-.055-.08a.384.384,0,0,1,.632-.435l.054.078A.385.385,0,0,1,16.082,52.235Zm1.429,1.914a.386.386,0,0,1-.539-.068L16.913,54a.384.384,0,1,1,.608-.468l.058.074A.385.385,0,0,1,17.511,54.149Zm1.53,1.835a.385.385,0,0,1-.542-.038l-.063-.073a.384.384,0,1,1,.581-.5l.062.072A.383.383,0,0,1,19.041,55.984Zm1.628,1.749a.384.384,0,0,1-.543-.009l-.067-.07a.384.384,0,0,1,.553-.532l.066.068A.385.385,0,0,1,20.669,57.733Zm1.725,1.653a.384.384,0,0,1-.543.022l-.072-.066a.384.384,0,1,1,.524-.562l.068.064A.384.384,0,0,1,22.394,59.386Zm1.817,1.552a.384.384,0,0,1-.54.053L23.6,60.93a.384.384,0,0,1,.488-.592l.073.06A.383.383,0,0,1,24.211,60.938Zm1.907,1.441a.381.381,0,0,1-.31.158.385.385,0,0,1-.226-.073l-.077-.056a.384.384,0,1,1,.451-.621l.078.056A.384.384,0,0,1,26.118,62.379ZM28.111,63.7a.384.384,0,0,1-.529.119l-.081-.051a.384.384,0,1,1,.411-.649l.081.051A.384.384,0,0,1,28.111,63.7Zm2.074,1.191a.382.382,0,0,1-.337.2.378.378,0,0,1-.183-.047L29.582,65a.384.384,0,1,1,.365-.675l.085.046A.383.383,0,0,1,30.185,64.891Zm2.152,1.044a.383.383,0,0,1-.349.225.392.392,0,0,1-.159-.034l-.087-.04a.384.384,0,0,1,.318-.7l.087.039A.383.383,0,0,1,32.337,65.935ZM34.3,66.9h-.061l-.109,0a.384.384,0,1,1,.028-.767H34.3a.384.384,0,0,1,.008.768Zm2.4-.818-.087.041a.384.384,0,1,1-.327-.694l.086-.041a.384.384,0,1,1,.328.694Zm2.148-1.114-.084.047a.375.375,0,0,1-.188.049.383.383,0,0,1-.188-.718l.083-.046a.384.384,0,1,1,.377.668Zm2.067-1.25-.082.053a.384.384,0,0,1-.416-.645l.079-.052a.384.384,0,0,1,.419.644ZM42.9,62.344l-.079.058a.384.384,0,1,1-.452-.62l.075-.056a.384.384,0,0,1,.456.618Zm1.9-1.487-.076.063a.384.384,0,0,1-.487-.593l.072-.06a.384.384,0,0,1,.491.59Zm1.811-1.591-.071.067a.384.384,0,1,1-.52-.565l.068-.064a.384.384,0,1,1,.523.562Zm1.721-1.69-.068.071a.384.384,0,0,1-.551-.535l.065-.067a.384.384,0,0,1,.554.531ZM49.959,55.8l-.063.073a.384.384,0,0,1-.58-.5l.062-.072a.384.384,0,0,1,.581.5Zm1.527-1.862-.059.075a.384.384,0,1,1-.6-.472l.058-.075a.384.384,0,1,1,.606.472Zm1.429-1.941-.055.079a.384.384,0,0,1-.63-.439l.055-.078a.384.384,0,1,1,.63.438Zm1.327-2.007-.05.08a.385.385,0,0,1-.326.18.378.378,0,0,1-.2-.058.384.384,0,0,1-.122-.529l.051-.082a.384.384,0,0,1,.65.409Zm1.228-2.071L55.423,48a.384.384,0,1,1-.669-.376l.047-.084a.384.384,0,1,1,.669.377ZM56.6,45.79l-.043.086a.384.384,0,0,1-.686-.346l.043-.085a.384.384,0,0,1,.686.345Zm1.029-2.174-.039.086a.384.384,0,1,1-.7-.312l.04-.088a.384.384,0,1,1,.7.314ZM58.56,41.4l-.037.09a.384.384,0,0,1-.712-.286l.035-.087a.384.384,0,0,1,.714.283Zm.806-2.162a.384.384,0,0,1-.362.256.379.379,0,0,1-.128-.022.383.383,0,0,1-.234-.49l.031-.088a.384.384,0,1,1,.725.252Z" transform="translate(-0.505 -0.41)" style="fill:#FFFFFF"/><path d="M5.926,16.2a.385.385,0,0,1,.415-.286l.095.011a.381.381,0,0,1,.228.648L20.178,23.4l-.463.827a19.642,19.642,0,0,0,10.843,2.306c1.725-.882,3.014-1.906,4.961-1.729,5.4.489,1.256.27,9.819,1.506l14.6-6.76-.916-1.488L65.213,14.6a2.92,2.92,0,0,0-.422-.469,2.965,2.965,0,0,0-1.98-.759,3.054,3.054,0,0,0-.406.028,26.088,26.088,0,0,1-3.588.242c-5.691,0-14.185-1.742-22.328-10.044a2.983,2.983,0,0,0-2.117-.889h-.06a2.971,2.971,0,0,0-2.141.975,29,29,0,0,1-22.009,9.957,29.449,29.449,0,0,1-3.985-.267,2.888,2.888,0,0,0-.4-.028,2.961,2.961,0,0,0-2.564,1.477Zm53.841-.075.092,0s.378.057.378.385a.405.405,0,0,1-.349.382l-.1,0h-.012a.384.384,0,0,1-.011-.767Zm-2.36-.018.093,0a.384.384,0,0,1-.015.767h-.016l-.1,0a.384.384,0,0,1,.036-.767Zm-2.78.135a.382.382,0,0,1,.428-.333l.088.01s.376.12.32.442a.412.412,0,0,1-.406.321l-.1-.012A.383.383,0,0,1,54.627,16.243Zm-2.354-.411a.384.384,0,0,1,.452-.3l.084.017a.392.392,0,0,1,.3.472.334.334,0,0,1-.436.282l-.1-.019A.384.384,0,0,1,52.273,15.832Zm-2.317-.585a.383.383,0,0,1,.473-.266l.091.025a.384.384,0,0,1-.1.754.4.4,0,0,1-.1-.014l-.094-.026A.384.384,0,0,1,49.956,15.247Zm-2.266-.759a.384.384,0,0,1,.492-.23l.088.032a.384.384,0,0,1-.129.745.389.389,0,0,1-.129-.022l-.092-.033A.385.385,0,0,1,47.69,14.488Zm-2.2-.924A.384.384,0,0,1,46,13.372l.07.031s.362.236.222.534-.519.174-.519.174l-.088-.039A.384.384,0,0,1,45.487,13.564Zm-2.132-1.078a.383.383,0,0,1,.519-.158l.084.045a.384.384,0,0,1-.181.723.393.393,0,0,1-.18-.045l-.084-.045A.385.385,0,0,1,43.355,12.486ZM41.3,11.261a.384.384,0,0,1,.53-.12l.078.05a.383.383,0,1,1-.405.651l-.083-.052A.383.383,0,0,1,41.3,11.261ZM39.338,9.9a.384.384,0,0,1,.536-.085l.076.055a.383.383,0,0,1-.224.7A.38.38,0,0,1,39.5,10.5l-.078-.057A.384.384,0,0,1,39.338,9.9ZM37.461,8.425A.383.383,0,0,1,38,8.372l.073.059a.384.384,0,0,1-.485.6l-.075-.062A.384.384,0,0,1,37.461,8.425ZM35.677,6.837a.383.383,0,0,1,.542-.02l.069.063a.384.384,0,1,1-.52.565L35.7,7.379A.383.383,0,0,1,35.677,6.837ZM33.94,5.452,34,5.381a.384.384,0,1,1,.568.516l-.064.071a.384.384,0,1,1-.568-.516Zm-1.646,1.7.068-.066a.384.384,0,0,1,.535.551l-.069.067a.384.384,0,1,1-.534-.552ZM30.542,8.732l.071-.06a.383.383,0,1,1,.5.585l-.074.063a.38.38,0,0,1-.247.09.384.384,0,0,1-.246-.678Zm-1.86,1.457.076-.055a.383.383,0,0,1,.454.618l-.079.058a.384.384,0,1,1-.451-.621ZM26.723,11.5l.08-.049a.384.384,0,0,1,.406.652l-.083.051a.379.379,0,0,1-.2.057.384.384,0,0,1-.2-.711Zm-2.052,1.165.082-.043a.384.384,0,0,1,.357.68l-.087.045a.383.383,0,0,1-.517-.165A.383.383,0,0,1,24.671,12.669Zm-2.136,1,.086-.037a.384.384,0,0,1,.3.706l-.09.038a.379.379,0,0,1-.149.031.384.384,0,0,1-.15-.738Zm-2.207.836.089-.03a.384.384,0,0,1,.248.727l-.093.031a.367.367,0,0,1-.122.02.384.384,0,0,1-.122-.748Zm-2.266.664.093-.024a.384.384,0,1,1,.189.744l-.092.024a.393.393,0,0,1-.095.012.384.384,0,0,1-.095-.756Zm-2.308.49.092-.016a.384.384,0,0,1,.136.756l-.1.017a.489.489,0,0,1-.066,0,.384.384,0,0,1-.065-.762Zm-2.34.319.1-.01a.384.384,0,0,1,.076.764l-.1.01h-.039a.383.383,0,0,1-.037-.765Zm-2.359.148.1,0a.378.378,0,0,1,.395.372.384.384,0,0,1-.372.395l-.1,0h-.011a.384.384,0,0,1-.012-.767ZM8.7,16.108l.091,0s.419.047.384.415a.39.39,0,0,1-.413.352l-.1,0a.384.384,0,0,1,.036-.767Z" transform="translate(-0.505 -0.41)" style="fill:#FFFFFF"/><path d="M16.246,24.71a.888.888,0,1,0-.887.887A.887.887,0,0,0,16.246,24.71Z" transform="translate(-0.505 -0.41)" style="fill:#00b7a8"/></svg>
