<svg id="Layer_1" data-name="Layer 1" xmlns="http://www.w3.org/2000/svg" viewBox="0 0 71.268 56.512"><title>icon-development</title><rect x="0.049" y="51.573" width="13.682" height="1.258" style="fill:#FFFFFF"/><line x1="25.526" y1="47.287" x2="48.558" y2="47.287" style="fill:#FFFFFF;stroke:#00b7a8;stroke-miterlimit:10;stroke-width:0.7547900734930428px"/><line x1="25.526" y1="49.745" x2="48.558" y2="49.745" style="fill:#FFFFFF;stroke:#00b7a8;stroke-miterlimit:10;stroke-width:0.7547900734930428px"/><line x1="25.526" y1="52.202" x2="39.208" y2="52.202" style="fill:#FFFFFF;stroke:#00b7a8;stroke-miterlimit:10;stroke-width:0.7547900734930428px"/><rect x="50.844" y="50.642" width="12.94" height="5.87" style="fill:#FFFFFF"/><rect x="64.624" y="29.926" width="6.644" height="0.755" style="fill:#FFFFFF"/><rect x="64.624" y="31.155" width="6.644" height="0.755" style="fill:#FFFFFF"/><rect x="64.624" y="32.383" width="3.947" height="0.755" style="fill:#FFFFFF"/><rect x="64.624" y="36.865" width="6.644" height="0.755" style="fill:#FFFFFF"/><rect x="64.624" y="38.094" width="6.644" height="0.755" style="fill:#FFFFFF"/><rect x="64.624" y="39.322" width="3.947" height="0.755" style="fill:#FFFFFF"/><rect x="64.624" y="43.804" width="6.644" height="0.755" style="fill:#FFFFFF"/><rect x="64.624" y="45.032" width="6.644" height="0.755" style="fill:#FFFFFF"/><rect x="64.624" y="46.261" width="3.947" height="0.755" style="fill:#FFFFFF"/><rect x="64.624" y="50.742" width="6.644" height="0.755" style="fill:#FFFFFF"/><rect x="64.624" y="51.971" width="6.644" height="0.755" style="fill:#FFFFFF"/><rect x="64.624" y="53.2" width="3.947" height="0.755" style="fill:#FFFFFF"/><path d="M.374-.031V5.06H71.642V-.031Zm2.755,3.8A1.258,1.258,0,1,1,4.386,2.515,1.257,1.257,0,0,1,3.129,3.772Zm3.935,0A1.258,1.258,0,1,1,8.322,2.515,1.257,1.257,0,0,1,7.064,3.772Zm3.936,0a1.258,1.258,0,1,1,1.257-1.257A1.257,1.257,0,0,1,11,3.772Zm58.673,0H34.686V1.257H69.673Z" transform="translate(-0.374 0.031)" style="fill:#FFFFFF"/><path d="M34.686,8.988A23.313,23.313,0,1,0,58,32.3,23.312,23.312,0,0,0,34.686,8.988ZM27.113,39.181l-1.245,1.245L17.742,32.3l8.126-8.126,1.245,1.246L20.232,32.3Zm5.431,6.327-1.7-.451,6.886-25.965,1.7.452Zm10.961-5.082L42.26,39.181,49.14,32.3l-6.88-6.88,1.245-1.246L51.631,32.3Z" transform="translate(-0.374 0.031)" style="fill:#FFFFFF"/><path d="M.422,7.456V26.647h10.74a24.195,24.195,0,0,1,47.049,0H71.593V7.456Z" transform="translate(-0.374 0.031)" style="fill:#FFFFFF"/><path d="M10.493,32.3a24.4,24.4,0,0,1,.129-2.5H.422V44.267H13.666A24.044,24.044,0,0,1,10.493,32.3Z" transform="translate(-0.374 0.031)" style="fill:#FFFFFF"/><path d="M15.2,46.628H.422v1.258H16.2Q15.68,47.274,15.2,46.628Z" transform="translate(-0.374 0.031)" style="fill:#FFFFFF"/><path d="M17.28,49.085H.422v1.258H18.588Q17.912,49.738,17.28,49.085Z" transform="translate(-0.374 0.031)" style="fill:#FFFFFF"/><path d="M58.75,29.8a24.147,24.147,0,0,1-.106,5.87h5.514V29.8Z" transform="translate(-0.374 0.031)" style="fill:#FFFFFF"/><path d="M58.471,36.734a23.974,23.974,0,0,1-1.9,5.87h7.586v-5.87Z" transform="translate(-0.374 0.031)" style="fill:#FFFFFF"/><path d="M56.034,43.673a24.309,24.309,0,0,1-4.395,5.87H64.158v-5.87Z" transform="translate(-0.374 0.031)" style="fill:#FFFFFF"/></svg>
