<svg id="Layer_1" data-name="Layer 1" xmlns="http://www.w3.org/2000/svg" viewBox="0 0 69.915 71.012"><title>icon-tenacity</title><path d="M44.32,46.4A16.814,16.814,0,0,1,29.837,60.879v4.613a21.394,21.394,0,0,0,19.1-19.1Z" transform="translate(-0.364 -0.494)" style="fill:#16b1a9"/><path d="M25.474,60.879A16.813,16.813,0,0,1,10.991,46.4H6.378a21.394,21.394,0,0,0,19.1,19.1Z" transform="translate(-0.364 -0.494)" style="fill:#16b1a9"/><path d="M10.991,42.033A16.814,16.814,0,0,1,25.474,27.55V22.937a21.394,21.394,0,0,0-19.1,19.1Z" transform="translate(-0.364 -0.494)" style="fill:#16b1a9"/><path d="M35.767,24.424a21.272,21.272,0,0,0-5.93-1.487V27.55a16.715,16.715,0,0,1,3.938,1.011Z" transform="translate(-0.364 -0.494)" style="fill:#16b1a9"/><path d="M38.862,26l-2,4.154A16.8,16.8,0,0,1,44.32,42.033h4.613A21.377,21.377,0,0,0,38.862,26Z" transform="translate(-0.364 -0.494)" style="fill:#16b1a9"/><path d="M35.849,32.258l-.329.684a13.751,13.751,0,0,1,5.845,10.209H38.913a11.292,11.292,0,0,0-4.468-7.976l-1.262,2.618a8.453,8.453,0,0,1,2.944,6.188H34.579v.366H36.13a8.475,8.475,0,0,1-8.292,8.341v-1.6h-.366v1.6a8.474,8.474,0,0,1-8.291-8.341h1.551v-.366H19.184a8.473,8.473,0,0,1,8.288-8.239v1.5h.366v-1.5a8.478,8.478,0,0,1,2.3.369l1.24-2.573a11.233,11.233,0,0,0-2.659-.581V30.505a13.681,13.681,0,0,1,3.724.821l.325-.676a14.444,14.444,0,0,0-4.049-.892V16.923H26.592V29.758A14.5,14.5,0,0,0,13.2,43.151H.364v2.127H13.2A14.5,14.5,0,0,0,26.592,58.671V71.506h2.127V58.671A14.5,14.5,0,0,0,42.112,45.278H54.947V43.151H42.112A14.479,14.479,0,0,0,35.849,32.258Zm-9.257-1.753v2.452A11.309,11.309,0,0,0,16.4,43.151H13.946A13.771,13.771,0,0,1,26.592,30.505Zm0,27.419A13.771,13.771,0,0,1,13.946,45.278H16.4A11.307,11.307,0,0,0,26.592,55.472Zm2.127,0V55.472A11.309,11.309,0,0,0,38.913,45.278h2.452A13.771,13.771,0,0,1,28.719,57.924Z" transform="translate(-0.364 -0.494)" style="fill:#16b1a9"/><path d="M51.922,17.156l.055.064,2.113-4.389-.055-.064a11.176,11.176,0,0,0-3.475-2.641c-.157-.074-.315-.143-.473-.209L47.978,14.3c.119.053.238.108.356.165A11.218,11.218,0,0,1,51.922,17.156Z" transform="translate(-0.364 -0.494)" style="fill:#16b1a9"/><path d="M57.816,16.32,55.7,20.709A20.5,20.5,0,0,0,60.008,23l2.114-4.389A20.441,20.441,0,0,1,57.816,16.32Z" transform="translate(-0.364 -0.494)" style="fill:#16b1a9"/><path d="M69.219,14.481A15.57,15.57,0,0,1,66.9,14.14a17.949,17.949,0,0,1-2.368-.7,18.957,18.957,0,0,1-2.158-.957,18.657,18.657,0,0,1-2.008-1.209,17.062,17.062,0,0,1-1.664-1.306A14.755,14.755,0,0,1,57.3,8.538c-.078-.092-.149-.18-.221-.268-.1-.121-.2-.242-.293-.353L56.774,7.9v0A11.011,11.011,0,0,0,55.1,6.355a12.035,12.035,0,0,0-2-1.213c-.077-.037-.18-.085-.308-.142l-.311-.138a11.734,11.734,0,0,0-2.7-.76,10.793,10.793,0,0,0-1.438-.123l.269-.559a1.464,1.464,0,1,0-1.3-.624l-.621,1.289h0L40.964,15.977l-11.943,24.8h0l-3.3,6.847a.7.7,0,0,0-.041.113,4.022,4.022,0,0,0,1.357.469l3.352-6.961h0l8.872-18.423h.067A9.583,9.583,0,0,1,41.144,23a10.8,10.8,0,0,1,2.318.732l.167.073.167.081A10.91,10.91,0,0,1,45.635,25a9.956,9.956,0,0,1,1.517,1.406c.017.019.034.038.05.058.078.092.15.18.221.268.084.1.169.208.252.3a16.778,16.778,0,0,0,1.562,1.6,19.143,19.143,0,0,0,1.829,1.444,20.771,20.771,0,0,0,2.15,1.311,21.3,21.3,0,0,0,2.306,1.056,20.561,20.561,0,0,0,2.519.795,18.117,18.117,0,0,0,2.506.431l.5.049,9.23-19.167Zm-5.127,9.6A18.981,18.981,0,0,1,60.008,23L57.9,27.385a18.973,18.973,0,0,0,4.083,1.089l-1.786,3.709a16.952,16.952,0,0,1-1.812-.343,18.882,18.882,0,0,1-2.286-.716l1.8-3.739A20.534,20.534,0,0,1,53.589,25.1l-1.8,3.732A17.565,17.565,0,0,1,50.2,27.563a15.2,15.2,0,0,1-1.429-1.458c-.082-.1-.157-.188-.231-.281s-.163-.2-.242-.293l-.06-.07c-.049-.056-.1-.111-.149-.167l1.775-3.685-.055-.064A11.193,11.193,0,0,0,46.333,18.9c-.157-.073-.315-.143-.473-.208l-1.8,3.73-.023-.011a12.219,12.219,0,0,0-2.625-.825,11.088,11.088,0,0,0-1.469-.185l1.774-3.685a11.116,11.116,0,0,1,4.144.965L47.978,14.3a11.086,11.086,0,0,0-4.143-.964l2.113-4.389a11.078,11.078,0,0,1,4.144.965l1.8-3.728.037.015.28.118c.065.029.155.071.27.127a10.545,10.545,0,0,1,1.762,1.07,9.541,9.541,0,0,1,1.458,1.342v0l.01.011c.066.076.128.151.188.224l-1.8,3.742c.161.189.311.384.473.574a17.269,17.269,0,0,0,3.253,2.915l1.83-3.8a20.019,20.019,0,0,0,2.072,1.236,20.508,20.508,0,0,0,2.255,1.006l-1.851,3.844a18.912,18.912,0,0,0,4.084,1.09Z" transform="translate(-0.364 -0.494)" style="fill:#16b1a9"/><path d="M52.449,17.793c-.161-.189-.312-.384-.472-.573l-2.114,4.389c.161.189.311.384.473.573A17.274,17.274,0,0,0,53.589,25.1L55.7,20.709A17.249,17.249,0,0,1,52.449,17.793Z" transform="translate(-0.364 -0.494)" style="fill:#16b1a9"/><path d="M27.655,40.175a4.037,4.037,0,0,0-2.813,6.934l3.323-6.9A4.083,4.083,0,0,0,27.655,40.175Z" transform="translate(-0.364 -0.494)" style="fill:#16b1a9"/><path d="M28.161,48.221A4.036,4.036,0,0,0,31.1,42.112Z" transform="translate(-0.364 -0.494)" style="fill:#16b1a9"/></svg>