<svg id="Layer_1" data-name="Layer 1" xmlns="http://www.w3.org/2000/svg" viewBox="0 0 1010.617 147.141" style=""><title>MDEV_HEADER_humanize</title><path d="M129.59,151.4H95.508V92.025H45.02V151.4H10.742V9.212H45.02V65.658H95.508V9.212H129.59Z" transform="translate(-9.242 -7.712)" style="fill:none;stroke:#16b1a9;stroke-miterlimit:10;stroke-width:3px" class="dyySUXnA_0"></path><path d="M262.793,9.212v93.067q0,15.82-6.738,27.392A43.654,43.654,0,0,1,236.719,147.3q-12.6,6.057-29.785,6.055-25.978,0-40.918-13.476t-15.235-36.915V9.212h34.473v94.434q.587,23.341,21.68,23.34,10.643,0,16.113-5.859t5.469-19.043V9.212Z" transform="translate(-9.242 -7.712)" style="fill:none;stroke:#16b1a9;stroke-miterlimit:10;stroke-width:3px" class="dyySUXnA_1"></path><path d="M329.2,9.212l31.739,98.926,31.64-98.926H437.7V151.4H403.32V118.2l3.321-67.969L372.266,151.4H349.609L315.137,50.13l3.32,68.067v33.2H284.18V9.212Z" transform="translate(-9.242 -7.712)" style="fill:none;stroke:#16b1a9;stroke-miterlimit:10;stroke-width:3px" class="dyySUXnA_2"></path><path d="M541.992,124.837H495.02l-8.2,26.563H450.2L502.344,9.212H534.57L587.109,151.4H550.293ZM503.223,98.373h30.566L518.457,49.056Z" transform="translate(-9.242 -7.712)" style="fill:none;stroke:#16b1a9;stroke-miterlimit:10;stroke-width:3px" class="dyySUXnA_3"></path><path d="M716.211,151.4H682.129L631.738,62.923V151.4H597.461V9.212h34.277l50.293,88.477V9.212h34.18Z" transform="translate(-9.242 -7.712)" style="fill:none;stroke:#16b1a9;stroke-miterlimit:10;stroke-width:3px" class="dyySUXnA_4"></path><path d="M774.414,151.4h-34.18V9.212h34.18Z" transform="translate(-9.242 -7.712)" style="fill:none;stroke:#16b1a9;stroke-miterlimit:10;stroke-width:3px" class="dyySUXnA_5"></path><path d="M836.719,125.033h67.969V151.4H793.945V133.334l67.774-97.657H793.555V9.212H904V26.791Z" transform="translate(-9.242 -7.712)" style="fill:none;stroke:#16b1a9;stroke-miterlimit:10;stroke-width:3px" class="dyySUXnA_6"></path><path d="M1008.4,91.048H954.492v33.985h63.672V151.4H920.215V9.212h98.144V35.677H954.492V65.658H1008.4Z" transform="translate(-9.242 -7.712)" style="fill:none;stroke:#16b1a9;stroke-miterlimit:10;stroke-width:3px" class="dyySUXnA_7"></path><style data-made-with="vivus-instant">.dyySUXnA_0{stroke-dasharray:754 756;stroke-dashoffset:755;animation:dyySUXnA_draw 1866ms ease-in-out 0ms forwards;}.dyySUXnA_1{stroke-dasharray:689 691;stroke-dashoffset:690;animation:dyySUXnA_draw 1866ms ease-in-out 133ms forwards;}.dyySUXnA_2{stroke-dasharray:1091 1093;stroke-dashoffset:1092;animation:dyySUXnA_draw 1866ms ease-in-out 266ms forwards;}.dyySUXnA_3{stroke-dasharray:646 648;stroke-dashoffset:647;animation:dyySUXnA_draw 1866ms ease-in-out 400ms forwards;}.dyySUXnA_4{stroke-dasharray:802 804;stroke-dashoffset:803;animation:dyySUXnA_draw 1866ms ease-in-out 533ms forwards;}.dyySUXnA_5{stroke-dasharray:353 355;stroke-dashoffset:354;animation:dyySUXnA_draw 1866ms ease-in-out 666ms forwards;}.dyySUXnA_6{stroke-dasharray:684 686;stroke-dashoffset:685;animation:dyySUXnA_draw 1866ms ease-in-out 800ms forwards;}.dyySUXnA_7{stroke-dasharray:716 718;stroke-dashoffset:717;animation:dyySUXnA_draw 1866ms ease-in-out 933ms forwards;}@keyframes dyySUXnA_draw{100%{stroke-dashoffset:0;}}@keyframes dyySUXnA_fade{0%{stroke-opacity:1;}94.28571428571429%{stroke-opacity:1;}100%{stroke-opacity:0;}}</style></svg>