<?xml version="1.0" encoding="utf-8"?>
<!-- Generator: Adobe Illustrator 23.0.2, SVG Export Plug-In . SVG Version: 6.00 Build 0)  -->
<svg version="1.1" id="Layer_1" xmlns="http://www.w3.org/2000/svg" xmlns:xlink="http://www.w3.org/1999/xlink" x="0px" y="0px"
	 viewBox="0 0 412.4 151.3" style="enable-background:new 0 0 412.4 151.3;" xml:space="preserve">
<style type="text/css">
	.st0{fill:none;stroke:#16B1A9;stroke-width:3;}
</style>
<g>
	<path class="st0" d="M122.9,93.8l16.3-89.2h34L143,146.8h-35.5l-19-81.1l-18.7,81.1H34.3L4.1,4.6h34.1l16.2,89.2L74,4.6h29.1
		L122.9,93.8z"/>
	<path class="st0" d="M274.8,86.4h-53.9v34h63.7v26.4h-97.9V4.6h98.1v26.5h-63.9v30h53.9L274.8,86.4L274.8,86.4z"/>
	<path class="st0" d="M298.5,146.8V4.6h51.1c18.3,0,32.2,3.4,41.7,10.1s14.3,16.4,14.3,29.2c0,7.4-1.7,13.6-5.1,18.8
		s-8.4,9-14.9,11.5c7.4,2,13.1,5.6,17.1,10.9s6,11.9,6,19.5c0,13.9-4.4,24.4-13.2,31.4c-8.8,7-21.9,10.6-39.2,10.7h-57.8V146.8z
		 M332.8,63.9h17.9c7.5-0.1,12.8-1.4,16-4.1s4.8-6.6,4.8-11.9c0-6-1.7-10.3-5.2-13c-3.5-2.6-9-4-16.7-4h-16.8L332.8,63.9L332.8,63.9
		z M332.8,86.4v34.1h22.5c6.2,0,10.9-1.4,14.3-4.2s5-6.8,5-12c0-11.8-5.9-17.8-17.7-17.9H332.8z"/>
</g>
</svg>
