<?xml version="1.0" encoding="utf-8"?>
<!-- Generator: Adobe Illustrator 22.1.0, SVG Export Plug-In . SVG Version: 6.00 Build 0)  -->
<svg version="1.1" id="Layer_1" xmlns="http://www.w3.org/2000/svg" xmlns:xlink="http://www.w3.org/1999/xlink" x="0px" y="0px"
	 viewBox="0 0 174 102" style="enable-background:new 0 0 174 102;" xml:space="preserve">
<style type="text/css">
	.st0{fill:#16B1A9;}
</style>
<rect x="338.3" y="-18.3" style="fill:none;" width="267.7" height="26.3"/>
<text transform="matrix(1 0 0 1 338.333 -9.8135)" style="font-family:'MyriadPro-Regular'; font-size:12px;">roboto black, 200pt, 3pt stroke</text>
<g>
	<path class="st0" d="M38.3,19v13.1H47v11.4h-8.7v24.2c0,2,0.4,3.4,1.1,4.2c0.7,0.8,2.1,1.2,4.2,1.2c1.6,0,3-0.1,4.1-0.3v11.8
		c-3,0.9-6.1,1.4-9.3,1.4c-5.7,0-9.8-1.3-12.5-4c-2.7-2.7-4.1-6.7-4.1-12.2V43.6h-6.7V32.2h6.7V19H38.3z"/>
	<path class="st0" d="M69.5,37.8c3.5-4.4,8-6.6,13.5-6.6c5.8,0,10.2,1.7,13.2,5.2c3,3.5,4.5,8.5,4.5,15.3V85H84.2V52
		c0-2.8-0.6-4.9-1.7-6.2c-1.1-1.3-3.1-2-5.8-2c-3.4,0-5.8,1.1-7.2,3.2V85H53.1V10h16.5V37.8z"/>
	<path class="st0" d="M135.4,86c-8.1,0-14.7-2.4-19.7-7.3c-5-4.8-7.5-11.1-7.5-18.9v-1.4c0-5.4,1-10.2,3-14.3c2-4.1,4.9-7.3,8.8-9.6
		c3.8-2.3,8.4-3.4,13.7-3.4c7.4,0,13.3,2.3,17.6,6.9c4.3,4.6,6.4,11,6.4,19.3v6.4H125c0.6,3,1.9,5.3,3.9,7c2,1.7,4.6,2.5,7.7,2.5
		c5.2,0,9.3-1.8,12.2-5.5l7.5,8.9c-2.1,2.8-5,5.1-8.7,6.8S139.8,86,135.4,86z M133.6,43.9c-4.8,0-7.7,3.2-8.6,9.6h16.6v-1.3
		c0.1-2.6-0.6-4.7-2-6.1C138.2,44.6,136.2,43.9,133.6,43.9z"/>
</g>
</svg>
