<!--?xml version="1.0" encoding="utf-8"?-->
<!-- Generator: Adobe Illustrator 22.1.0, SVG Export Plug-In . SVG Version: 6.00 Build 0)  -->
<svg version="1.1" id="Layer_1" xmlns="http://www.w3.org/2000/svg" xmlns:xlink="http://www.w3.org/1999/xlink" x="0px" y="0px" viewBox="0 0 477 185" style="" xml:space="preserve">
<style type="text/css">
	.st0{fill:none;stroke:#16B1A9;stroke-width:3;}
</style>
<g>
	<path class="st0 xWOKNfFZ_0" d="M149.9,112l16.3-89.2h34L170,165h-35.5l-19-81.1L96.8,165H61.3L31.1,22.8h34.1L81.4,112L101,22.8h29.1
		L149.9,112z"></path>
	<path class="st0 xWOKNfFZ_1" d="M301.8,104.6h-53.9v34h63.7V165h-97.9V22.8h98.1v26.5h-63.9v30h53.9V104.6z"></path>
	<path class="st0 xWOKNfFZ_2" d="M325.5,165V22.8h51.1c18.3,0,32.2,3.4,41.7,10.1c9.5,6.7,14.3,16.4,14.3,29.2c0,7.4-1.7,13.6-5.1,18.8
		c-3.4,5.2-8.4,9-14.9,11.5c7.4,2,13.1,5.6,17.1,10.9c4,5.3,6,11.9,6,19.5c0,13.9-4.4,24.4-13.2,31.4c-8.8,7-21.9,10.6-39.2,10.7
		H325.5z M359.8,82.1h17.9c7.5-0.1,12.8-1.4,16-4.1c3.2-2.7,4.8-6.6,4.8-11.9c0-6-1.7-10.3-5.2-13c-3.5-2.6-9-4-16.7-4h-16.8V82.1z
		 M359.8,104.6v34.1h22.5c6.2,0,10.9-1.4,14.3-4.2s5-6.8,5-12c0-11.8-5.9-17.8-17.7-17.9H359.8z"></path>
</g>
<style data-made-with="vivus-instant">.xWOKNfFZ_0{stroke-dasharray:990 992;stroke-dashoffset:991;animation:xWOKNfFZ_draw 1866ms ease-in-out 0ms forwards;}.xWOKNfFZ_1{stroke-dasharray:716 718;stroke-dashoffset:717;animation:xWOKNfFZ_draw 1866ms ease-in-out 466ms forwards;}.xWOKNfFZ_2{stroke-dasharray:754 756;stroke-dashoffset:755;animation:xWOKNfFZ_draw 1866ms ease-in-out 933ms forwards;}@keyframes xWOKNfFZ_draw{100%{stroke-dashoffset:0;}}@keyframes xWOKNfFZ_fade{0%{stroke-opacity:1;}94.28571428571429%{stroke-opacity:1;}100%{stroke-opacity:0;}}</style></svg>
