<?xml version="1.0" encoding="utf-8"?>
<!-- Generator: Adobe Illustrator 23.0.2, SVG Export Plug-In . SVG Version: 6.00 Build 0)  -->
<svg version="1.1" id="Layer_1" xmlns="http://www.w3.org/2000/svg" xmlns:xlink="http://www.w3.org/1999/xlink" x="0px" y="0px"
	 viewBox="0 0 144.9 78.3" style="enable-background:new 0 0 144.9 78.3;" xml:space="preserve">
<style type="text/css">
	.st0{fill:#16B1A9;}
</style>
<g>
	<path class="st0" d="M24.5,10.3v13.1h8.7v11.4h-8.7V59c0,2,0.4,3.4,1.1,4.2c0.7,0.8,2.1,1.2,4.2,1.2c1.6,0,3-0.1,4.1-0.3v11.8
		c-3,0.9-6.1,1.4-9.3,1.4c-5.7,0-9.8-1.3-12.5-4S8,66.6,8,61.1V34.9H1.3V23.5H8V10.3H24.5z"/>
	<path class="st0" d="M55.7,29.1c3.5-4.4,8-6.6,13.5-6.6c5.8,0,10.2,1.7,13.2,5.2s4.5,8.5,4.5,15.3v33.3H70.4v-33
		c0-2.8-0.6-4.9-1.7-6.2s-3.1-2-5.8-2c-3.4,0-5.8,1.1-7.2,3.2v38H39.3v-75h16.5L55.7,29.1L55.7,29.1z"/>
	<path class="st0" d="M121.6,77.3c-8.1,0-14.7-2.4-19.7-7.3c-5-4.8-7.5-11.1-7.5-18.9v-1.4c0-5.4,1-10.2,3-14.3s4.9-7.3,8.8-9.6
		c3.8-2.3,8.4-3.4,13.7-3.4c7.4,0,13.3,2.3,17.6,6.9s6.4,11,6.4,19.3V55h-32.7c0.6,3,1.9,5.3,3.9,7c2,1.7,4.6,2.5,7.7,2.5
		c5.2,0,9.3-1.8,12.2-5.5l7.5,8.9c-2.1,2.8-5,5.1-8.7,6.8S126,77.3,121.6,77.3z M119.8,35.2c-4.8,0-7.7,3.2-8.6,9.6h16.6v-1.3
		c0.1-2.6-0.6-4.7-2-6.1C124.4,35.9,122.4,35.2,119.8,35.2z"/>
</g>
</svg>
