<?xml version="1.0" encoding="utf-8"?>
<!-- Generator: Adobe Illustrator 23.0.2, SVG Export Plug-In . SVG Version: 6.00 Build 0)  -->
<svg version="1.1" id="Layer_1" xmlns="http://www.w3.org/2000/svg" xmlns:xlink="http://www.w3.org/1999/xlink" x="0px" y="0px"
	 viewBox="0 0 958.4 150.6" style="enable-background:new 0 0 958.4 150.6;" xml:space="preserve">
<style type="text/css">
	.st0{fill:none;stroke:#16B1A9;stroke-width:3;}
</style>
<g>
	<path class="st0" d="M39.1,146.2H4.9V4h34.2V146.2z"/>
	<path class="st0" d="M183.6,146.2h-34.1L99.1,57.7v88.5H64.9V4h34.3l50.3,88.5V4h34.2L183.6,146.2L183.6,146.2z"/>
	<path class="st0" d="M327.2,146.2h-34.1l-50.4-88.5v88.5h-34.3V4h34.3L293,92.5V4h34.2V146.2z"/>
	<path class="st0" d="M471.4,78c0,13.9-2.6,26.1-7.7,36.8s-12.5,18.9-21.9,24.7s-20.3,8.6-32.4,8.6s-22.9-2.8-32.2-8.3
		s-16.7-13.5-21.9-23.9c-5.2-10.4-8-22.2-8.3-35.6v-8c0-13.9,2.6-26.2,7.7-36.9c5.1-10.6,12.4-18.9,22-24.7
		c9.5-5.8,20.4-8.7,32.6-8.7c12,0,22.8,2.9,32.2,8.6c9.4,5.7,16.8,13.9,22,24.5s7.9,22.7,8,36.4V78H471.4z M436.5,72.1
		c0-14.1-2.4-24.9-7.1-32.2s-11.5-11-20.3-11c-17.2,0-26.3,12.9-27.2,38.7L381.8,78c0,13.9,2.3,24.6,6.9,32.1
		c4.6,7.5,11.5,11.2,20.6,11.2c8.7,0,15.3-3.7,20-11c4.7-7.4,7.1-17.9,7.1-31.7v-6.5H436.5z"/>
	<path class="st0" d="M539.8,107.5L568.1,4h38.3l-47.9,142.2H521L473.6,4h38L539.8,107.5z"/>
	<path class="st0" d="M682.5,119.6h-47l-8.2,26.6h-36.6L642.8,4H675l52.6,142.2h-36.8L682.5,119.6z M643.7,93.2h30.6L659,43.9
		L643.7,93.2z"/>
	<path class="st0" d="M837.4,30.5h-42.7v115.7h-34.3V30.5h-41.9V4h118.8v26.5H837.4z"/>
	<path class="st0" d="M944.2,85.8h-53.9v34H954v26.4h-97.9V4h98.1v26.5h-63.9v30h53.9L944.2,85.8L944.2,85.8z"/>
</g>
</svg>
