<?xml version="1.0" encoding="utf-8"?>
<!-- Generator: Adobe Illustrator 22.1.0, SVG Export Plug-In . SVG Version: 6.00 Build 0)  -->
<svg version="1.1" id="Layer_1" xmlns="http://www.w3.org/2000/svg" xmlns:xlink="http://www.w3.org/1999/xlink" x="0px" y="0px"
	 viewBox="0 0 667 139" style="enable-background:new 0 0 667 139;" xml:space="preserve">
<style type="text/css">
	.st0{fill:none;stroke:#16B1A9;stroke-width:3;}
</style>
<g>
	<path class="st0" d="M55.8,89.8V126H30.1V19.4h42.6c8.2,0,15.4,1.5,21.6,4.5c6.3,3,11.1,7.3,14.6,12.8c3.4,5.5,5.2,11.8,5.2,18.9
		c0,10.4-3.7,18.7-11.2,24.9c-7.4,6.2-17.7,9.3-30.7,9.3H55.8z M55.8,70h16.8c5,0,8.8-1.2,11.4-3.7c2.6-2.5,3.9-6,3.9-10.5
		c0-5-1.3-9-4-11.9c-2.7-3-6.3-4.5-11-4.5H55.8V70z"/>
	<path class="st0" d="M179.1,106.1h-35.2l-6.2,19.9h-27.5l39.1-106.6h24.2L213,126h-27.6L179.1,106.1z M150,86.2H173l-11.5-37
		L150,86.2z"/>
	<path class="st0" d="M274.4,97.7c0-3.8-1.3-6.7-4-8.8c-2.7-2.1-7.3-4.3-14-6.5c-6.7-2.2-12.2-4.4-16.4-6.5
		c-13.8-6.8-20.7-16.1-20.7-28c0-5.9,1.7-11.1,5.2-15.6c3.4-4.5,8.3-8,14.6-10.5c6.3-2.5,13.4-3.8,21.2-3.8c7.7,0,14.5,1.4,20.6,4.1
		c6.1,2.7,10.8,6.6,14.2,11.7s5.1,10.8,5.1,17.3h-25.6c0-4.3-1.3-7.7-4-10.1c-2.7-2.4-6.3-3.6-10.8-3.6c-4.6,0-8.2,1-10.9,3
		c-2.7,2-4,4.6-4,7.7c0,2.7,1.5,5.2,4.4,7.4c2.9,2.2,8.1,4.5,15.5,6.9c7.4,2.4,13.4,4.9,18.2,7.7c11.5,6.6,17.3,15.8,17.3,27.5
		c0,9.3-3.5,16.7-10.5,22c-7,5.3-16.7,8-28.9,8c-8.6,0-16.5-1.5-23.5-4.7c-7-3.1-12.3-7.3-15.8-12.7c-3.5-5.4-5.3-11.6-5.3-18.6
		h25.8c0,5.7,1.5,9.9,4.4,12.6c3,2.7,7.8,4.1,14.4,4.1c4.2,0,7.6-0.9,10.1-2.7C273.2,103.6,274.4,101,274.4,97.7z"/>
	<path class="st0" d="M369,97.7c0-3.8-1.3-6.7-4-8.8c-2.7-2.1-7.3-4.3-14-6.5c-6.7-2.2-12.2-4.4-16.4-6.5
		c-13.8-6.8-20.7-16.1-20.7-28c0-5.9,1.7-11.1,5.2-15.6c3.4-4.5,8.3-8,14.6-10.5c6.3-2.5,13.4-3.8,21.2-3.8c7.7,0,14.5,1.4,20.6,4.1
		c6.1,2.7,10.8,6.6,14.2,11.7s5.1,10.8,5.1,17.3h-25.6c0-4.3-1.3-7.7-4-10.1c-2.7-2.4-6.3-3.6-10.8-3.6c-4.6,0-8.2,1-10.9,3
		c-2.7,2-4,4.6-4,7.7c0,2.7,1.5,5.2,4.4,7.4c2.9,2.2,8.1,4.5,15.5,6.9c7.4,2.4,13.4,4.9,18.2,7.7c11.5,6.6,17.3,15.8,17.3,27.5
		c0,9.3-3.5,16.7-10.5,22c-7,5.3-16.7,8-28.9,8c-8.6,0-16.5-1.5-23.5-4.7c-7-3.1-12.3-7.3-15.8-12.7c-3.5-5.4-5.3-11.6-5.3-18.6
		h25.8c0,5.7,1.5,9.9,4.4,12.6c3,2.7,7.8,4.1,14.4,4.1c4.2,0,7.6-0.9,10.1-2.7C367.7,103.6,369,101,369,97.7z"/>
	<path class="st0" d="M436.3,126h-25.6V19.4h25.6V126z"/>
	<path class="st0" d="M545.2,74.9c0,10.4-1.9,19.6-5.8,27.6c-3.9,8-9.3,14.2-16.4,18.5c-7.1,4.3-15.2,6.5-24.3,6.5
		s-17.1-2.1-24.2-6.3s-12.5-10.1-16.4-17.9s-6-16.7-6.2-26.7v-6c0-10.4,1.9-19.7,5.7-27.6s9.3-14.1,16.5-18.5
		c7.2-4.3,15.3-6.5,24.4-6.5c9,0,17.1,2.1,24.2,6.4c7.1,4.3,12.6,10.4,16.5,18.3c3.9,7.9,5.9,17,6,27.3V74.9z M519,70.4
		c0-10.6-1.8-18.6-5.3-24.1s-8.6-8.2-15.2-8.2c-12.9,0-19.7,9.7-20.4,29l-0.1,7.8c0,10.4,1.7,18.5,5.2,24.1
		c3.5,5.6,8.6,8.4,15.5,8.4c6.5,0,11.5-2.8,15-8.3c3.5-5.5,5.3-13.5,5.3-23.8V70.4z"/>
	<path class="st0" d="M649.1,126h-25.6l-37.8-66.4V126H560V19.4h25.7l37.7,66.4V19.4h25.6V126z"/>
</g>
</svg>
