<?xml version="1.0" encoding="utf-8"?>
<!-- Generator: Adobe Illustrator 23.0.2, SVG Export Plug-In . SVG Version: 6.00 Build 0)  -->
<svg version="1.1" id="Layer_1" xmlns="http://www.w3.org/2000/svg" xmlns:xlink="http://www.w3.org/1999/xlink" x="0px" y="0px"
	 viewBox="0 0 190 80.5" style="enable-background:new 0 0 190 80.5;" xml:space="preserve">
<style type="text/css">
	.st0{fill:none;}
	.st1{fill:#16B1A9;}
</style>
<rect x="324.7" y="-28.3" class="st0" width="267.7" height="26.3"/>
<text transform="matrix(1 0 0 1 324.6908 -19.8458)" style="font-family:'ArialMT'; font-size:12px;">roboto black, 200pt, 3pt stroke</text>
<g>
	<path class="st1" d="M51.3,56.3l5.3-31.2h15.8L60,78H46l-8.7-31.3L28.5,78H14.6L2.1,25.2h15.8l5.2,31.9l8.4-31.9H43L51.3,56.3z"/>
	<path class="st1" d="M78.2,11.5c0-2.3,0.8-4.3,2.5-5.8s3.9-2.2,6.6-2.2s4.9,0.7,6.6,2.2s2.5,3.4,2.5,5.8s-0.8,4.3-2.5,5.8
		s-3.9,2.2-6.6,2.2s-4.9-0.7-6.6-2.2C79,15.8,78.2,13.9,78.2,11.5z M95.6,78H79.1V25.2h16.5V78z"/>
	<path class="st1" d="M124.9,12v13.1h8.7v11.4h-8.7v24.2c0,2,0.4,3.4,1.1,4.2c0.7,0.8,2.1,1.2,4.2,1.2c1.6,0,3-0.1,4.1-0.3v11.8
		c-3,0.9-6.1,1.4-9.3,1.4c-5.7,0-9.8-1.3-12.5-4s-4.1-6.7-4.1-12.2V36.6h-6.7V25.2h6.7V12H124.9z"/>
	<path class="st1" d="M156.2,30.8c3.5-4.4,8-6.6,13.5-6.6c5.8,0,10.2,1.7,13.2,5.2s4.5,8.5,4.5,15.3V78h-16.5V45
		c0-2.8-0.6-4.9-1.7-6.2c-1.1-1.3-3.1-2-5.8-2c-3.4,0-5.8,1.1-7.2,3.2v38h-16.5V3h16.5V30.8z"/>
</g>
</svg>
