<svg id="Layer_1" data-name="Layer 1" xmlns="http://www.w3.org/2000/svg" viewBox="0 0 732.883 147.141"><title>MDEV_HEADER_future</title><path d="M93.116,88.529H37.843V145.17H3.565V2.982H98.683V29.447H37.843V62.162H93.116Z" transform="translate(-2.065 -1.482)" style="fill:none;stroke:#16b1a9;stroke-width:3px"/><path d="M224.464,2.982V96.049q0,15.82-6.738,27.392a43.654,43.654,0,0,1-19.336,17.627q-12.6,6.057-29.786,6.055-25.977,0-40.917-13.477T112.452,96.732V2.982h34.473V97.416q.585,23.342,21.679,23.34,10.644,0,16.114-5.86t5.469-19.042V2.982Z" transform="translate(-2.065 -1.482)" style="fill:none;stroke:#16b1a9;stroke-width:3px"/><path d="M357.472,29.447H314.8V145.17H280.519V29.447h-41.9V2.982H357.472Z" transform="translate(-2.065 -1.482)" style="fill:none;stroke:#16b1a9;stroke-width:3px"/><path d="M483.448,2.982V96.049q0,15.82-6.738,27.392a43.649,43.649,0,0,1-19.336,17.627q-12.6,6.057-29.785,6.055-25.977,0-40.918-13.477T371.437,96.732V2.982h34.472V97.416q.587,23.342,21.68,23.34,10.644,0,16.113-5.86t5.469-19.042V2.982Z" transform="translate(-2.065 -1.482)" style="fill:none;stroke:#16b1a9;stroke-width:3px"/><path d="M557.667,94.877H539.112V145.17H504.835V2.982h55.957q25.291,0,39.551,11.219t14.258,31.7q0,14.831-6.006,24.584t-18.8,15.8L619.483,143.7v1.466H582.765ZM539.112,68.51h21.68q9.765,0,14.7-5.139t4.932-14.344q0-9.2-4.981-14.439T560.792,29.35h-21.68Z" transform="translate(-2.065 -1.482)" style="fill:none;stroke:#16b1a9;stroke-width:3px"/><path d="M723.487,84.818H669.581V118.8h63.672V145.17H635.3V2.982h98.144V29.447H669.581V59.428h53.906Z" transform="translate(-2.065 -1.482)" style="fill:none;stroke:#16b1a9;stroke-width:3px"/></svg>