<!--?xml version="1.0" encoding="utf-8"?-->
<!-- Generator: Adobe Illustrator 23.0.3, SVG Export Plug-In . SVG Version: 6.00 Build 0)  -->
<svg version="1.1" id="Layer_1" xmlns="http://www.w3.org/2000/svg" xmlns:xlink="http://www.w3.org/1999/xlink" x="0px" y="0px" viewBox="0 0 732.9 147.1" style="" xml:space="preserve">
<style type="text/css">
	.st0{fill:none;stroke:#16B1A9;stroke-width:3;}
</style>
<title>MDEV_HEADER_future</title>
<path class="st0 jqlZHCjP_0" d="M91.1,87H35.8v56.6H1.5V1.5h95.1V28H35.8v32.7h55.3V87z"></path>
<path class="st0 jqlZHCjP_1" d="M222.4,1.5v93.1c0,10.5-2.2,19.7-6.7,27.4c-4.5,7.7-11.2,13.9-19.3,17.6c-8.4,4-18.3,6.1-29.8,6.1
	c-17.3,0-31-4.5-40.9-13.5c-10-9-15-21.3-15.2-36.9V1.5h34.5v94.4c0.4,15.6,7.6,23.3,21.7,23.3c7.1,0,12.5-2,16.1-5.9
	s5.5-10.3,5.5-19V1.5H222.4z"></path>
<path class="st0 jqlZHCjP_2" d="M355.4,28h-42.7v115.7h-34.3V28h-41.9V1.5h118.9V28z"></path>
<path class="st0 jqlZHCjP_3" d="M481.4,1.5v93.1c0,10.5-2.2,19.7-6.7,27.4c-4.5,7.7-11.2,13.9-19.3,17.6c-8.4,4-18.3,6.1-29.8,6.1
	c-17.3,0-31-4.5-40.9-13.5c-10-9-15-21.3-15.2-36.9V1.5h34.5v94.4c0.4,15.6,7.6,23.3,21.7,23.3c7.1,0,12.5-2,16.1-5.9
	s5.5-10.3,5.5-19V1.5H481.4z"></path>
<path class="st0 jqlZHCjP_4" d="M552.6,93.4H534v50.3h-34.3V1.5h56c16.9,0,30,3.7,39.6,11.2s14.3,18,14.3,31.7c0,9.9-2,18.1-6,24.6
	c-4,6.5-10.3,11.8-18.8,15.8l29.7,57.4v1.5h-36.7L552.6,93.4z M534,67h21.7c6.5,0,11.4-1.7,14.7-5.1c3.3-3.4,4.9-8.2,4.9-14.3
	c0-6.1-1.7-10.9-5-14.4s-8.2-5.2-14.7-5.2H534V67z"></path>
<path class="st0 jqlZHCjP_5" d="M718.4,83.3h-53.9v34h63.7v26.4h-98V1.5h98.1V28h-63.9v30h53.9V83.3z"></path>
<style data-made-with="vivus-instant">.jqlZHCjP_0{stroke-dasharray:585 587;stroke-dashoffset:586;animation:jqlZHCjP_draw 1866ms linear 0ms forwards;}.jqlZHCjP_1{stroke-dasharray:688 690;stroke-dashoffset:689;animation:jqlZHCjP_draw 1866ms linear 186ms forwards;}.jqlZHCjP_2{stroke-dasharray:523 525;stroke-dashoffset:524;animation:jqlZHCjP_draw 1866ms linear 373ms forwards;}.jqlZHCjP_3{stroke-dasharray:688 690;stroke-dashoffset:689;animation:jqlZHCjP_draw 1866ms linear 560ms forwards;}.jqlZHCjP_4{stroke-dasharray:735 737;stroke-dashoffset:736;animation:jqlZHCjP_draw 1866ms linear 746ms forwards;}.jqlZHCjP_5{stroke-dasharray:717 719;stroke-dashoffset:718;animation:jqlZHCjP_draw 1866ms linear 933ms forwards;}@keyframes jqlZHCjP_draw{100%{stroke-dashoffset:0;}}@keyframes jqlZHCjP_fade{0%{stroke-opacity:1;}94.28571428571429%{stroke-opacity:1;}100%{stroke-opacity:0;}}</style></svg>
