<!--?xml version="1.0" encoding="utf-8"?-->
<!-- Generator: Adobe Illustrator 23.0.3, SVG Export Plug-In . SVG Version: 6.00 Build 0)  -->
<svg version="1.1" id="Layer_1" xmlns="http://www.w3.org/2000/svg" xmlns:xlink="http://www.w3.org/1999/xlink" x="0px" y="0px" viewBox="0 0 531.9 147.1" style="" xml:space="preserve">
<style type="text/css">
	.st0{fill:none;stroke:#16B1A9;stroke-width:3;}
</style>
<title>MDEV_HEADER_build</title>
<path class="st0 BOhTZDVX_0" d="M1.5,143.7V1.5h51.1c18.3,0,32.2,3.4,41.7,10.1s14.3,16.4,14.3,29.2c0,7.4-1.7,13.6-5.1,18.8
	C100,65,94.7,69,88.6,71.1c7.4,2,13.1,5.6,17.1,10.9c4,5.3,6,11.8,6,19.5c0,13.9-4.4,24.4-13.2,31.4s-21.9,10.6-39.2,10.7H1.5z
	 M35.8,60.8h17.9c7.5-0.1,12.8-1.4,16-4.1c3.2-2.7,4.8-6.6,4.8-11.9c0-6-1.7-10.3-5.2-13s-9-4-16.7-4H35.8L35.8,60.8z M35.8,83.2
	v34.1h22.5c6.2,0,10.9-1.4,14.3-4.2c3.3-2.8,5-6.8,5-12c0-11.8-5.9-17.8-17.7-17.9L35.8,83.2z"></path>
<path class="st0 BOhTZDVX_1" d="M237,1.5v93.1c0,10.5-2.2,19.7-6.7,27.4c-4.5,7.7-11.2,13.9-19.3,17.6c-8.4,4-18.3,6.1-29.8,6.1
	c-17.3,0-31-4.5-40.9-13.5c-10-9-15-21.3-15.2-36.9V1.5h34.5v94.4c0.4,15.6,7.6,23.3,21.7,23.3c7.1,0,12.5-2,16.1-5.9
	c3.6-3.9,5.5-10.3,5.5-19V1.5H237z"></path>
<path class="st0 BOhTZDVX_2" d="M288.9,143.7h-34.2V1.5h34.2V143.7z"></path>
<path class="st0 BOhTZDVX_3" d="M342,117.3h59.7v26.4h-93.9V1.5H342V117.3z"></path>
<path class="st0 BOhTZDVX_4" d="M416.2,143.7V1.5H462c11.9-0.2,23.5,2.8,33.9,8.5c10,5.6,18.1,14,23.5,24.1c5.7,10.7,8.7,22.7,8.5,34.9v6.5
	c0,13-2.8,24.7-8.3,35c-5.3,10.1-13.4,18.5-23.2,24.2c-10.2,5.9-21.7,8.9-33.4,8.8H416.2z M450.4,28v89.4h11.9
	c9.8,0,17.4-3.5,22.7-10.5c5.3-7,7.9-17.4,7.9-31.2v-6.2c0-13.7-2.6-24.1-7.9-31.1c-5.3-7-13-10.5-23-10.4H450.4z"></path>
<style data-made-with="vivus-instant">.BOhTZDVX_0{stroke-dasharray:754 756;stroke-dashoffset:755;animation:BOhTZDVX_draw 1866ms linear 0ms forwards;}.BOhTZDVX_1{stroke-dasharray:688 690;stroke-dashoffset:689;animation:BOhTZDVX_draw 1866ms linear 233ms forwards;}.BOhTZDVX_2{stroke-dasharray:353 355;stroke-dashoffset:354;animation:BOhTZDVX_draw 1866ms linear 466ms forwards;}.BOhTZDVX_3{stroke-dasharray:473 475;stroke-dashoffset:474;animation:BOhTZDVX_draw 1866ms linear 700ms forwards;}.BOhTZDVX_4{stroke-dasharray:690 692;stroke-dashoffset:691;animation:BOhTZDVX_draw 1866ms linear 933ms forwards;}@keyframes BOhTZDVX_draw{100%{stroke-dashoffset:0;}}@keyframes BOhTZDVX_fade{0%{stroke-opacity:1;}94.28571428571429%{stroke-opacity:1;}100%{stroke-opacity:0;}}</style></svg>
