<svg id="Layer_1" data-name="Layer 1" xmlns="http://www.w3.org/2000/svg" viewBox="0 0 545.383 147.141" style=""><title>MDEV_HEADER_build</title><path d="M1.906,144.627V2.44H52.98q27.44,0,41.749,10.059t14.306,29.2q0,11.037-5.078,18.847A29.6,29.6,0,0,1,89.016,72.069Q100.149,75,106.105,83.006t5.957,19.532q0,20.9-13.232,31.4T59.621,144.627Zm34.278-82.91H54.055q11.229-.1,16.015-4.113t4.785-11.852q0-9.011-5.175-12.978t-16.7-3.967h-16.8Zm0,22.461V118.26H58.645q9.274,0,14.257-4.248t4.981-11.963q0-17.772-17.676-17.871Z" transform="translate(-0.406 -0.94)" style="fill:none;stroke:#16b1a9;stroke-width:3px" class="qKbImKiu_0"></path><path d="M242.434,2.44V95.506q0,15.82-6.739,27.393a43.644,43.644,0,0,1-19.336,17.627q-12.6,6.055-29.785,6.055-25.977,0-40.918-13.477T130.422,96.19V2.44H164.9V96.874q.585,23.342,21.679,23.339,10.644,0,16.114-5.859t5.468-19.043V2.44Z" transform="translate(-0.406 -0.94)" style="fill:none;stroke:#16b1a9;stroke-width:3px" class="qKbImKiu_1"></path><path d="M300.344,144.627h-34.18V2.44h34.18Z" transform="translate(-0.406 -0.94)" style="fill:none;stroke:#16b1a9;stroke-width:3px" class="qKbImKiu_2"></path><path d="M358.449,118.26h59.668v26.367H324.172V2.44h34.277Z" transform="translate(-0.406 -0.94)" style="fill:none;stroke:#16b1a9;stroke-width:3px" class="qKbImKiu_3"></path><path d="M432.57,144.627V2.44h45.8a67.384,67.384,0,0,1,33.887,8.545,60.081,60.081,0,0,1,23.486,24.121,72.832,72.832,0,0,1,8.545,34.912v6.543q0,19.533-8.252,35.01a60.326,60.326,0,0,1-23.242,24.219,65.88,65.88,0,0,1-33.447,8.837ZM466.848,28.905V118.26h11.914q14.745,0,22.656-10.5t7.91-31.2V70.409q0-20.6-7.91-31.055T478.371,28.905Z" transform="translate(-0.406 -0.94)" style="fill:none;stroke:#16b1a9;stroke-width:3px" class="qKbImKiu_4"></path><style data-made-with="vivus-instant">.qKbImKiu_0{stroke-dasharray:754 756;stroke-dashoffset:755;animation:qKbImKiu_draw 1866ms ease-in-out 0ms forwards;}.qKbImKiu_1{stroke-dasharray:689 691;stroke-dashoffset:690;animation:qKbImKiu_draw 1866ms ease-in-out 233ms forwards;}.qKbImKiu_2{stroke-dasharray:353 355;stroke-dashoffset:354;animation:qKbImKiu_draw 1866ms ease-in-out 466ms forwards;}.qKbImKiu_3{stroke-dasharray:473 475;stroke-dashoffset:474;animation:qKbImKiu_draw 1866ms ease-in-out 700ms forwards;}.qKbImKiu_4{stroke-dasharray:690 692;stroke-dashoffset:691;animation:qKbImKiu_draw 1866ms ease-in-out 933ms forwards;}@keyframes qKbImKiu_draw{100%{stroke-dashoffset:0;}}@keyframes qKbImKiu_fade{0%{stroke-opacity:1;}94.28571428571429%{stroke-opacity:1;}100%{stroke-opacity:0;}}</style></svg>