<!--?xml version="1.0" encoding="utf-8"?-->
<!-- Generator: Adobe Illustrator 23.0.2, SVG Export Plug-In . SVG Version: 6.00 Build 0)  -->
<svg version="1.1" id="Layer_1" xmlns="http://www.w3.org/2000/svg" xmlns:xlink="http://www.w3.org/1999/xlink" x="0px" y="0px" viewBox="0 0 630 120.3" style="" xml:space="preserve">
<style type="text/css">
	.st0{fill:none;stroke:#16B1A9;stroke-width:3;}
</style>
<g>
	<path class="st0 HTXpsEUC_0" d="M31.1,77.6v36.2H5.4V7.2H48c8.2,0,15.4,1.5,21.6,4.5c6.3,3,11.1,7.3,14.6,12.8c3.4,5.5,5.2,11.8,5.2,18.9
		c0,10.4-3.7,18.7-11.2,24.9c-7.4,6.2-17.7,9.3-30.7,9.3H31.1z M31.1,57.8h16.8c5,0,8.8-1.2,11.4-3.7s3.9-6,3.9-10.5
		c0-5-1.3-9-4-11.9c-2.7-3-6.3-4.5-11-4.5H31.1V57.8z"></path>
	<path class="st0 HTXpsEUC_1" d="M154.4,93.9h-35.2l-6.2,19.9H85.5L124.6,7.2h24.2l39.5,106.6h-27.6L154.4,93.9z M125.3,74h23l-11.5-37
		L125.3,74z"></path>
	<path class="st0 HTXpsEUC_2" d="M249.7,85.5c0-3.8-1.3-6.7-4-8.8c-2.7-2.1-7.3-4.3-14-6.5c-6.7-2.2-12.2-4.4-16.4-6.5
		c-13.8-6.8-20.7-16.1-20.7-28c0-5.9,1.7-11.1,5.2-15.6c3.4-4.5,8.3-8,14.6-10.5s13.4-3.8,21.2-3.8c7.7,0,14.5,1.4,20.6,4.1
		c6.1,2.7,10.8,6.6,14.2,11.7s5.1,10.8,5.1,17.3h-25.6c0-4.3-1.3-7.7-4-10.1s-6.3-3.6-10.8-3.6c-4.6,0-8.2,1-10.9,3s-4,4.6-4,7.7
		c0,2.7,1.5,5.2,4.4,7.4s8.1,4.5,15.5,6.9c7.4,2.4,13.4,4.9,18.2,7.7c11.5,6.6,17.3,15.8,17.3,27.5c0,9.3-3.5,16.7-10.5,22
		c-7,5.3-16.7,8-28.9,8c-8.6,0-16.5-1.5-23.5-4.7c-7-3.1-12.3-7.3-15.8-12.7c-3.5-5.4-5.3-11.6-5.3-18.6h25.8
		c0,5.7,1.5,9.9,4.4,12.6c3,2.7,7.8,4.1,14.4,4.1c4.2,0,7.6-0.9,10.1-2.7C248.5,91.4,249.7,88.8,249.7,85.5z"></path>
	<path class="st0 HTXpsEUC_3" d="M344.3,85.5c0-3.8-1.3-6.7-4-8.8c-2.7-2.1-7.3-4.3-14-6.5s-12.2-4.4-16.4-6.5c-13.8-6.8-20.7-16.1-20.7-28
		c0-5.9,1.7-11.1,5.2-15.6c3.4-4.5,8.3-8,14.6-10.5c6.3-2.5,13.4-3.8,21.2-3.8c7.7,0,14.5,1.4,20.6,4.1s10.8,6.6,14.2,11.7
		s5.1,10.8,5.1,17.3h-25.6c0-4.3-1.3-7.7-4-10.1s-6.3-3.6-10.8-3.6c-4.6,0-8.2,1-10.9,3c-2.7,2-4,4.6-4,7.7c0,2.7,1.5,5.2,4.4,7.4
		s8.1,4.5,15.5,6.9c7.4,2.4,13.4,4.9,18.2,7.7c11.5,6.6,17.3,15.8,17.3,27.5c0,9.3-3.5,16.7-10.5,22c-7,5.3-16.7,8-28.9,8
		c-8.6,0-16.5-1.5-23.5-4.7c-7-3.1-12.3-7.3-15.8-12.7c-3.5-5.4-5.3-11.6-5.3-18.6H312c0,5.7,1.5,9.9,4.4,12.6
		c3,2.7,7.8,4.1,14.4,4.1c4.2,0,7.6-0.9,10.1-2.7C343,91.4,344.3,88.8,344.3,85.5z"></path>
	<path class="st0 HTXpsEUC_4" d="M411.6,113.8H386V7.2h25.6V113.8z"></path>
	<path class="st0 HTXpsEUC_5" d="M520.5,62.7c0,10.4-1.9,19.6-5.8,27.6c-3.9,8-9.3,14.2-16.4,18.5c-7.1,4.3-15.2,6.5-24.3,6.5
		s-17.1-2.1-24.2-6.3s-12.5-10.1-16.4-17.9s-6-16.7-6.2-26.7v-6c0-10.4,1.9-19.7,5.7-27.6s9.3-14.1,16.5-18.5
		c7.2-4.3,15.3-6.5,24.4-6.5c9,0,17.1,2.1,24.2,6.4c7.1,4.3,12.6,10.4,16.5,18.3s5.9,17,6,27.3V62.7z M494.3,58.2
		c0-10.6-1.8-18.6-5.3-24.1s-8.6-8.2-15.2-8.2c-12.9,0-19.7,9.7-20.4,29l-0.1,7.8c0,10.4,1.7,18.5,5.2,24.1s8.6,8.4,15.5,8.4
		c6.5,0,11.5-2.8,15-8.3s5.3-13.5,5.3-23.8V58.2z"></path>
	<path class="st0 HTXpsEUC_6" d="M624.4,113.8h-25.6L561,47.4v66.4h-25.7V7.2H561l37.7,66.4V7.2h25.6L624.4,113.8L624.4,113.8z"></path>
</g>
<style data-made-with="vivus-instant">.HTXpsEUC_0{stroke-dasharray:464 466;stroke-dashoffset:465;animation:HTXpsEUC_draw 1866ms ease-in-out 0ms forwards;}.HTXpsEUC_1{stroke-dasharray:484 486;stroke-dashoffset:485;animation:HTXpsEUC_draw 1866ms ease-in-out 155ms forwards;}.HTXpsEUC_2{stroke-dasharray:539 541;stroke-dashoffset:540;animation:HTXpsEUC_draw 1866ms ease-in-out 311ms forwards;}.HTXpsEUC_3{stroke-dasharray:539 541;stroke-dashoffset:540;animation:HTXpsEUC_draw 1866ms ease-in-out 466ms forwards;}.HTXpsEUC_4{stroke-dasharray:265 267;stroke-dashoffset:266;animation:HTXpsEUC_draw 1866ms ease-in-out 622ms forwards;}.HTXpsEUC_5{stroke-dasharray:507 509;stroke-dashoffset:508;animation:HTXpsEUC_draw 1866ms ease-in-out 777ms forwards;}.HTXpsEUC_6{stroke-dasharray:602 604;stroke-dashoffset:603;animation:HTXpsEUC_draw 1866ms ease-in-out 933ms forwards;}@keyframes HTXpsEUC_draw{100%{stroke-dashoffset:0;}}@keyframes HTXpsEUC_fade{0%{stroke-opacity:1;}94.28571428571429%{stroke-opacity:1;}100%{stroke-opacity:0;}}</style></svg>
