<!--?xml version="1.0" encoding="utf-8"?-->
<!-- Generator: Adobe Illustrator 22.1.0, SVG Export Plug-In . SVG Version: 6.00 Build 0)  -->
<svg version="1.1" id="Layer_1" xmlns="http://www.w3.org/2000/svg" xmlns:xlink="http://www.w3.org/1999/xlink" x="0px" y="0px" viewBox="0 0 679 185" style="" xml:space="preserve">
<style type="text/css">
	.st0{fill:none;stroke:#16B1A9;stroke-width:3;}
</style>
<g>
	<path class="st0 lkpvbQiZ_0" d="M101.1,125.9c0-5-1.8-8.9-5.3-11.7c-3.5-2.8-9.8-5.7-18.7-8.7c-8.9-3-16.2-5.9-21.9-8.7
		c-18.4-9-27.6-21.5-27.6-37.3c0-7.9,2.3-14.8,6.9-20.8c4.6-6,11.1-10.7,19.5-14.1c8.4-3.4,17.8-5,28.3-5c10.2,0,19.4,1.8,27.5,5.5
		c8.1,3.6,14.4,8.8,18.9,15.6s6.7,14.4,6.7,23.1h-34.2c0-5.8-1.8-10.3-5.3-13.5c-3.5-3.2-8.3-4.8-14.4-4.8c-6.1,0-11,1.4-14.5,4.1
		c-3.5,2.7-5.3,6.1-5.3,10.3c0,3.6,2,7,5.9,9.9c3.9,3,10.8,6,20.6,9.2c9.8,3.2,17.9,6.6,24.2,10.2c15.4,8.9,23,21.1,23,36.6
		c0,12.4-4.7,22.2-14.1,29.3c-9.4,7.1-22.2,10.6-38.6,10.6c-11.5,0-22-2.1-31.3-6.2c-9.3-4.1-16.4-9.8-21.1-17
		c-4.7-7.2-7.1-15.5-7.1-24.9h34.4c0,7.6,2,13.2,5.9,16.8c3.9,3.6,10.3,5.4,19.2,5.4c5.7,0,10.1-1.2,13.4-3.7
		C99.4,133.7,101.1,130.3,101.1,125.9z"></path>
	<path class="st0 lkpvbQiZ_1" d="M264.6,47.9h-42.7v115.7h-34.3V47.9h-41.9V21.5h118.8V47.9z"></path>
	<path class="st0 lkpvbQiZ_2" d="M396.7,95.5c0,13.9-2.6,26.1-7.7,36.8c-5.1,10.7-12.5,18.9-21.9,24.7s-20.3,8.6-32.4,8.6s-22.9-2.8-32.2-8.3
		s-16.7-13.5-21.9-23.9c-5.2-10.4-8-22.2-8.3-35.6v-8c0-13.9,2.6-26.2,7.7-36.9c5.1-10.6,12.4-18.9,22-24.7
		c9.5-5.8,20.4-8.7,32.6-8.7c12,0,22.8,2.9,32.2,8.6c9.4,5.7,16.8,13.9,22,24.5c5.2,10.6,7.9,22.7,8,36.4V95.5z M361.8,89.5
		c0-14.1-2.4-24.9-7.1-32.2c-4.7-7.3-11.5-11-20.3-11c-17.2,0-26.3,12.9-27.2,38.7l-0.1,10.4c0,13.9,2.3,24.6,6.9,32.1
		c4.6,7.5,11.5,11.2,20.6,11.2c8.7,0,15.3-3.7,20-11c4.7-7.4,7.1-17.9,7.1-31.7V89.5z"></path>
	<path class="st0 lkpvbQiZ_3" d="M467.2,113.4h-18.6v50.3h-34.3V21.5h56c16.9,0,30,3.7,39.6,11.2c9.5,7.5,14.3,18,14.3,31.7
		c0,9.9-2,18.1-6,24.6s-10.3,11.8-18.8,15.8l29.7,57.4v1.5h-36.7L467.2,113.4z M448.6,87h21.7c6.5,0,11.4-1.7,14.7-5.1
		c3.3-3.4,4.9-8.2,4.9-14.3c0-6.1-1.7-10.9-5-14.4s-8.2-5.2-14.6-5.2h-21.7V87z"></path>
	<path class="st0 lkpvbQiZ_4" d="M592.2,83.2l26.2-61.7h37l-45.8,91.1v51.1h-34.8v-51.1l-45.7-91.1h36.8L592.2,83.2z"></path>
</g>
<style data-made-with="vivus-instant">.lkpvbQiZ_0{stroke-dasharray:718 720;stroke-dashoffset:719;animation:lkpvbQiZ_draw 1866ms ease-in-out 0ms forwards;}.lkpvbQiZ_1{stroke-dasharray:522 524;stroke-dashoffset:523;animation:lkpvbQiZ_draw 1866ms ease-in-out 233ms forwards;}.lkpvbQiZ_2{stroke-dasharray:677 679;stroke-dashoffset:678;animation:lkpvbQiZ_draw 1866ms ease-in-out 466ms forwards;}.lkpvbQiZ_3{stroke-dasharray:735 737;stroke-dashoffset:736;animation:lkpvbQiZ_draw 1866ms ease-in-out 700ms forwards;}.lkpvbQiZ_4{stroke-dasharray:549 551;stroke-dashoffset:550;animation:lkpvbQiZ_draw 1866ms ease-in-out 933ms forwards;}@keyframes lkpvbQiZ_draw{100%{stroke-dashoffset:0;}}@keyframes lkpvbQiZ_fade{0%{stroke-opacity:1;}94.28571428571429%{stroke-opacity:1;}100%{stroke-opacity:0;}}</style></svg>
