<svg id="Layer_1" data-name="Layer 1" xmlns="http://www.w3.org/2000/svg" viewBox="0 0 523.364 149.094"><title>MDEV_HEADER_your</title><path d="M69.793,68.931,95.965,7.212h37.012l-45.8,91.114V149.4H52.41V98.326L6.707,7.212H43.523Z" transform="translate(-4.276 -3.759)" style="fill:none;stroke:#16b1a9;stroke-width:3px"/><path d="M260.906,81.236q0,20.8-7.715,36.816a57.018,57.018,0,0,1-21.923,24.659q-14.21,8.642-32.373,8.642T166.668,143a56.924,56.924,0,0,1-21.924-23.877q-7.862-15.528-8.252-35.645V75.474q0-20.9,7.666-36.865a56.88,56.88,0,0,1,21.973-24.658q14.3-8.691,32.568-8.692,18.066,0,32.227,8.594a57.918,57.918,0,0,1,22.021,24.463q7.86,15.871,7.959,36.377Zm-34.863-5.957q0-21.19-7.08-32.178T198.7,32.115q-25.781,0-27.246,38.672l-.1,10.449q0,20.9,6.934,32.129T198.9,124.6q12.985,0,20.019-11.035t7.129-31.738Z" transform="translate(-4.276 -3.759)" style="fill:none;stroke:#16b1a9;stroke-width:3px"/><path d="M390.105,7.212v93.067q0,15.82-6.738,27.392A43.644,43.644,0,0,1,364.031,145.3q-12.6,6.057-29.785,6.055-25.978,0-40.918-13.476t-15.234-36.915V7.212h34.472v94.434q.587,23.341,21.68,23.34,10.643,0,16.113-5.859t5.469-19.043V7.212Z" transform="translate(-4.276 -3.759)" style="fill:none;stroke:#16b1a9;stroke-width:3px"/><path d="M464.324,99.107H445.77V149.4H411.492V7.212h55.957q25.293,0,39.551,11.219t14.258,31.7q0,14.83-6.006,24.584t-18.8,15.8l29.688,57.41V149.4H489.422ZM445.77,72.74h21.679q9.765,0,14.7-5.139t4.932-14.344q0-9.2-4.98-14.439T467.449,33.58H445.77Z" transform="translate(-4.276 -3.759)" style="fill:none;stroke:#16b1a9;stroke-width:3px"/></svg>