<?xml version="1.0" encoding="utf-8"?>
<!-- Generator: Adobe Illustrator 22.1.0, SVG Export Plug-In . SVG Version: 6.00 Build 0)  -->
<svg version="1.1" id="Layer_1" xmlns="http://www.w3.org/2000/svg" xmlns:xlink="http://www.w3.org/1999/xlink" x="0px" y="0px"
	 viewBox="0 0 552 185" style="enable-background:new 0 0 552 185;" xml:space="preserve">
<style type="text/css">
	.st0{fill:none;stroke:#16B1A9;stroke-width:3;}
</style>
<g>
	<path class="st0" d="M76.1,81.9l26.2-61.7h37l-45.8,91.1v51.1H58.7v-51.1L13,20.1h36.8L76.1,81.9z"/>
	<path class="st0" d="M267.2,94.2c0,13.9-2.6,26.1-7.7,36.8c-5.1,10.7-12.5,18.9-21.9,24.7s-20.3,8.6-32.4,8.6s-22.9-2.8-32.2-8.3
		s-16.7-13.5-21.9-23.9c-5.2-10.4-8-22.2-8.3-35.6v-8c0-13.9,2.6-26.2,7.7-36.9c5.1-10.6,12.4-18.9,22-24.7
		c9.5-5.8,20.4-8.7,32.6-8.7c12,0,22.8,2.9,32.2,8.6c9.4,5.7,16.8,13.9,22,24.5c5.2,10.6,7.9,22.7,8,36.4V94.2z M232.4,88.2
		c0-14.1-2.4-24.9-7.1-32.2c-4.7-7.3-11.5-11-20.3-11c-17.2,0-26.3,12.9-27.2,38.7l-0.1,10.4c0,13.9,2.3,24.6,6.9,32.1
		c4.6,7.5,11.5,11.2,20.6,11.2c8.7,0,15.3-3.7,20-11c4.7-7.4,7.1-17.9,7.1-31.7V88.2z"/>
	<path class="st0" d="M396.4,20.1v93.1c0,10.5-2.2,19.7-6.7,27.4s-10.9,13.6-19.3,17.6c-8.4,4-18.3,6.1-29.8,6.1
		c-17.3,0-31-4.5-40.9-13.5s-15-21.3-15.2-36.9V20.1h34.5v94.4c0.4,15.6,7.6,23.3,21.7,23.3c7.1,0,12.5-2,16.1-5.9
		c3.6-3.9,5.5-10.3,5.5-19V20.1H396.4z"/>
	<path class="st0" d="M470.7,112h-18.6v50.3h-34.3V20.1h56c16.9,0,30,3.7,39.6,11.2c9.5,7.5,14.3,18,14.3,31.7c0,9.9-2,18.1-6,24.6
		s-10.3,11.8-18.8,15.8l29.7,57.4v1.5h-36.7L470.7,112z M452.1,85.7h21.7c6.5,0,11.4-1.7,14.7-5.1c3.3-3.4,4.9-8.2,4.9-14.3
		c0-6.1-1.7-10.9-5-14.4s-8.2-5.2-14.6-5.2h-21.7V85.7z"/>
</g>
</svg>
