<svg id="Layer_1" data-name="Layer 1" xmlns="http://www.w3.org/2000/svg" viewBox="0 0 520.364 149.094"><title>MDEV_HEADER_your</title><path d="M67.776,69.588,93.948,7.87H130.96l-45.8,91.113v51.074H50.394V98.983L4.69,7.87H41.507Z" transform="translate(-2.26 -4.417)" style="fill:none;stroke:#16b1a9;stroke-width:3px"/><path d="M257.89,81.893q0,20.8-7.715,36.816a57.014,57.014,0,0,1-21.924,24.659q-14.21,8.642-32.373,8.642t-32.227-8.349a56.921,56.921,0,0,1-21.923-23.877q-7.863-15.528-8.252-35.645V76.131q0-20.9,7.666-36.865a56.877,56.877,0,0,1,21.972-24.658q14.306-8.691,32.569-8.691,18.066,0,32.226,8.593a57.92,57.92,0,0,1,22.022,24.463q7.86,15.872,7.959,36.377Zm-34.864-5.957q0-21.189-7.08-32.178T195.683,32.772q-25.782,0-27.246,38.672l-.1,10.449q0,20.9,6.933,32.129t20.606,11.23q12.987,0,20.019-11.035t7.129-31.738Z" transform="translate(-2.26 -4.417)" style="fill:none;stroke:#16b1a9;stroke-width:3px"/><path d="M387.089,7.87v93.066q0,15.82-6.738,27.393a43.666,43.666,0,0,1-19.336,17.627q-12.6,6.056-29.786,6.054-25.977,0-40.917-13.476T275.077,101.62V7.87H309.55V102.3q.585,23.342,21.679,23.34,10.644,0,16.114-5.859t5.469-19.043V7.87Z" transform="translate(-2.26 -4.417)" style="fill:none;stroke:#16b1a9;stroke-width:3px"/><path d="M459.308,99.764H440.753v50.293H406.476V7.87h55.957q25.291,0,39.55,11.218t14.258,31.7q0,14.831-6.006,24.584t-18.8,15.8l29.687,57.411v1.466H484.405ZM440.753,73.4h21.68q9.764,0,14.7-5.139t4.932-14.343q0-9.2-4.981-14.44t-14.648-5.238h-21.68Z" transform="translate(-2.26 -4.417)" style="fill:none;stroke:#16b1a9;stroke-width:3px"/></svg>