<svg id="Layer_1" data-name="Layer 1" xmlns="http://www.w3.org/2000/svg" viewBox="0 0 692.844 149.094"><title>MDEV_HEADER_online</title><path d="M133.5,83.144q0,20.8-7.715,36.816a57.017,57.017,0,0,1-21.924,24.658q-14.208,8.643-32.373,8.643t-32.226-8.35a56.908,56.908,0,0,1-21.925-23.877Q9.476,105.508,9.085,85.39V77.382q0-20.9,7.666-36.865A56.884,56.884,0,0,1,38.725,15.858Q53.031,7.167,71.293,7.167q18.064,0,32.227,8.594a57.918,57.918,0,0,1,22.021,24.463Q133.4,56.094,133.5,76.6ZM98.637,77.187q0-21.19-7.08-32.178T71.293,34.022q-25.782,0-27.246,38.672l-.1,10.45q0,20.9,6.934,32.128t20.6,11.231q12.987,0,20.02-11.035t7.129-31.739Z" transform="translate(-7.585 -5.667)" style="fill:none;stroke:#16b1a9;stroke-width:3px"/><path d="M269.926,151.308H235.844L185.453,62.831v88.477H151.176V9.12h34.277L235.746,97.6V9.12h34.18Z" transform="translate(-7.585 -5.667)" style="fill:none;stroke:#16b1a9;stroke-width:3px"/><path d="M325.883,124.94h59.668v26.368H291.605V9.12h34.278Z" transform="translate(-7.585 -5.667)" style="fill:none;stroke:#16b1a9;stroke-width:3px"/><path d="M436.527,151.308H402.348V9.12h34.179Z" transform="translate(-7.585 -5.667)" style="fill:none;stroke:#16b1a9;stroke-width:3px"/><path d="M579.105,151.308H545.023l-50.39-88.477v88.477H460.355V9.12h34.278L544.926,97.6V9.12h34.179Z" transform="translate(-7.585 -5.667)" style="fill:none;stroke:#16b1a9;stroke-width:3px"/><path d="M688.969,90.956H635.062V124.94h63.672v26.368H600.785V9.12H698.93V35.585H635.062v29.98h53.907Z" transform="translate(-7.585 -5.667)" style="fill:none;stroke:#16b1a9;stroke-width:3px"/></svg>