<svg id="Layer_1" data-name="Layer 1" xmlns="http://www.w3.org/2000/svg" viewBox="0 0 387.329 149.094"><title>MDEV_HEADER_you</title><path d="M71.289,68.637,97.461,6.918h37.012l-45.8,91.113V149.1H53.906V98.031L8.2,6.918H45.02Z" transform="translate(-5.773 -3.465)" style="fill:none;stroke:#16b1a9;stroke-width:3px"/><path d="M262.4,80.941q0,20.8-7.714,36.817a57.023,57.023,0,0,1-21.924,24.658q-14.21,8.643-32.373,8.643t-32.227-8.35a56.912,56.912,0,0,1-21.924-23.877q-7.862-15.528-8.252-35.644V75.18q0-20.9,7.666-36.866a56.891,56.891,0,0,1,21.973-24.658Q181.932,4.965,200.2,4.965q18.066,0,32.227,8.594a57.909,57.909,0,0,1,22.021,24.462Q262.3,53.893,262.4,74.4Zm-34.863-5.957q0-21.189-7.08-32.177T200.2,31.82q-25.78,0-27.246,38.672l-.1,10.449q0,20.9,6.933,32.129T200.391,124.3q12.987,0,20.019-11.035t7.129-31.739Z" transform="translate(-5.773 -3.465)" style="fill:none;stroke:#16b1a9;stroke-width:3px"/><path d="M391.6,6.918V99.984q0,15.821-6.739,27.393A43.644,43.644,0,0,1,365.527,145q-12.6,6.057-29.785,6.055-25.977,0-40.918-13.477T279.59,100.668V6.918h34.472v94.434q.586,23.341,21.68,23.339,10.644,0,16.113-5.859t5.469-19.043V6.918Z" transform="translate(-5.773 -3.465)" style="fill:none;stroke:#16b1a9;stroke-width:3px"/></svg>