<!--?xml version="1.0" encoding="utf-8"?-->
<!-- Generator: Adobe Illustrator 23.0.2, SVG Export Plug-In . SVG Version: 6.00 Build 0)  -->
<svg version="1.1" id="Layer_1" xmlns="http://www.w3.org/2000/svg" xmlns:xlink="http://www.w3.org/1999/xlink" x="0px" y="0px" viewBox="0 0 1131.9 149.2" style="" xml:space="preserve">
<style type="text/css">
	.st0{fill:none;stroke:#16B1A9;stroke-width:3;}
</style>
<title>MDEV_HEADER_marketing</title>
<path class="st0 VjlnJPCf_0" d="M46.5,3.6l31.7,98.9l31.6-98.9H155v142.2h-34.4v-33.2l3.3-68L89.6,145.7H66.9L32.5,44.5l3.3,68.1v33.2H1.5V3.6
	H46.5z"></path>
<path class="st0 VjlnJPCf_1" d="M259.3,119.2h-47l-8.2,26.6h-36.6L219.7,3.6h32.2l52.5,142.2h-36.8L259.3,119.2z M220.5,92.7h30.6l-15.3-49.3
	L220.5,92.7z"></path>
<path class="st0 VjlnJPCf_2" d="M367.6,95.4h-18.6v50.3h-34.3V3.6h56c16.9,0,30,3.7,39.6,11.2c9.5,7.5,14.3,18,14.3,31.7c0,9.9-2,18.1-6,24.6
	s-10.3,11.8-18.8,15.8l29.7,57.4v1.5h-36.7L367.6,95.4z M349.1,69.1h21.7c6.5,0,11.4-1.7,14.7-5.1c3.3-3.4,4.9-8.2,4.9-14.3
	c0-6.1-1.7-10.9-5-14.4c-3.3-3.5-8.2-5.2-14.6-5.2h-21.7V69.1z"></path>
<path class="st0 VjlnJPCf_3" d="M493.6,92.8l-14.1,15.4v37.5h-34.3V3.6h34.3v62.7l11.9-18.1l30.7-44.6h42.4l-48,62.9l48,79.3h-40.6L493.6,92.8z
	"></path>
<path class="st0 VjlnJPCf_4" d="M664.4,85.4h-53.9v34h63.7v26.4h-98V3.6h98.1V30h-63.9v30h53.9V85.4z"></path>
<path class="st0 VjlnJPCf_5" d="M804.7,30H762v115.7h-34.3V30h-41.9V3.6h118.8V30z"></path>
<path class="st0 VjlnJPCf_6" d="M855.6,145.7h-34.2V3.6h34.2V145.7z"></path>
<path class="st0 VjlnJPCf_7" d="M995.2,145.7h-34.1l-50.4-88.5v88.5h-34.3V3.6h34.3L961,92V3.6h34.2V145.7z"></path>
<path class="st0 VjlnJPCf_8" d="M1130.3,128.2c-5.3,5.9-13,10.6-23.1,14.2c-10.7,3.7-22,5.5-33.4,5.4c-18.6,0-33.5-5.7-44.6-17.1
	c-11.1-11.4-17.1-27.2-17.9-47.6l-0.1-12.3c0-14,2.5-26.2,7.4-36.7c4.5-10,11.9-18.4,21.2-24.1c9.2-5.6,19.9-8.4,32-8.4
	c17.7,0,31.5,4.1,41.3,12.2c9.8,8.1,15.5,20.2,17.1,36.3h-33c-1.2-7.9-3.7-13.6-7.6-17s-9.4-5.1-16.6-5.1c-8.6,0-15.2,3.6-19.9,10.9
	s-7.1,17.7-7.1,31.2v8.6c0,14.2,2.4,24.9,7.3,32s12.5,10.7,22.9,10.7c8.9,0,15.6-2,19.9-6V93.3h-23.8V69.8h58.1L1130.3,128.2z"></path>
<style data-made-with="vivus-instant">.VjlnJPCf_0{stroke-dasharray:1090 1092;stroke-dashoffset:1091;animation:VjlnJPCf_draw 1866ms linear 0ms forwards;}.VjlnJPCf_1{stroke-dasharray:646 648;stroke-dashoffset:647;animation:VjlnJPCf_draw 1866ms linear 116ms forwards;}.VjlnJPCf_2{stroke-dasharray:735 737;stroke-dashoffset:736;animation:VjlnJPCf_draw 1866ms linear 233ms forwards;}.VjlnJPCf_3{stroke-dasharray:724 726;stroke-dashoffset:725;animation:VjlnJPCf_draw 1866ms linear 350ms forwards;}.VjlnJPCf_4{stroke-dasharray:717 719;stroke-dashoffset:718;animation:VjlnJPCf_draw 1866ms linear 466ms forwards;}.VjlnJPCf_5{stroke-dasharray:523 525;stroke-dashoffset:524;animation:VjlnJPCf_draw 1866ms linear 583ms forwards;}.VjlnJPCf_6{stroke-dasharray:353 355;stroke-dashoffset:354;animation:VjlnJPCf_draw 1866ms linear 700ms forwards;}.VjlnJPCf_7{stroke-dasharray:802 804;stroke-dashoffset:803;animation:VjlnJPCf_draw 1866ms linear 816ms forwards;}.VjlnJPCf_8{stroke-dasharray:766 768;stroke-dashoffset:767;animation:VjlnJPCf_draw 1866ms linear 933ms forwards;}@keyframes VjlnJPCf_draw{100%{stroke-dashoffset:0;}}@keyframes VjlnJPCf_fade{0%{stroke-opacity:1;}94.28571428571429%{stroke-opacity:1;}100%{stroke-opacity:0;}}</style></svg>
