<svg id="Layer_1" data-name="Layer 1" xmlns="http://www.w3.org/2000/svg" viewBox="0 0 514.914 149.191" style=""><title>MDEV_HEADER_once</title><path d="M131.648,80.941q0,20.8-7.714,36.817a57.023,57.023,0,0,1-21.924,24.658q-14.21,8.643-32.373,8.643t-32.227-8.35a56.912,56.912,0,0,1-21.924-23.877Q7.624,103.3,7.234,83.188V75.18q0-20.9,7.666-36.866A56.891,56.891,0,0,1,36.873,13.656Q51.179,4.965,69.441,4.965q18.066,0,32.227,8.594a57.909,57.909,0,0,1,22.021,24.462q7.862,15.871,7.959,36.377ZM96.785,74.984q0-21.189-7.08-32.177T69.441,31.82q-25.781,0-27.246,38.672l-.1,10.449q0,20.9,6.933,32.129T69.637,124.3q12.986,0,20.019-11.035t7.129-31.739Z" transform="translate(-5.734 -3.367)" style="fill:none;stroke:#16b1a9;stroke-width:3px" class="JaSbKsZw_0"></path><path d="M268.074,149.1H233.992L183.6,60.629V149.1H149.324V6.918H183.6L233.9,95.4V6.918h34.179Z" transform="translate(-5.734 -3.367)" style="fill:none;stroke:#16b1a9;stroke-width:3px" class="JaSbKsZw_1"></path><path d="M404.793,100.961a51.924,51.924,0,0,1-8.008,26.221,48.325,48.325,0,0,1-20.556,17.627q-13.234,6.251-30.225,6.25-28.029,0-44.141-18.262T285.75,81.234V74.2q0-20.9,7.275-36.572a55.126,55.126,0,0,1,20.948-24.219q13.671-8.544,31.64-8.545,25.878,0,41.6,13.623t17.871,37.549h-34.18q-.39-12.987-6.543-18.652t-18.75-5.664q-12.793,0-18.75,9.57t-6.25,30.566V81.918q0,22.755,5.713,32.52T346,124.2q11.815,0,18.066-5.566t6.641-17.676Z" transform="translate(-5.734 -3.367)" style="fill:none;stroke:#16b1a9;stroke-width:3px" class="JaSbKsZw_2"></path><path d="M509.188,88.754H455.281v33.984h63.672V149.1H421V6.918h98.144V33.383H455.281v29.98h53.907Z" transform="translate(-5.734 -3.367)" style="fill:none;stroke:#16b1a9;stroke-width:3px" class="JaSbKsZw_3"></path><style data-made-with="vivus-instant">.JaSbKsZw_0{stroke-dasharray:677 679;stroke-dashoffset:678;animation:JaSbKsZw_draw 1866ms ease-in-out 0ms forwards;}.JaSbKsZw_1{stroke-dasharray:802 804;stroke-dashoffset:803;animation:JaSbKsZw_draw 1866ms ease-in-out 311ms forwards;}.JaSbKsZw_2{stroke-dasharray:657 659;stroke-dashoffset:658;animation:JaSbKsZw_draw 1866ms ease-in-out 622ms forwards;}.JaSbKsZw_3{stroke-dasharray:716 718;stroke-dashoffset:717;animation:JaSbKsZw_draw 1866ms ease-in-out 933ms forwards;}@keyframes JaSbKsZw_draw{100%{stroke-dashoffset:0;}}@keyframes JaSbKsZw_fade{0%{stroke-opacity:1;}94.28571428571429%{stroke-opacity:1;}100%{stroke-opacity:0;}}</style></svg>