<!--?xml version="1.0" encoding="utf-8"?-->
<!-- Generator: Adobe Illustrator 23.0.2, SVG Export Plug-In . SVG Version: 6.00 Build 0)  -->
<svg version="1.1" id="Layer_1" xmlns="http://www.w3.org/2000/svg" xmlns:xlink="http://www.w3.org/1999/xlink" x="0px" y="0px" viewBox="0 0 1078 156.3" style="" xml:space="preserve">
<style type="text/css">
	.st0{fill:none;stroke:#16B1A9;stroke-width:3;}
</style>
<title>MDEV_HEADER_demystify</title>
<path class="st0 hyFbNgWN_0" d="M1.5,148.9V6.7h45.8c11.9-0.2,23.5,2.8,33.9,8.5c10,5.6,18.1,14,23.5,24.1c5.7,10.7,8.7,22.7,8.5,34.9v6.5
	c0,13-2.8,24.7-8.3,35c-5.3,10.1-13.4,18.5-23.2,24.2c-10.2,5.9-21.7,8.9-33.4,8.8H1.5V148.9z M35.8,33.2v89.4h11.9
	c9.8,0,17.4-3.5,22.7-10.5s7.9-17.4,7.9-31.2v-6.2c0-13.7-2.6-24.1-7.9-31.1s-13-10.5-23-10.4L35.8,33.2L35.8,33.2z"></path>
<path class="st0 hyFbNgWN_1" d="M218,88.5h-53.9v34h63.7v26.4h-97.9V6.7H228v26.5h-63.9v30H218V88.5z"></path>
<path class="st0 hyFbNgWN_2" d="M286.7,6.7l31.7,98.9L350,6.7h45.1v142.2h-34.4v-33.2l3.3-68l-34.4,101.2h-22.7L272.7,47.6l3.3,68.1v33.2h-34.3
	V6.7H286.7z"></path>
<path class="st0 hyFbNgWN_3" d="M468.3,68.4l26.2-61.7h37l-45.8,91.1v51.1h-34.8V97.8L405.2,6.7H442L468.3,68.4z"></path>
<path class="st0 hyFbNgWN_4" d="M609.6,111.1c0-5-1.8-8.9-5.3-11.7c-3.5-2.8-9.8-5.7-18.7-8.7c-7.5-2.4-14.8-5.3-21.9-8.7
	c-18.4-9-27.6-21.5-27.6-37.3c-0.1-7.5,2.3-14.9,6.9-20.8c4.6-6,11.1-10.7,19.5-14.1c9-3.5,18.6-5.2,28.3-5
	c9.4-0.2,18.8,1.7,27.5,5.5c7.7,3.3,14.2,8.7,18.9,15.6c4.5,6.8,6.9,14.9,6.7,23.1h-34.2c0-5.8-1.8-10.3-5.3-13.5s-8.3-4.8-14.4-4.8
	c-6.1,0-11,1.4-14.5,4.1c-3.4,2.3-5.4,6.2-5.3,10.3c0,3.6,2,7,5.9,9.9c3.9,3,10.8,6,20.6,9.2c8.4,2.6,16.5,6,24.2,10.2
	c15.4,8.9,23,21.1,23,36.6c0,12.4-4.7,22.2-14.1,29.3c-9.4,7.1-22.2,10.6-38.6,10.6c-10.8,0.2-21.4-2-31.3-6.2
	c-9.3-4.1-16.4-9.8-21.1-17c-4.8-7.4-7.2-16-7.1-24.9h34.4c0,7.6,2,13.2,5.9,16.8s10.3,5.4,19.2,5.4c5.7,0,10.1-1.2,13.4-3.7
	C608,119,609.8,115.1,609.6,111.1z"></path>
<path class="st0 hyFbNgWN_5" d="M773.1,33.2h-42.7v115.7h-34.3V33.2h-41.9V6.7H773v26.5H773.1z"></path>
<path class="st0 hyFbNgWN_6" d="M822.1,148.9h-34.2V6.7h34.2V148.9z"></path>
<path class="st0 hyFbNgWN_7" d="M933.5,92.2h-55.3v56.6h-34.3V6.7H939v26.5h-60.8v32.7h55.3V92.2z"></path>
<path class="st0 hyFbNgWN_8" d="M1012.3,68.4l26.2-61.7h37l-45.8,91.1v51.1H995V97.8L949.3,6.7h36.8L1012.3,68.4z"></path>
<style data-made-with="vivus-instant">.hyFbNgWN_0{stroke-dasharray:690 692;stroke-dashoffset:691;animation:hyFbNgWN_draw 1866ms linear 0ms forwards;}.hyFbNgWN_1{stroke-dasharray:716 718;stroke-dashoffset:717;animation:hyFbNgWN_draw 1866ms linear 116ms forwards;}.hyFbNgWN_2{stroke-dasharray:1091 1093;stroke-dashoffset:1092;animation:hyFbNgWN_draw 1866ms linear 233ms forwards;}.hyFbNgWN_3{stroke-dasharray:549 551;stroke-dashoffset:550;animation:hyFbNgWN_draw 1866ms linear 350ms forwards;}.hyFbNgWN_4{stroke-dasharray:719 721;stroke-dashoffset:720;animation:hyFbNgWN_draw 1866ms linear 466ms forwards;}.hyFbNgWN_5{stroke-dasharray:523 525;stroke-dashoffset:524;animation:hyFbNgWN_draw 1866ms linear 583ms forwards;}.hyFbNgWN_6{stroke-dasharray:353 355;stroke-dashoffset:354;animation:hyFbNgWN_draw 1866ms linear 700ms forwards;}.hyFbNgWN_7{stroke-dasharray:585 587;stroke-dashoffset:586;animation:hyFbNgWN_draw 1866ms linear 816ms forwards;}.hyFbNgWN_8{stroke-dasharray:549 551;stroke-dashoffset:550;animation:hyFbNgWN_draw 1866ms linear 933ms forwards;}@keyframes hyFbNgWN_draw{100%{stroke-dashoffset:0;}}@keyframes hyFbNgWN_fade{0%{stroke-opacity:1;}94.28571428571429%{stroke-opacity:1;}100%{stroke-opacity:0;}}</style></svg>
