<svg id="Layer_1" data-name="Layer 1" xmlns="http://www.w3.org/2000/svg" viewBox="0 0 731.027 149.191"><title>MDEV_HEADER_digital</title><path d="M10.238,149.1V6.918h45.8a67.387,67.387,0,0,1,33.887,8.545,60.081,60.081,0,0,1,23.486,24.121A72.843,72.843,0,0,1,121.957,74.5v6.543q0,19.533-8.252,35.01a60.326,60.326,0,0,1-23.242,24.219A65.873,65.873,0,0,1,57.016,149.1ZM44.516,33.383v89.355H56.43q14.744,0,22.656-10.5T87,81.039V74.887q0-20.6-7.91-31.055T56.039,33.383Z" transform="translate(-8.738 -3.367)" style="fill:none;stroke:#16b1a9;stroke-width:3px"/><path d="M176.059,149.1h-34.18V6.918h34.18Z" transform="translate(-8.738 -3.367)" style="fill:none;stroke:#16b1a9;stroke-width:3px"/><path d="M316.293,131.527q-7.91,8.79-23.145,14.161a99.866,99.866,0,0,1-33.4,5.371q-27.93,0-44.629-17.09T197.25,86.41l-.1-12.3q0-21,7.422-36.669a55.109,55.109,0,0,1,21.24-24.122Q239.632,4.869,257.8,4.867q26.562,0,41.26,12.158T316.2,53.305H283.188q-1.758-11.914-7.618-16.993t-16.6-5.078q-12.891,0-19.922,10.938t-7.129,31.25v8.594q0,21.289,7.275,31.982t22.9,10.693q13.378,0,19.922-5.957V96.664H258.188V73.129h58.105Z" transform="translate(-8.738 -3.367)" style="fill:none;stroke:#16b1a9;stroke-width:3px"/><path d="M372.738,149.1H338.559V6.918h34.179Z" transform="translate(-8.738 -3.367)" style="fill:none;stroke:#16b1a9;stroke-width:3px"/><path d="M505.355,33.383H462.68V149.1H428.4V33.383H386.508V6.918H505.355Z" transform="translate(-8.738 -3.367)" style="fill:none;stroke:#16b1a9;stroke-width:3px"/><path d="M588.852,122.543H541.879l-8.2,26.562H497.055L549.2,6.918H581.43L633.969,149.1H597.152Zm-38.77-26.465h30.566L565.316,46.762Z" transform="translate(-8.738 -3.367)" style="fill:none;stroke:#16b1a9;stroke-width:3px"/><path d="M678.6,122.738h59.668V149.1H644.32V6.918H678.6Z" transform="translate(-8.738 -3.367)" style="fill:none;stroke:#16b1a9;stroke-width:3px"/></svg>