<svg id="Layer_1" data-name="Layer 1" xmlns="http://www.w3.org/2000/svg" viewBox="0 0 262.473 149.191"><title>MDEV_HEADER_go</title><path d="M126.645,131.527q-7.911,8.79-23.145,14.161a99.866,99.866,0,0,1-33.4,5.371q-27.931,0-44.629-17.09T7.6,86.41l-.1-12.3q0-21,7.422-36.669a55.1,55.1,0,0,1,21.24-24.122Q49.984,4.869,68.148,4.867q26.562,0,41.26,12.158t17.139,36.28H93.539q-1.758-11.914-7.617-16.993t-16.6-5.078q-12.889,0-19.922,10.938T42.27,73.422v8.594q0,21.289,7.275,31.982t22.9,10.693q13.379,0,19.922-5.957V96.664H68.539V73.129h58.106Z" transform="translate(-6.004 -3.367)" style="fill:none;stroke:#16b1a9;stroke-width:3px"/><path d="M266.977,80.941q0,20.8-7.715,36.817a57.017,57.017,0,0,1-21.924,24.658q-14.209,8.643-32.373,8.643t-32.227-8.35a56.918,56.918,0,0,1-21.924-23.877q-7.861-15.528-8.252-35.644V75.18q0-20.9,7.667-36.866A56.883,56.883,0,0,1,172.2,13.656q14.306-8.691,32.569-8.691,18.064,0,32.226,8.594a57.911,57.911,0,0,1,22.022,24.462q7.86,15.871,7.959,36.377Zm-34.864-5.957q0-21.189-7.08-32.177T204.77,31.82q-25.782,0-27.247,38.672l-.1,10.449q0,20.9,6.933,32.129T204.965,124.3q12.987,0,20.019-11.035t7.129-31.739Z" transform="translate(-6.004 -3.367)" style="fill:none;stroke:#16b1a9;stroke-width:3px"/></svg>